<?xml version="1.0" encoding="utf-8" standalone="no"?>
<!DOCTYPE svg PUBLIC "-//W3C//DTD SVG 1.1//EN"
  "http://www.w3.org/Graphics/SVG/1.1/DTD/svg11.dtd">
<svg xmlns:xlink="http://www.w3.org/1999/xlink" width="226.728pt" height="167.04pt" viewBox="0 0 226.728 167.04" xmlns="http://www.w3.org/2000/svg" version="1.1">
 <metadata>
  <rdf:RDF xmlns:dc="http://purl.org/dc/elements/1.1/" xmlns:cc="http://creativecommons.org/ns#" xmlns:rdf="http://www.w3.org/1999/02/22-rdf-syntax-ns#">
   <cc:Work>
    <dc:type rdf:resource="http://purl.org/dc/dcmitype/StillImage"/>
    <dc:date>2026-02-13T01:36:42.148652</dc:date>
    <dc:format>image/svg+xml</dc:format>
    <dc:creator>
     <cc:Agent>
      <dc:title>Matplotlib v3.10.5, https://matplotlib.org/</dc:title>
     </cc:Agent>
    </dc:creator>
   </cc:Work>
  </rdf:RDF>
 </metadata>
 <defs>
  <style type="text/css">*{stroke-linejoin: round; stroke-linecap: butt}</style>
 </defs>
 <g id="figure_1">
  <g id="patch_1">
   <path d="M 0 167.04 
L 226.728 167.04 
L 226.728 0 
L 0 0 
z
" style="fill: #ffffff"/>
  </g>
  <g id="axes_1">
   <g id="patch_2">
    <path d="M 29.682428 131.651916 
L 223.72776 131.651916 
L 223.72776 15.775408 
L 29.682428 15.775408 
z
" style="fill: #ffffff"/>
   </g>
   <g id="FillBetweenPolyCollection_1">
    <defs>
     <path id="mc0bcf5761d" d="M 62.09907 -45.483534 
L 61.947562 -45.483534 
L 61.802264 -46.500709 
L 61.482884 -47.517883 
L 60.899914 -48.535058 
L 60.000598 -49.552233 
L 58.798535 -50.569407 
L 57.360414 -51.586582 
L 55.761491 -52.603757 
L 54.045857 -53.620932 
L 52.212255 -54.638106 
L 50.232746 -55.655281 
L 48.114545 -56.672456 
L 45.98294 -57.68963 
L 44.09414 -58.706805 
L 42.702251 -59.72398 
L 41.864533 -60.741154 
L 41.387386 -61.758329 
L 40.986777 -62.775504 
L 40.499112 -63.792678 
L 39.94765 -64.809853 
L 39.461339 -65.827028 
L 39.172437 -66.844202 
L 39.154992 -67.861377 
L 39.389511 -68.878552 
L 39.775284 -69.895726 
L 40.215988 -70.912901 
L 40.703532 -71.930076 
L 41.304594 -72.94725 
L 42.079975 -73.964425 
L 43.035376 -74.9816 
L 44.124785 -75.998774 
L 45.266412 -77.015949 
L 46.367844 -78.033124 
L 47.373696 -79.050298 
L 48.297946 -80.067473 
L 49.195054 -81.084648 
L 50.096995 -82.101822 
L 50.987917 -83.118997 
L 51.834442 -84.136172 
L 52.618507 -85.153347 
L 53.336223 -86.170521 
L 53.990496 -87.187696 
L 54.603353 -88.204871 
L 55.220031 -89.222045 
L 55.876177 -90.23922 
L 56.556288 -91.256395 
L 57.19507 -92.273569 
L 57.726716 -93.290744 
L 58.133366 -94.307919 
L 58.450019 -95.325093 
L 58.732484 -96.342268 
L 59.023285 -97.359443 
L 59.336339 -98.376617 
L 59.657327 -99.393792 
L 59.954727 -100.410967 
L 60.203055 -101.428141 
L 60.406045 -102.445316 
L 60.593718 -103.462491 
L 60.793003 -104.479665 
L 61.006096 -105.49684 
L 61.216854 -106.514015 
L 61.407669 -107.531189 
L 61.566783 -108.548364 
L 61.688625 -109.565539 
L 61.774463 -110.582713 
L 61.831505 -111.599888 
L 61.868653 -112.617063 
L 61.892641 -113.634237 
L 61.907614 -114.651412 
L 61.916997 -115.668587 
L 61.924812 -116.685762 
L 61.934775 -117.702936 
L 61.948077 -118.720111 
L 61.962348 -119.737286 
L 61.973414 -120.75446 
L 61.978721 -121.771635 
L 61.979366 -122.78881 
L 61.979003 -123.805984 
L 61.981177 -124.823159 
L 61.987438 -125.840334 
L 61.996864 -126.857508 
L 62.006835 -127.874683 
L 62.01472 -128.891858 
L 62.019265 -129.909032 
L 62.02047 -130.926207 
L 62.018567 -131.943382 
L 62.013678 -132.960556 
L 62.00673 -133.977731 
L 62.00029 -134.994906 
L 61.997437 -136.01208 
L 61.999037 -137.029255 
L 62.002459 -138.04643 
L 62.003785 -139.063604 
L 62.001567 -140.080779 
L 61.998242 -141.097954 
L 61.997754 -142.115128 
L 62.001838 -143.132303 
L 62.00877 -144.149478 
L 62.015425 -145.166652 
L 62.019893 -146.183827 
L 62.026739 -146.183827 
L 62.026739 -146.183827 
L 62.031207 -145.166652 
L 62.037863 -144.149478 
L 62.044795 -143.132303 
L 62.048879 -142.115128 
L 62.04839 -141.097954 
L 62.045065 -140.080779 
L 62.042847 -139.063604 
L 62.044174 -138.04643 
L 62.047596 -137.029255 
L 62.049196 -136.01208 
L 62.046343 -134.994906 
L 62.039902 -133.977731 
L 62.032954 -132.960556 
L 62.028065 -131.943382 
L 62.026162 -130.926207 
L 62.027368 -129.909032 
L 62.031912 -128.891858 
L 62.039798 -127.874683 
L 62.049768 -126.857508 
L 62.059194 -125.840334 
L 62.065455 -124.823159 
L 62.06763 -123.805984 
L 62.067266 -122.78881 
L 62.067911 -121.771635 
L 62.073219 -120.75446 
L 62.084285 -119.737286 
L 62.098556 -118.720111 
L 62.111858 -117.702936 
L 62.121821 -116.685762 
L 62.129636 -115.668587 
L 62.139019 -114.651412 
L 62.153992 -113.634237 
L 62.17798 -112.617063 
L 62.215127 -111.599888 
L 62.272169 -110.582713 
L 62.358007 -109.565539 
L 62.47985 -108.548364 
L 62.638964 -107.531189 
L 62.829778 -106.514015 
L 63.040537 -105.49684 
L 63.253629 -104.479665 
L 63.452915 -103.462491 
L 63.640587 -102.445316 
L 63.843577 -101.428141 
L 64.091906 -100.410967 
L 64.389306 -99.393792 
L 64.710294 -98.376617 
L 65.023348 -97.359443 
L 65.314149 -96.342268 
L 65.596613 -95.325093 
L 65.913267 -94.307919 
L 66.319916 -93.290744 
L 66.851562 -92.273569 
L 67.490344 -91.256395 
L 68.170456 -90.23922 
L 68.826601 -89.222045 
L 69.44328 -88.204871 
L 70.056136 -87.187696 
L 70.71041 -86.170521 
L 71.428125 -85.153347 
L 72.212191 -84.136172 
L 73.058715 -83.118997 
L 73.949638 -82.101822 
L 74.851579 -81.084648 
L 75.748687 -80.067473 
L 76.672937 -79.050298 
L 77.678789 -78.033124 
L 78.780221 -77.015949 
L 79.921847 -75.998774 
L 81.011256 -74.9816 
L 81.966658 -73.964425 
L 82.742039 -72.94725 
L 83.343101 -71.930076 
L 83.830644 -70.912901 
L 84.271348 -69.895726 
L 84.657121 -68.878552 
L 84.89164 -67.861377 
L 84.874196 -66.844202 
L 84.585294 -65.827028 
L 84.098982 -64.809853 
L 83.54752 -63.792678 
L 83.059856 -62.775504 
L 82.659247 -61.758329 
L 82.1821 -60.741154 
L 81.344382 -59.72398 
L 79.952493 -58.706805 
L 78.063692 -57.68963 
L 75.932087 -56.672456 
L 73.813887 -55.655281 
L 71.834377 -54.638106 
L 70.000776 -53.620932 
L 68.285141 -52.603757 
L 66.686219 -51.586582 
L 65.248098 -50.569407 
L 64.046035 -49.552233 
L 63.146719 -48.535058 
L 62.563749 -47.517883 
L 62.244369 -46.500709 
L 62.09907 -45.483534 
z
" style="stroke: #000000; stroke-width: 1.25"/>
    </defs>
    <g clip-path="url(#pb12a5b85cf)">
     <use xlink:href="#mc0bcf5761d" x="0" y="167.04" style="fill: #dee2e6; stroke: #000000; stroke-width: 1.25"/>
    </g>
   </g>
   <g id="FillBetweenPolyCollection_2">
    <defs>
     <path id="m39fd782201" d="M 126.813792 -45.767624 
L 126.596395 -45.767624 
L 126.383182 -46.761284 
L 125.927413 -47.754945 
L 125.141638 -48.748605 
L 124.013711 -49.742265 
L 122.587545 -50.735926 
L 120.875046 -51.729586 
L 118.816784 -52.723247 
L 116.364639 -53.716907 
L 113.599634 -54.710567 
L 110.749706 -55.704228 
L 108.089021 -56.697888 
L 105.820244 -57.691549 
L 104.033405 -58.685209 
L 102.736591 -59.678869 
L 101.890401 -60.67253 
L 101.408176 -61.66619 
L 101.154528 -62.659851 
L 100.994939 -63.653511 
L 100.874312 -64.647171 
L 100.832383 -65.640832 
L 100.938467 -66.634492 
L 101.234211 -67.628153 
L 101.722737 -68.621813 
L 102.373876 -69.615473 
L 103.16487 -70.609134 
L 104.155577 -71.602794 
L 105.481805 -72.596455 
L 107.201935 -73.590115 
L 109.148316 -74.583776 
L 110.98994 -75.577436 
L 112.471278 -76.571096 
L 113.570994 -77.564757 
L 114.43978 -78.558417 
L 115.234864 -79.552078 
L 116.024395 -80.545738 
L 116.811406 -81.539398 
L 117.609558 -82.533059 
L 118.464014 -83.526719 
L 119.383945 -84.52038 
L 120.286812 -85.51404 
L 121.059437 -86.5077 
L 121.674898 -87.501361 
L 122.212942 -88.495021 
L 122.76014 -89.488682 
L 123.316832 -90.482342 
L 123.812848 -91.476002 
L 124.199524 -92.469663 
L 124.505918 -93.463323 
L 124.797437 -94.456984 
L 125.095893 -95.450644 
L 125.362572 -96.444304 
L 125.556055 -97.437965 
L 125.683582 -98.431625 
L 125.78674 -99.425286 
L 125.892069 -100.418946 
L 125.994587 -101.412607 
L 126.085539 -102.406267 
L 126.172046 -103.399927 
L 126.260894 -104.393588 
L 126.342036 -105.387248 
L 126.401889 -106.380909 
L 126.442377 -107.374569 
L 126.475517 -108.368229 
L 126.506909 -109.36189 
L 126.534035 -110.35555 
L 126.554374 -111.349211 
L 126.56732 -112.342871 
L 126.573335 -113.336531 
L 126.576641 -114.330192 
L 126.584553 -115.323852 
L 126.600537 -116.317513 
L 126.620302 -117.311173 
L 126.636405 -118.304833 
L 126.645213 -119.298494 
L 126.648616 -120.292154 
L 126.650694 -121.285815 
L 126.65437 -122.279475 
L 126.659919 -123.273135 
L 126.664958 -124.266796 
L 126.667102 -125.260456 
L 126.667666 -126.254117 
L 126.670902 -127.247777 
L 126.678858 -128.241437 
L 126.688994 -129.235098 
L 126.697342 -130.228758 
L 126.702185 -131.222419 
L 126.704236 -132.216079 
L 126.704839 -133.20974 
L 126.704733 -134.2034 
L 126.703765 -135.19706 
L 126.700928 -136.190721 
L 126.694925 -137.184381 
L 126.685819 -138.178042 
L 126.676734 -139.171702 
L 126.672699 -140.165362 
L 126.676367 -141.159023 
L 126.685318 -142.152683 
L 126.694525 -143.146344 
L 126.700709 -144.140004 
L 126.709478 -144.140004 
L 126.709478 -144.140004 
L 126.715662 -143.146344 
L 126.724869 -142.152683 
L 126.73382 -141.159023 
L 126.737489 -140.165362 
L 126.733454 -139.171702 
L 126.724368 -138.178042 
L 126.715263 -137.184381 
L 126.709259 -136.190721 
L 126.706423 -135.19706 
L 126.705454 -134.2034 
L 126.705348 -133.20974 
L 126.705951 -132.216079 
L 126.708003 -131.222419 
L 126.712845 -130.228758 
L 126.721194 -129.235098 
L 126.731329 -128.241437 
L 126.739285 -127.247777 
L 126.742521 -126.254117 
L 126.743086 -125.260456 
L 126.745229 -124.266796 
L 126.750268 -123.273135 
L 126.755817 -122.279475 
L 126.759493 -121.285815 
L 126.761572 -120.292154 
L 126.764974 -119.298494 
L 126.773782 -118.304833 
L 126.789885 -117.311173 
L 126.80965 -116.317513 
L 126.825634 -115.323852 
L 126.833546 -114.330192 
L 126.836852 -113.336531 
L 126.842867 -112.342871 
L 126.855814 -111.349211 
L 126.876153 -110.35555 
L 126.903279 -109.36189 
L 126.934671 -108.368229 
L 126.967811 -107.374569 
L 127.008298 -106.380909 
L 127.068152 -105.387248 
L 127.149293 -104.393588 
L 127.238142 -103.399927 
L 127.324648 -102.406267 
L 127.415601 -101.412607 
L 127.518118 -100.418946 
L 127.623448 -99.425286 
L 127.726606 -98.431625 
L 127.854133 -97.437965 
L 128.047615 -96.444304 
L 128.314294 -95.450644 
L 128.612751 -94.456984 
L 128.90427 -93.463323 
L 129.210664 -92.469663 
L 129.597339 -91.476002 
L 130.093356 -90.482342 
L 130.650048 -89.488682 
L 131.197246 -88.495021 
L 131.73529 -87.501361 
L 132.35075 -86.5077 
L 133.123376 -85.51404 
L 134.026243 -84.52038 
L 134.946173 -83.526719 
L 135.80063 -82.533059 
L 136.598781 -81.539398 
L 137.385792 -80.545738 
L 138.175324 -79.552078 
L 138.970408 -78.558417 
L 139.839194 -77.564757 
L 140.93891 -76.571096 
L 142.420247 -75.577436 
L 144.261872 -74.583776 
L 146.208253 -73.590115 
L 147.928382 -72.596455 
L 149.254611 -71.602794 
L 150.245317 -70.609134 
L 151.036312 -69.615473 
L 151.68745 -68.621813 
L 152.175976 -67.628153 
L 152.471721 -66.634492 
L 152.577805 -65.640832 
L 152.535876 -64.647171 
L 152.415249 -63.653511 
L 152.255659 -62.659851 
L 152.002012 -61.66619 
L 151.519787 -60.67253 
L 150.673597 -59.678869 
L 149.376782 -58.685209 
L 147.589943 -57.691549 
L 145.321166 -56.697888 
L 142.660482 -55.704228 
L 139.810553 -54.710567 
L 137.045548 -53.716907 
L 134.593403 -52.723247 
L 132.535142 -51.729586 
L 130.822642 -50.735926 
L 129.396477 -49.742265 
L 128.26855 -48.748605 
L 127.482774 -47.754945 
L 127.027005 -46.761284 
L 126.813792 -45.767624 
z
" style="stroke: #000000; stroke-width: 1.25"/>
    </defs>
    <g clip-path="url(#pb12a5b85cf)">
     <use xlink:href="#m39fd782201" x="0" y="167.04" style="fill: #dee2e6; stroke: #000000; stroke-width: 1.25"/>
    </g>
   </g>
   <g id="FillBetweenPolyCollection_3">
    <defs>
     <path id="ma5467f8c58" d="M 191.446865 -44.56852 
L 191.326877 -44.56852 
L 191.250836 -45.474295 
L 191.10596 -46.38007 
L 190.854722 -47.285845 
L 190.453578 -48.19162 
L 189.855209 -49.097395 
L 189.00836 -50.00317 
L 187.857618 -50.908944 
L 186.350741 -51.814719 
L 184.460254 -52.720494 
L 182.214871 -53.626269 
L 179.721575 -54.532044 
L 177.155914 -55.437819 
L 174.714964 -56.343594 
L 172.554732 -57.249369 
L 170.748015 -58.155144 
L 169.285546 -59.060919 
L 168.113366 -59.966694 
L 167.178316 -60.872468 
L 166.455955 -61.778243 
L 165.952658 -62.684018 
L 165.689073 -63.589793 
L 165.677885 -64.495568 
L 165.907481 -65.401343 
L 166.337908 -66.307118 
L 166.907986 -67.212893 
L 167.54683 -68.118668 
L 168.184438 -69.024443 
L 168.763204 -69.930218 
L 169.25566 -70.835992 
L 169.686412 -71.741767 
L 170.143053 -72.647542 
L 170.75705 -73.553317 
L 171.651548 -74.459092 
L 172.879944 -75.364867 
L 174.392881 -76.270642 
L 176.05596 -77.176417 
L 177.706693 -78.082192 
L 179.215105 -78.987967 
L 180.515787 -79.893742 
L 181.603236 -80.799516 
L 182.50583 -81.705291 
L 183.261023 -82.611066 
L 183.904593 -83.516841 
L 184.471234 -84.422616 
L 184.995272 -85.328391 
L 185.504073 -86.234166 
L 186.007037 -87.139941 
L 186.489884 -88.045716 
L 186.921496 -88.951491 
L 187.271442 -89.857266 
L 187.52831 -90.763041 
L 187.708219 -91.668815 
L 187.84935 -92.57459 
L 187.996897 -93.480365 
L 188.187287 -94.38614 
L 188.438697 -95.291915 
L 188.749374 -96.19769 
L 189.101109 -97.103465 
L 189.465055 -98.00924 
L 189.809097 -98.915015 
L 190.106363 -99.82079 
L 190.342618 -100.726565 
L 190.518958 -101.632339 
L 190.647916 -102.538114 
L 190.745042 -103.443889 
L 190.820972 -104.349664 
L 190.878621 -105.255439 
L 190.916404 -106.161214 
L 190.934225 -107.066989 
L 190.937612 -107.972764 
L 190.937537 -108.878539 
L 190.946741 -109.784314 
L 190.974973 -110.690089 
L 191.025332 -111.595863 
L 191.093113 -112.501638 
L 191.167705 -113.407413 
L 191.236763 -114.313188 
L 191.29055 -115.218963 
L 191.324364 -116.124738 
L 191.338433 -117.030513 
L 191.336302 -117.936288 
L 191.323009 -118.842063 
L 191.30365 -119.747838 
L 191.282292 -120.653613 
L 191.261383 -121.559388 
L 191.242032 -122.465162 
L 191.225076 -123.370937 
L 191.212049 -124.276712 
L 191.205121 -125.182487 
L 191.206083 -126.088262 
L 191.215403 -126.994037 
L 191.232138 -127.899812 
L 191.254477 -128.805587 
L 191.280181 -129.711362 
L 191.306687 -130.617137 
L 191.331294 -131.522912 
L 191.35172 -132.428686 
L 191.366761 -133.334461 
L 191.376533 -134.240236 
L 191.397209 -134.240236 
L 191.397209 -134.240236 
L 191.406982 -133.334461 
L 191.422023 -132.428686 
L 191.442448 -131.522912 
L 191.467055 -130.617137 
L 191.493561 -129.711362 
L 191.519265 -128.805587 
L 191.541605 -127.899812 
L 191.55834 -126.994037 
L 191.567659 -126.088262 
L 191.568621 -125.182487 
L 191.561693 -124.276712 
L 191.548667 -123.370937 
L 191.531711 -122.465162 
L 191.51236 -121.559388 
L 191.491451 -120.653613 
L 191.470092 -119.747838 
L 191.450733 -118.842063 
L 191.437441 -117.936288 
L 191.435309 -117.030513 
L 191.449379 -116.124738 
L 191.483192 -115.218963 
L 191.536979 -114.313188 
L 191.606037 -113.407413 
L 191.680629 -112.501638 
L 191.74841 -111.595863 
L 191.798769 -110.690089 
L 191.827001 -109.784314 
L 191.836206 -108.878539 
L 191.836131 -107.972764 
L 191.839517 -107.066989 
L 191.857339 -106.161214 
L 191.895121 -105.255439 
L 191.95277 -104.349664 
L 192.0287 -103.443889 
L 192.125826 -102.538114 
L 192.254785 -101.632339 
L 192.431125 -100.726565 
L 192.66738 -99.82079 
L 192.964646 -98.915015 
L 193.308688 -98.00924 
L 193.672634 -97.103465 
L 194.024368 -96.19769 
L 194.335046 -95.291915 
L 194.586455 -94.38614 
L 194.776846 -93.480365 
L 194.924393 -92.57459 
L 195.065524 -91.668815 
L 195.245432 -90.763041 
L 195.502301 -89.857266 
L 195.852246 -88.951491 
L 196.283859 -88.045716 
L 196.766706 -87.139941 
L 197.269669 -86.234166 
L 197.778471 -85.328391 
L 198.302508 -84.422616 
L 198.869149 -83.516841 
L 199.51272 -82.611066 
L 200.267912 -81.705291 
L 201.170507 -80.799516 
L 202.257956 -79.893742 
L 203.558637 -78.987967 
L 205.06705 -78.082192 
L 206.717783 -77.176417 
L 208.380862 -76.270642 
L 209.893799 -75.364867 
L 211.122194 -74.459092 
L 212.016692 -73.553317 
L 212.63069 -72.647542 
L 213.087331 -71.741767 
L 213.518083 -70.835992 
L 214.010539 -69.930218 
L 214.589305 -69.024443 
L 215.226913 -68.118668 
L 215.865756 -67.212893 
L 216.435835 -66.307118 
L 216.866261 -65.401343 
L 217.095858 -64.495568 
L 217.08467 -63.589793 
L 216.821084 -62.684018 
L 216.317787 -61.778243 
L 215.595427 -60.872468 
L 214.660376 -59.966694 
L 213.488196 -59.060919 
L 212.025728 -58.155144 
L 210.21901 -57.249369 
L 208.058779 -56.343594 
L 205.617829 -55.437819 
L 203.052168 -54.532044 
L 200.558872 -53.626269 
L 198.313488 -52.720494 
L 196.423002 -51.814719 
L 194.916124 -50.908944 
L 193.765382 -50.00317 
L 192.918533 -49.097395 
L 192.320165 -48.19162 
L 191.919021 -47.285845 
L 191.667783 -46.38007 
L 191.522906 -45.474295 
L 191.446865 -44.56852 
z
" style="stroke: #000000; stroke-width: 1.25"/>
    </defs>
    <g clip-path="url(#pb12a5b85cf)">
     <use xlink:href="#ma5467f8c58" x="0" y="167.04" style="fill: #dee2e6; stroke: #000000; stroke-width: 1.25"/>
    </g>
   </g>
   <g id="matplotlib.axis_1">
    <g id="xtick_1">
     <g id="line2d_1">
      <defs>
       <path id="m92fdbc061d" d="M 0 0 
L 0 3.5 
" style="stroke: #000000; stroke-width: 0.8"/>
      </defs>
      <g>
       <use xlink:href="#m92fdbc061d" x="62.023316" y="131.651916" style="stroke: #000000; stroke-width: 0.8"/>
      </g>
     </g>
     <g id="text_1">
      <!-- Dependent -->
      <g transform="translate(42.615269 143.970822) scale(0.07 -0.07)">
       <defs>
        <path id="DejaVuSans-44" d="M 1259 4147 
L 1259 519 
L 2022 519 
Q 2988 519 3436 956 
Q 3884 1394 3884 2338 
Q 3884 3275 3436 3711 
Q 2988 4147 2022 4147 
L 1259 4147 
z
M 628 4666 
L 1925 4666 
Q 3281 4666 3915 4102 
Q 4550 3538 4550 2338 
Q 4550 1131 3912 565 
Q 3275 0 1925 0 
L 628 0 
L 628 4666 
z
" transform="scale(0.015625)"/>
        <path id="DejaVuSans-65" d="M 3597 1894 
L 3597 1613 
L 953 1613 
Q 991 1019 1311 708 
Q 1631 397 2203 397 
Q 2534 397 2845 478 
Q 3156 559 3463 722 
L 3463 178 
Q 3153 47 2828 -22 
Q 2503 -91 2169 -91 
Q 1331 -91 842 396 
Q 353 884 353 1716 
Q 353 2575 817 3079 
Q 1281 3584 2069 3584 
Q 2775 3584 3186 3129 
Q 3597 2675 3597 1894 
z
M 3022 2063 
Q 3016 2534 2758 2815 
Q 2500 3097 2075 3097 
Q 1594 3097 1305 2825 
Q 1016 2553 972 2059 
L 3022 2063 
z
" transform="scale(0.015625)"/>
        <path id="DejaVuSans-70" d="M 1159 525 
L 1159 -1331 
L 581 -1331 
L 581 3500 
L 1159 3500 
L 1159 2969 
Q 1341 3281 1617 3432 
Q 1894 3584 2278 3584 
Q 2916 3584 3314 3078 
Q 3713 2572 3713 1747 
Q 3713 922 3314 415 
Q 2916 -91 2278 -91 
Q 1894 -91 1617 61 
Q 1341 213 1159 525 
z
M 3116 1747 
Q 3116 2381 2855 2742 
Q 2594 3103 2138 3103 
Q 1681 3103 1420 2742 
Q 1159 2381 1159 1747 
Q 1159 1113 1420 752 
Q 1681 391 2138 391 
Q 2594 391 2855 752 
Q 3116 1113 3116 1747 
z
" transform="scale(0.015625)"/>
        <path id="DejaVuSans-6e" d="M 3513 2113 
L 3513 0 
L 2938 0 
L 2938 2094 
Q 2938 2591 2744 2837 
Q 2550 3084 2163 3084 
Q 1697 3084 1428 2787 
Q 1159 2491 1159 1978 
L 1159 0 
L 581 0 
L 581 3500 
L 1159 3500 
L 1159 2956 
Q 1366 3272 1645 3428 
Q 1925 3584 2291 3584 
Q 2894 3584 3203 3211 
Q 3513 2838 3513 2113 
z
" transform="scale(0.015625)"/>
        <path id="DejaVuSans-64" d="M 2906 2969 
L 2906 4863 
L 3481 4863 
L 3481 0 
L 2906 0 
L 2906 525 
Q 2725 213 2448 61 
Q 2172 -91 1784 -91 
Q 1150 -91 751 415 
Q 353 922 353 1747 
Q 353 2572 751 3078 
Q 1150 3584 1784 3584 
Q 2172 3584 2448 3432 
Q 2725 3281 2906 2969 
z
M 947 1747 
Q 947 1113 1208 752 
Q 1469 391 1925 391 
Q 2381 391 2643 752 
Q 2906 1113 2906 1747 
Q 2906 2381 2643 2742 
Q 2381 3103 1925 3103 
Q 1469 3103 1208 2742 
Q 947 2381 947 1747 
z
" transform="scale(0.015625)"/>
        <path id="DejaVuSans-74" d="M 1172 4494 
L 1172 3500 
L 2356 3500 
L 2356 3053 
L 1172 3053 
L 1172 1153 
Q 1172 725 1289 603 
Q 1406 481 1766 481 
L 2356 481 
L 2356 0 
L 1766 0 
Q 1100 0 847 248 
Q 594 497 594 1153 
L 594 3053 
L 172 3053 
L 172 3500 
L 594 3500 
L 594 4494 
L 1172 4494 
z
" transform="scale(0.015625)"/>
       </defs>
       <use xlink:href="#DejaVuSans-44"/>
       <use xlink:href="#DejaVuSans-65" transform="translate(77.001953 0)"/>
       <use xlink:href="#DejaVuSans-70" transform="translate(138.525391 0)"/>
       <use xlink:href="#DejaVuSans-65" transform="translate(202.001953 0)"/>
       <use xlink:href="#DejaVuSans-6e" transform="translate(263.525391 0)"/>
       <use xlink:href="#DejaVuSans-64" transform="translate(326.904297 0)"/>
       <use xlink:href="#DejaVuSans-65" transform="translate(390.380859 0)"/>
       <use xlink:href="#DejaVuSans-6e" transform="translate(451.904297 0)"/>
       <use xlink:href="#DejaVuSans-74" transform="translate(515.283203 0)"/>
      </g>
      <!-- (Peak +/+) -->
      <g transform="translate(42.826363 151.809291) scale(0.07 -0.07)">
       <defs>
        <path id="DejaVuSans-28" d="M 1984 4856 
Q 1566 4138 1362 3434 
Q 1159 2731 1159 2009 
Q 1159 1288 1364 580 
Q 1569 -128 1984 -844 
L 1484 -844 
Q 1016 -109 783 600 
Q 550 1309 550 2009 
Q 550 2706 781 3412 
Q 1013 4119 1484 4856 
L 1984 4856 
z
" transform="scale(0.015625)"/>
        <path id="DejaVuSans-50" d="M 1259 4147 
L 1259 2394 
L 2053 2394 
Q 2494 2394 2734 2622 
Q 2975 2850 2975 3272 
Q 2975 3691 2734 3919 
Q 2494 4147 2053 4147 
L 1259 4147 
z
M 628 4666 
L 2053 4666 
Q 2838 4666 3239 4311 
Q 3641 3956 3641 3272 
Q 3641 2581 3239 2228 
Q 2838 1875 2053 1875 
L 1259 1875 
L 1259 0 
L 628 0 
L 628 4666 
z
" transform="scale(0.015625)"/>
        <path id="DejaVuSans-61" d="M 2194 1759 
Q 1497 1759 1228 1600 
Q 959 1441 959 1056 
Q 959 750 1161 570 
Q 1363 391 1709 391 
Q 2188 391 2477 730 
Q 2766 1069 2766 1631 
L 2766 1759 
L 2194 1759 
z
M 3341 1997 
L 3341 0 
L 2766 0 
L 2766 531 
Q 2569 213 2275 61 
Q 1981 -91 1556 -91 
Q 1019 -91 701 211 
Q 384 513 384 1019 
Q 384 1609 779 1909 
Q 1175 2209 1959 2209 
L 2766 2209 
L 2766 2266 
Q 2766 2663 2505 2880 
Q 2244 3097 1772 3097 
Q 1472 3097 1187 3025 
Q 903 2953 641 2809 
L 641 3341 
Q 956 3463 1253 3523 
Q 1550 3584 1831 3584 
Q 2591 3584 2966 3190 
Q 3341 2797 3341 1997 
z
" transform="scale(0.015625)"/>
        <path id="DejaVuSans-6b" d="M 581 4863 
L 1159 4863 
L 1159 1991 
L 2875 3500 
L 3609 3500 
L 1753 1863 
L 3688 0 
L 2938 0 
L 1159 1709 
L 1159 0 
L 581 0 
L 581 4863 
z
" transform="scale(0.015625)"/>
        <path id="DejaVuSans-20" transform="scale(0.015625)"/>
        <path id="DejaVuSans-2b" d="M 2944 4013 
L 2944 2272 
L 4684 2272 
L 4684 1741 
L 2944 1741 
L 2944 0 
L 2419 0 
L 2419 1741 
L 678 1741 
L 678 2272 
L 2419 2272 
L 2419 4013 
L 2944 4013 
z
" transform="scale(0.015625)"/>
        <path id="DejaVuSans-2f" d="M 1625 4666 
L 2156 4666 
L 531 -594 
L 0 -594 
L 1625 4666 
z
" transform="scale(0.015625)"/>
        <path id="DejaVuSans-29" d="M 513 4856 
L 1013 4856 
Q 1481 4119 1714 3412 
Q 1947 2706 1947 2009 
Q 1947 1309 1714 600 
Q 1481 -109 1013 -844 
L 513 -844 
Q 928 -128 1133 580 
Q 1338 1288 1338 2009 
Q 1338 2731 1133 3434 
Q 928 4138 513 4856 
z
" transform="scale(0.015625)"/>
       </defs>
       <use xlink:href="#DejaVuSans-28"/>
       <use xlink:href="#DejaVuSans-50" transform="translate(39.013672 0)"/>
       <use xlink:href="#DejaVuSans-65" transform="translate(95.691406 0)"/>
       <use xlink:href="#DejaVuSans-61" transform="translate(157.214844 0)"/>
       <use xlink:href="#DejaVuSans-6b" transform="translate(218.494141 0)"/>
       <use xlink:href="#DejaVuSans-20" transform="translate(276.404297 0)"/>
       <use xlink:href="#DejaVuSans-2b" transform="translate(308.191406 0)"/>
       <use xlink:href="#DejaVuSans-2f" transform="translate(391.980469 0)"/>
       <use xlink:href="#DejaVuSans-2b" transform="translate(425.671875 0)"/>
       <use xlink:href="#DejaVuSans-29" transform="translate(509.460938 0)"/>
      </g>
     </g>
    </g>
    <g id="xtick_2">
     <g id="line2d_2">
      <g>
       <use xlink:href="#m92fdbc061d" x="126.705094" y="131.651916" style="stroke: #000000; stroke-width: 0.8"/>
      </g>
     </g>
     <g id="text_2">
      <!-- Hemi-Independent -->
      <g transform="translate(94.089469 143.970822) scale(0.07 -0.07)">
       <defs>
        <path id="DejaVuSans-48" d="M 628 4666 
L 1259 4666 
L 1259 2753 
L 3553 2753 
L 3553 4666 
L 4184 4666 
L 4184 0 
L 3553 0 
L 3553 2222 
L 1259 2222 
L 1259 0 
L 628 0 
L 628 4666 
z
" transform="scale(0.015625)"/>
        <path id="DejaVuSans-6d" d="M 3328 2828 
Q 3544 3216 3844 3400 
Q 4144 3584 4550 3584 
Q 5097 3584 5394 3201 
Q 5691 2819 5691 2113 
L 5691 0 
L 5113 0 
L 5113 2094 
Q 5113 2597 4934 2840 
Q 4756 3084 4391 3084 
Q 3944 3084 3684 2787 
Q 3425 2491 3425 1978 
L 3425 0 
L 2847 0 
L 2847 2094 
Q 2847 2600 2669 2842 
Q 2491 3084 2119 3084 
Q 1678 3084 1418 2786 
Q 1159 2488 1159 1978 
L 1159 0 
L 581 0 
L 581 3500 
L 1159 3500 
L 1159 2956 
Q 1356 3278 1631 3431 
Q 1906 3584 2284 3584 
Q 2666 3584 2933 3390 
Q 3200 3197 3328 2828 
z
" transform="scale(0.015625)"/>
        <path id="DejaVuSans-69" d="M 603 3500 
L 1178 3500 
L 1178 0 
L 603 0 
L 603 3500 
z
M 603 4863 
L 1178 4863 
L 1178 4134 
L 603 4134 
L 603 4863 
z
" transform="scale(0.015625)"/>
        <path id="DejaVuSans-2d" d="M 313 2009 
L 1997 2009 
L 1997 1497 
L 313 1497 
L 313 2009 
z
" transform="scale(0.015625)"/>
        <path id="DejaVuSans-49" d="M 628 4666 
L 1259 4666 
L 1259 0 
L 628 0 
L 628 4666 
z
" transform="scale(0.015625)"/>
       </defs>
       <use xlink:href="#DejaVuSans-48"/>
       <use xlink:href="#DejaVuSans-65" transform="translate(75.195312 0)"/>
       <use xlink:href="#DejaVuSans-6d" transform="translate(136.71875 0)"/>
       <use xlink:href="#DejaVuSans-69" transform="translate(234.130859 0)"/>
       <use xlink:href="#DejaVuSans-2d" transform="translate(261.914062 0)"/>
       <use xlink:href="#DejaVuSans-49" transform="translate(297.998047 0)"/>
       <use xlink:href="#DejaVuSans-6e" transform="translate(327.490234 0)"/>
       <use xlink:href="#DejaVuSans-64" transform="translate(390.869141 0)"/>
       <use xlink:href="#DejaVuSans-65" transform="translate(454.345703 0)"/>
       <use xlink:href="#DejaVuSans-70" transform="translate(515.869141 0)"/>
       <use xlink:href="#DejaVuSans-65" transform="translate(579.345703 0)"/>
       <use xlink:href="#DejaVuSans-6e" transform="translate(640.869141 0)"/>
       <use xlink:href="#DejaVuSans-64" transform="translate(704.248047 0)"/>
       <use xlink:href="#DejaVuSans-65" transform="translate(767.724609 0)"/>
       <use xlink:href="#DejaVuSans-6e" transform="translate(829.248047 0)"/>
       <use xlink:href="#DejaVuSans-74" transform="translate(892.626953 0)"/>
      </g>
      <!-- (Peak +/-) -->
      <g transform="translate(109.178297 151.809291) scale(0.07 -0.07)">
       <use xlink:href="#DejaVuSans-28"/>
       <use xlink:href="#DejaVuSans-50" transform="translate(39.013672 0)"/>
       <use xlink:href="#DejaVuSans-65" transform="translate(95.691406 0)"/>
       <use xlink:href="#DejaVuSans-61" transform="translate(157.214844 0)"/>
       <use xlink:href="#DejaVuSans-6b" transform="translate(218.494141 0)"/>
       <use xlink:href="#DejaVuSans-20" transform="translate(276.404297 0)"/>
       <use xlink:href="#DejaVuSans-2b" transform="translate(308.191406 0)"/>
       <use xlink:href="#DejaVuSans-2f" transform="translate(391.980469 0)"/>
       <use xlink:href="#DejaVuSans-2d" transform="translate(425.671875 0)"/>
       <use xlink:href="#DejaVuSans-29" transform="translate(461.755859 0)"/>
      </g>
     </g>
    </g>
    <g id="xtick_3">
     <g id="line2d_3">
      <g>
       <use xlink:href="#m92fdbc061d" x="191.386871" y="131.651916" style="stroke: #000000; stroke-width: 0.8"/>
      </g>
     </g>
     <g id="text_3">
      <!-- Independent -->
      <g transform="translate(169.201246 143.970822) scale(0.07 -0.07)">
       <use xlink:href="#DejaVuSans-49"/>
       <use xlink:href="#DejaVuSans-6e" transform="translate(29.492188 0)"/>
       <use xlink:href="#DejaVuSans-64" transform="translate(92.871094 0)"/>
       <use xlink:href="#DejaVuSans-65" transform="translate(156.347656 0)"/>
       <use xlink:href="#DejaVuSans-70" transform="translate(217.871094 0)"/>
       <use xlink:href="#DejaVuSans-65" transform="translate(281.347656 0)"/>
       <use xlink:href="#DejaVuSans-6e" transform="translate(342.871094 0)"/>
       <use xlink:href="#DejaVuSans-64" transform="translate(406.25 0)"/>
       <use xlink:href="#DejaVuSans-65" transform="translate(469.726562 0)"/>
       <use xlink:href="#DejaVuSans-6e" transform="translate(531.25 0)"/>
       <use xlink:href="#DejaVuSans-74" transform="translate(594.628906 0)"/>
      </g>
      <!-- (Peak -/-) -->
      <g transform="translate(175.530231 151.809291) scale(0.07 -0.07)">
       <use xlink:href="#DejaVuSans-28"/>
       <use xlink:href="#DejaVuSans-50" transform="translate(39.013672 0)"/>
       <use xlink:href="#DejaVuSans-65" transform="translate(95.691406 0)"/>
       <use xlink:href="#DejaVuSans-61" transform="translate(157.214844 0)"/>
       <use xlink:href="#DejaVuSans-6b" transform="translate(218.494141 0)"/>
       <use xlink:href="#DejaVuSans-20" transform="translate(276.404297 0)"/>
       <use xlink:href="#DejaVuSans-2d" transform="translate(308.191406 0)"/>
       <use xlink:href="#DejaVuSans-2f" transform="translate(344.275391 0)"/>
       <use xlink:href="#DejaVuSans-2d" transform="translate(377.966797 0)"/>
       <use xlink:href="#DejaVuSans-29" transform="translate(414.050781 0)"/>
      </g>
     </g>
    </g>
    <g id="text_4">
     <!-- Cohesin Dependence of Loops -->
     <g transform="translate(73.692125 162.583979) scale(0.07 -0.07)">
      <defs>
       <path id="DejaVuSans-43" d="M 4122 4306 
L 4122 3641 
Q 3803 3938 3442 4084 
Q 3081 4231 2675 4231 
Q 1875 4231 1450 3742 
Q 1025 3253 1025 2328 
Q 1025 1406 1450 917 
Q 1875 428 2675 428 
Q 3081 428 3442 575 
Q 3803 722 4122 1019 
L 4122 359 
Q 3791 134 3420 21 
Q 3050 -91 2638 -91 
Q 1578 -91 968 557 
Q 359 1206 359 2328 
Q 359 3453 968 4101 
Q 1578 4750 2638 4750 
Q 3056 4750 3426 4639 
Q 3797 4528 4122 4306 
z
" transform="scale(0.015625)"/>
       <path id="DejaVuSans-6f" d="M 1959 3097 
Q 1497 3097 1228 2736 
Q 959 2375 959 1747 
Q 959 1119 1226 758 
Q 1494 397 1959 397 
Q 2419 397 2687 759 
Q 2956 1122 2956 1747 
Q 2956 2369 2687 2733 
Q 2419 3097 1959 3097 
z
M 1959 3584 
Q 2709 3584 3137 3096 
Q 3566 2609 3566 1747 
Q 3566 888 3137 398 
Q 2709 -91 1959 -91 
Q 1206 -91 779 398 
Q 353 888 353 1747 
Q 353 2609 779 3096 
Q 1206 3584 1959 3584 
z
" transform="scale(0.015625)"/>
       <path id="DejaVuSans-68" d="M 3513 2113 
L 3513 0 
L 2938 0 
L 2938 2094 
Q 2938 2591 2744 2837 
Q 2550 3084 2163 3084 
Q 1697 3084 1428 2787 
Q 1159 2491 1159 1978 
L 1159 0 
L 581 0 
L 581 4863 
L 1159 4863 
L 1159 2956 
Q 1366 3272 1645 3428 
Q 1925 3584 2291 3584 
Q 2894 3584 3203 3211 
Q 3513 2838 3513 2113 
z
" transform="scale(0.015625)"/>
       <path id="DejaVuSans-73" d="M 2834 3397 
L 2834 2853 
Q 2591 2978 2328 3040 
Q 2066 3103 1784 3103 
Q 1356 3103 1142 2972 
Q 928 2841 928 2578 
Q 928 2378 1081 2264 
Q 1234 2150 1697 2047 
L 1894 2003 
Q 2506 1872 2764 1633 
Q 3022 1394 3022 966 
Q 3022 478 2636 193 
Q 2250 -91 1575 -91 
Q 1294 -91 989 -36 
Q 684 19 347 128 
L 347 722 
Q 666 556 975 473 
Q 1284 391 1588 391 
Q 1994 391 2212 530 
Q 2431 669 2431 922 
Q 2431 1156 2273 1281 
Q 2116 1406 1581 1522 
L 1381 1569 
Q 847 1681 609 1914 
Q 372 2147 372 2553 
Q 372 3047 722 3315 
Q 1072 3584 1716 3584 
Q 2034 3584 2315 3537 
Q 2597 3491 2834 3397 
z
" transform="scale(0.015625)"/>
       <path id="DejaVuSans-63" d="M 3122 3366 
L 3122 2828 
Q 2878 2963 2633 3030 
Q 2388 3097 2138 3097 
Q 1578 3097 1268 2742 
Q 959 2388 959 1747 
Q 959 1106 1268 751 
Q 1578 397 2138 397 
Q 2388 397 2633 464 
Q 2878 531 3122 666 
L 3122 134 
Q 2881 22 2623 -34 
Q 2366 -91 2075 -91 
Q 1284 -91 818 406 
Q 353 903 353 1747 
Q 353 2603 823 3093 
Q 1294 3584 2113 3584 
Q 2378 3584 2631 3529 
Q 2884 3475 3122 3366 
z
" transform="scale(0.015625)"/>
       <path id="DejaVuSans-66" d="M 2375 4863 
L 2375 4384 
L 1825 4384 
Q 1516 4384 1395 4259 
Q 1275 4134 1275 3809 
L 1275 3500 
L 2222 3500 
L 2222 3053 
L 1275 3053 
L 1275 0 
L 697 0 
L 697 3053 
L 147 3053 
L 147 3500 
L 697 3500 
L 697 3744 
Q 697 4328 969 4595 
Q 1241 4863 1831 4863 
L 2375 4863 
z
" transform="scale(0.015625)"/>
       <path id="DejaVuSans-4c" d="M 628 4666 
L 1259 4666 
L 1259 531 
L 3531 531 
L 3531 0 
L 628 0 
L 628 4666 
z
" transform="scale(0.015625)"/>
      </defs>
      <use xlink:href="#DejaVuSans-43"/>
      <use xlink:href="#DejaVuSans-6f" transform="translate(69.824219 0)"/>
      <use xlink:href="#DejaVuSans-68" transform="translate(131.005859 0)"/>
      <use xlink:href="#DejaVuSans-65" transform="translate(194.384766 0)"/>
      <use xlink:href="#DejaVuSans-73" transform="translate(255.908203 0)"/>
      <use xlink:href="#DejaVuSans-69" transform="translate(308.007812 0)"/>
      <use xlink:href="#DejaVuSans-6e" transform="translate(335.791016 0)"/>
      <use xlink:href="#DejaVuSans-20" transform="translate(399.169922 0)"/>
      <use xlink:href="#DejaVuSans-44" transform="translate(430.957031 0)"/>
      <use xlink:href="#DejaVuSans-65" transform="translate(507.958984 0)"/>
      <use xlink:href="#DejaVuSans-70" transform="translate(569.482422 0)"/>
      <use xlink:href="#DejaVuSans-65" transform="translate(632.958984 0)"/>
      <use xlink:href="#DejaVuSans-6e" transform="translate(694.482422 0)"/>
      <use xlink:href="#DejaVuSans-64" transform="translate(757.861328 0)"/>
      <use xlink:href="#DejaVuSans-65" transform="translate(821.337891 0)"/>
      <use xlink:href="#DejaVuSans-6e" transform="translate(882.861328 0)"/>
      <use xlink:href="#DejaVuSans-63" transform="translate(946.240234 0)"/>
      <use xlink:href="#DejaVuSans-65" transform="translate(1001.220703 0)"/>
      <use xlink:href="#DejaVuSans-20" transform="translate(1062.744141 0)"/>
      <use xlink:href="#DejaVuSans-6f" transform="translate(1094.53125 0)"/>
      <use xlink:href="#DejaVuSans-66" transform="translate(1155.712891 0)"/>
      <use xlink:href="#DejaVuSans-20" transform="translate(1190.917969 0)"/>
      <use xlink:href="#DejaVuSans-4c" transform="translate(1222.705078 0)"/>
      <use xlink:href="#DejaVuSans-6f" transform="translate(1276.667969 0)"/>
      <use xlink:href="#DejaVuSans-6f" transform="translate(1337.849609 0)"/>
      <use xlink:href="#DejaVuSans-70" transform="translate(1399.03125 0)"/>
      <use xlink:href="#DejaVuSans-73" transform="translate(1462.507812 0)"/>
     </g>
    </g>
   </g>
   <g id="matplotlib.axis_2">
    <g id="ytick_1">
     <g id="line2d_4">
      <defs>
       <path id="m27062a36f5" d="M 0 0 
L -3.5 0 
" style="stroke: #000000; stroke-width: 0.8"/>
      </defs>
      <g>
       <use xlink:href="#m27062a36f5" x="29.682428" y="131.651916" style="stroke: #000000; stroke-width: 0.8"/>
      </g>
     </g>
     <g id="text_5">
      <!-- 1 -->
      <g transform="translate(18.228678 134.311369) scale(0.07 -0.07)">
       <defs>
        <path id="DejaVuSans-31" d="M 794 531 
L 1825 531 
L 1825 4091 
L 703 3866 
L 703 4441 
L 1819 4666 
L 2450 4666 
L 2450 531 
L 3481 531 
L 3481 0 
L 794 0 
L 794 531 
z
" transform="scale(0.015625)"/>
       </defs>
       <use xlink:href="#DejaVuSans-31"/>
      </g>
     </g>
    </g>
    <g id="ytick_2">
     <g id="line2d_5">
      <g>
       <use xlink:href="#m27062a36f5" x="29.682428" y="107.342269" style="stroke: #000000; stroke-width: 0.8"/>
      </g>
     </g>
     <g id="text_6">
      <!-- 2 -->
      <g transform="translate(18.228678 110.001722) scale(0.07 -0.07)">
       <defs>
        <path id="DejaVuSans-32" d="M 1228 531 
L 3431 531 
L 3431 0 
L 469 0 
L 469 531 
Q 828 903 1448 1529 
Q 2069 2156 2228 2338 
Q 2531 2678 2651 2914 
Q 2772 3150 2772 3378 
Q 2772 3750 2511 3984 
Q 2250 4219 1831 4219 
Q 1534 4219 1204 4116 
Q 875 4013 500 3803 
L 500 4441 
Q 881 4594 1212 4672 
Q 1544 4750 1819 4750 
Q 2544 4750 2975 4387 
Q 3406 4025 3406 3419 
Q 3406 3131 3298 2873 
Q 3191 2616 2906 2266 
Q 2828 2175 2409 1742 
Q 1991 1309 1228 531 
z
" transform="scale(0.015625)"/>
       </defs>
       <use xlink:href="#DejaVuSans-32"/>
      </g>
     </g>
    </g>
    <g id="ytick_3">
     <g id="line2d_6">
      <g>
       <use xlink:href="#m27062a36f5" x="29.682428" y="75.206663" style="stroke: #000000; stroke-width: 0.8"/>
      </g>
     </g>
     <g id="text_7">
      <!-- 5 -->
      <g transform="translate(18.228678 77.866116) scale(0.07 -0.07)">
       <defs>
        <path id="DejaVuSans-35" d="M 691 4666 
L 3169 4666 
L 3169 4134 
L 1269 4134 
L 1269 2991 
Q 1406 3038 1543 3061 
Q 1681 3084 1819 3084 
Q 2600 3084 3056 2656 
Q 3513 2228 3513 1497 
Q 3513 744 3044 326 
Q 2575 -91 1722 -91 
Q 1428 -91 1123 -41 
Q 819 9 494 109 
L 494 744 
Q 775 591 1075 516 
Q 1375 441 1709 441 
Q 2250 441 2565 725 
Q 2881 1009 2881 1497 
Q 2881 1984 2565 2268 
Q 2250 2553 1709 2553 
Q 1456 2553 1204 2497 
Q 953 2441 691 2322 
L 691 4666 
z
" transform="scale(0.015625)"/>
       </defs>
       <use xlink:href="#DejaVuSans-35"/>
      </g>
     </g>
    </g>
    <g id="ytick_4">
     <g id="line2d_7">
      <g>
       <use xlink:href="#m27062a36f5" x="29.682428" y="50.897016" style="stroke: #000000; stroke-width: 0.8"/>
      </g>
     </g>
     <g id="text_8">
      <!-- 10 -->
      <g transform="translate(13.774928 53.556469) scale(0.07 -0.07)">
       <defs>
        <path id="DejaVuSans-30" d="M 2034 4250 
Q 1547 4250 1301 3770 
Q 1056 3291 1056 2328 
Q 1056 1369 1301 889 
Q 1547 409 2034 409 
Q 2525 409 2770 889 
Q 3016 1369 3016 2328 
Q 3016 3291 2770 3770 
Q 2525 4250 2034 4250 
z
M 2034 4750 
Q 2819 4750 3233 4129 
Q 3647 3509 3647 2328 
Q 3647 1150 3233 529 
Q 2819 -91 2034 -91 
Q 1250 -91 836 529 
Q 422 1150 422 2328 
Q 422 3509 836 4129 
Q 1250 4750 2034 4750 
z
" transform="scale(0.015625)"/>
       </defs>
       <use xlink:href="#DejaVuSans-31"/>
       <use xlink:href="#DejaVuSans-30" transform="translate(63.623047 0)"/>
      </g>
     </g>
    </g>
    <g id="ytick_5">
     <g id="line2d_8">
      <g>
       <use xlink:href="#m27062a36f5" x="29.682428" y="26.587369" style="stroke: #000000; stroke-width: 0.8"/>
      </g>
     </g>
     <g id="text_9">
      <!-- 20 -->
      <g transform="translate(13.774928 29.246822) scale(0.07 -0.07)">
       <use xlink:href="#DejaVuSans-32"/>
       <use xlink:href="#DejaVuSans-30" transform="translate(63.623047 0)"/>
      </g>
     </g>
    </g>
    <g id="ytick_6">
     <g id="line2d_9"/>
    </g>
    <g id="ytick_7">
     <g id="line2d_10"/>
    </g>
    <g id="ytick_8">
     <g id="line2d_11"/>
    </g>
    <g id="ytick_9">
     <g id="line2d_12"/>
    </g>
    <g id="ytick_10">
     <g id="line2d_13"/>
    </g>
    <g id="ytick_11">
     <g id="line2d_14"/>
    </g>
    <g id="text_10">
     <!-- Loop Strength (O/E) -->
     <g transform="translate(8.319146 108.347256) rotate(-90) scale(0.07 -0.07)">
      <defs>
       <path id="DejaVuSans-53" d="M 3425 4513 
L 3425 3897 
Q 3066 4069 2747 4153 
Q 2428 4238 2131 4238 
Q 1616 4238 1336 4038 
Q 1056 3838 1056 3469 
Q 1056 3159 1242 3001 
Q 1428 2844 1947 2747 
L 2328 2669 
Q 3034 2534 3370 2195 
Q 3706 1856 3706 1288 
Q 3706 609 3251 259 
Q 2797 -91 1919 -91 
Q 1588 -91 1214 -16 
Q 841 59 441 206 
L 441 856 
Q 825 641 1194 531 
Q 1563 422 1919 422 
Q 2459 422 2753 634 
Q 3047 847 3047 1241 
Q 3047 1584 2836 1778 
Q 2625 1972 2144 2069 
L 1759 2144 
Q 1053 2284 737 2584 
Q 422 2884 422 3419 
Q 422 4038 858 4394 
Q 1294 4750 2059 4750 
Q 2388 4750 2728 4690 
Q 3069 4631 3425 4513 
z
" transform="scale(0.015625)"/>
       <path id="DejaVuSans-72" d="M 2631 2963 
Q 2534 3019 2420 3045 
Q 2306 3072 2169 3072 
Q 1681 3072 1420 2755 
Q 1159 2438 1159 1844 
L 1159 0 
L 581 0 
L 581 3500 
L 1159 3500 
L 1159 2956 
Q 1341 3275 1631 3429 
Q 1922 3584 2338 3584 
Q 2397 3584 2469 3576 
Q 2541 3569 2628 3553 
L 2631 2963 
z
" transform="scale(0.015625)"/>
       <path id="DejaVuSans-67" d="M 2906 1791 
Q 2906 2416 2648 2759 
Q 2391 3103 1925 3103 
Q 1463 3103 1205 2759 
Q 947 2416 947 1791 
Q 947 1169 1205 825 
Q 1463 481 1925 481 
Q 2391 481 2648 825 
Q 2906 1169 2906 1791 
z
M 3481 434 
Q 3481 -459 3084 -895 
Q 2688 -1331 1869 -1331 
Q 1566 -1331 1297 -1286 
Q 1028 -1241 775 -1147 
L 775 -588 
Q 1028 -725 1275 -790 
Q 1522 -856 1778 -856 
Q 2344 -856 2625 -561 
Q 2906 -266 2906 331 
L 2906 616 
Q 2728 306 2450 153 
Q 2172 0 1784 0 
Q 1141 0 747 490 
Q 353 981 353 1791 
Q 353 2603 747 3093 
Q 1141 3584 1784 3584 
Q 2172 3584 2450 3431 
Q 2728 3278 2906 2969 
L 2906 3500 
L 3481 3500 
L 3481 434 
z
" transform="scale(0.015625)"/>
       <path id="DejaVuSans-4f" d="M 2522 4238 
Q 1834 4238 1429 3725 
Q 1025 3213 1025 2328 
Q 1025 1447 1429 934 
Q 1834 422 2522 422 
Q 3209 422 3611 934 
Q 4013 1447 4013 2328 
Q 4013 3213 3611 3725 
Q 3209 4238 2522 4238 
z
M 2522 4750 
Q 3503 4750 4090 4092 
Q 4678 3434 4678 2328 
Q 4678 1225 4090 567 
Q 3503 -91 2522 -91 
Q 1538 -91 948 565 
Q 359 1222 359 2328 
Q 359 3434 948 4092 
Q 1538 4750 2522 4750 
z
" transform="scale(0.015625)"/>
       <path id="DejaVuSans-45" d="M 628 4666 
L 3578 4666 
L 3578 4134 
L 1259 4134 
L 1259 2753 
L 3481 2753 
L 3481 2222 
L 1259 2222 
L 1259 531 
L 3634 531 
L 3634 0 
L 628 0 
L 628 4666 
z
" transform="scale(0.015625)"/>
      </defs>
      <use xlink:href="#DejaVuSans-4c"/>
      <use xlink:href="#DejaVuSans-6f" transform="translate(53.962891 0)"/>
      <use xlink:href="#DejaVuSans-6f" transform="translate(115.144531 0)"/>
      <use xlink:href="#DejaVuSans-70" transform="translate(176.326172 0)"/>
      <use xlink:href="#DejaVuSans-20" transform="translate(239.802734 0)"/>
      <use xlink:href="#DejaVuSans-53" transform="translate(271.589844 0)"/>
      <use xlink:href="#DejaVuSans-74" transform="translate(335.066406 0)"/>
      <use xlink:href="#DejaVuSans-72" transform="translate(374.275391 0)"/>
      <use xlink:href="#DejaVuSans-65" transform="translate(413.138672 0)"/>
      <use xlink:href="#DejaVuSans-6e" transform="translate(474.662109 0)"/>
      <use xlink:href="#DejaVuSans-67" transform="translate(538.041016 0)"/>
      <use xlink:href="#DejaVuSans-74" transform="translate(601.517578 0)"/>
      <use xlink:href="#DejaVuSans-68" transform="translate(640.726562 0)"/>
      <use xlink:href="#DejaVuSans-20" transform="translate(704.105469 0)"/>
      <use xlink:href="#DejaVuSans-28" transform="translate(735.892578 0)"/>
      <use xlink:href="#DejaVuSans-4f" transform="translate(774.90625 0)"/>
      <use xlink:href="#DejaVuSans-2f" transform="translate(853.617188 0)"/>
      <use xlink:href="#DejaVuSans-45" transform="translate(887.308594 0)"/>
      <use xlink:href="#DejaVuSans-29" transform="translate(950.492188 0)"/>
     </g>
    </g>
   </g>
   <g id="line2d_15">
    <path d="M 62.023316 117.260851 
L 62.023316 64.412979 
" clip-path="url(#pb12a5b85cf)" style="fill: none; stroke: #000000; stroke-width: 1.875; stroke-linecap: square"/>
   </g>
   <g id="line2d_16">
    <path d="M 62.023316 104.377739 
L 62.023316 88.376352 
" clip-path="url(#pb12a5b85cf)" style="fill: none; stroke: #000000; stroke-width: 5.625; stroke-linecap: square"/>
   </g>
   <g id="line2d_17">
    <path d="M 62.023316 96.92689 
" clip-path="url(#pb12a5b85cf)" style="fill: none; stroke: #000000; stroke-width: 1.5; stroke-linecap: square"/>
    <defs>
     <path id="mea0b674fe3" d="M 2.34375 0 
L -2.34375 -0 
" style="stroke: #ffffff; stroke-width: 1.125"/>
    </defs>
    <g clip-path="url(#pb12a5b85cf)">
     <use xlink:href="#mea0b674fe3" x="62.023316" y="96.92689" style="fill: #ffffff; stroke: #ffffff; stroke-width: 1.125"/>
    </g>
   </g>
   <g id="line2d_18">
    <path d="M 126.705094 117.322916 
L 126.705094 72.548312 
" clip-path="url(#pb12a5b85cf)" style="fill: none; stroke: #000000; stroke-width: 1.875; stroke-linecap: square"/>
   </g>
   <g id="line2d_19">
    <path d="M 126.705094 106.102081 
L 126.705094 92.597161 
" clip-path="url(#pb12a5b85cf)" style="fill: none; stroke: #000000; stroke-width: 5.625; stroke-linecap: square"/>
   </g>
   <g id="line2d_20">
    <path d="M 126.705094 99.624798 
" clip-path="url(#pb12a5b85cf)" style="fill: none; stroke: #000000; stroke-width: 1.5; stroke-linecap: square"/>
    <g clip-path="url(#pb12a5b85cf)">
     <use xlink:href="#mea0b674fe3" x="126.705094" y="99.624798" style="fill: #ffffff; stroke: #ffffff; stroke-width: 1.125"/>
    </g>
   </g>
   <g id="line2d_21">
    <path d="M 191.386871 117.275642 
L 191.386871 71.004583 
" clip-path="url(#pb12a5b85cf)" style="fill: none; stroke: #000000; stroke-width: 1.875; stroke-linecap: square"/>
   </g>
   <g id="line2d_22">
    <path d="M 191.386871 105.549459 
L 191.386871 91.686982 
" clip-path="url(#pb12a5b85cf)" style="fill: none; stroke: #000000; stroke-width: 5.625; stroke-linecap: square"/>
   </g>
   <g id="line2d_23">
    <path d="M 191.386871 99.041675 
" clip-path="url(#pb12a5b85cf)" style="fill: none; stroke: #000000; stroke-width: 1.5; stroke-linecap: square"/>
    <g clip-path="url(#pb12a5b85cf)">
     <use xlink:href="#mea0b674fe3" x="191.386871" y="99.041675" style="fill: #ffffff; stroke: #ffffff; stroke-width: 1.125"/>
    </g>
   </g>
   <g id="patch_3">
    <path d="M 29.682428 131.651916 
L 29.682428 15.775408 
" style="fill: none; stroke: #000000; stroke-width: 0.8; stroke-linejoin: miter; stroke-linecap: square"/>
   </g>
   <g id="patch_4">
    <path d="M 29.682428 131.651916 
L 223.72776 131.651916 
" style="fill: none; stroke: #000000; stroke-width: 0.8; stroke-linejoin: miter; stroke-linecap: square"/>
   </g>
  </g>
  <g id="text_11">
   <!-- Bridging P-E Loop Strength Is Cohesin-Invariant -->
   <g transform="translate(30.392672 8.319146) scale(0.07 -0.07)">
    <defs>
     <path id="DejaVuSans-42" d="M 1259 2228 
L 1259 519 
L 2272 519 
Q 2781 519 3026 730 
Q 3272 941 3272 1375 
Q 3272 1813 3026 2020 
Q 2781 2228 2272 2228 
L 1259 2228 
z
M 1259 4147 
L 1259 2741 
L 2194 2741 
Q 2656 2741 2882 2914 
Q 3109 3088 3109 3444 
Q 3109 3797 2882 3972 
Q 2656 4147 2194 4147 
L 1259 4147 
z
M 628 4666 
L 2241 4666 
Q 2963 4666 3353 4366 
Q 3744 4066 3744 3513 
Q 3744 3084 3544 2831 
Q 3344 2578 2956 2516 
Q 3422 2416 3680 2098 
Q 3938 1781 3938 1306 
Q 3938 681 3513 340 
Q 3088 0 2303 0 
L 628 0 
L 628 4666 
z
" transform="scale(0.015625)"/>
     <path id="DejaVuSans-76" d="M 191 3500 
L 800 3500 
L 1894 563 
L 2988 3500 
L 3597 3500 
L 2284 0 
L 1503 0 
L 191 3500 
z
" transform="scale(0.015625)"/>
    </defs>
    <use xlink:href="#DejaVuSans-42"/>
    <use xlink:href="#DejaVuSans-72" transform="translate(68.603516 0)"/>
    <use xlink:href="#DejaVuSans-69" transform="translate(109.716797 0)"/>
    <use xlink:href="#DejaVuSans-64" transform="translate(137.5 0)"/>
    <use xlink:href="#DejaVuSans-67" transform="translate(200.976562 0)"/>
    <use xlink:href="#DejaVuSans-69" transform="translate(264.453125 0)"/>
    <use xlink:href="#DejaVuSans-6e" transform="translate(292.236328 0)"/>
    <use xlink:href="#DejaVuSans-67" transform="translate(355.615234 0)"/>
    <use xlink:href="#DejaVuSans-20" transform="translate(419.091797 0)"/>
    <use xlink:href="#DejaVuSans-50" transform="translate(450.878906 0)"/>
    <use xlink:href="#DejaVuSans-2d" transform="translate(508.931641 0)"/>
    <use xlink:href="#DejaVuSans-45" transform="translate(545.015625 0)"/>
    <use xlink:href="#DejaVuSans-20" transform="translate(608.199219 0)"/>
    <use xlink:href="#DejaVuSans-4c" transform="translate(639.986328 0)"/>
    <use xlink:href="#DejaVuSans-6f" transform="translate(693.949219 0)"/>
    <use xlink:href="#DejaVuSans-6f" transform="translate(755.130859 0)"/>
    <use xlink:href="#DejaVuSans-70" transform="translate(816.3125 0)"/>
    <use xlink:href="#DejaVuSans-20" transform="translate(879.789062 0)"/>
    <use xlink:href="#DejaVuSans-53" transform="translate(911.576172 0)"/>
    <use xlink:href="#DejaVuSans-74" transform="translate(975.052734 0)"/>
    <use xlink:href="#DejaVuSans-72" transform="translate(1014.261719 0)"/>
    <use xlink:href="#DejaVuSans-65" transform="translate(1053.125 0)"/>
    <use xlink:href="#DejaVuSans-6e" transform="translate(1114.648438 0)"/>
    <use xlink:href="#DejaVuSans-67" transform="translate(1178.027344 0)"/>
    <use xlink:href="#DejaVuSans-74" transform="translate(1241.503906 0)"/>
    <use xlink:href="#DejaVuSans-68" transform="translate(1280.712891 0)"/>
    <use xlink:href="#DejaVuSans-20" transform="translate(1344.091797 0)"/>
    <use xlink:href="#DejaVuSans-49" transform="translate(1375.878906 0)"/>
    <use xlink:href="#DejaVuSans-73" transform="translate(1405.371094 0)"/>
    <use xlink:href="#DejaVuSans-20" transform="translate(1457.470703 0)"/>
    <use xlink:href="#DejaVuSans-43" transform="translate(1489.257812 0)"/>
    <use xlink:href="#DejaVuSans-6f" transform="translate(1559.082031 0)"/>
    <use xlink:href="#DejaVuSans-68" transform="translate(1620.263672 0)"/>
    <use xlink:href="#DejaVuSans-65" transform="translate(1683.642578 0)"/>
    <use xlink:href="#DejaVuSans-73" transform="translate(1745.166016 0)"/>
    <use xlink:href="#DejaVuSans-69" transform="translate(1797.265625 0)"/>
    <use xlink:href="#DejaVuSans-6e" transform="translate(1825.048828 0)"/>
    <use xlink:href="#DejaVuSans-2d" transform="translate(1888.427734 0)"/>
    <use xlink:href="#DejaVuSans-49" transform="translate(1924.511719 0)"/>
    <use xlink:href="#DejaVuSans-6e" transform="translate(1954.003906 0)"/>
    <use xlink:href="#DejaVuSans-76" transform="translate(2017.382812 0)"/>
    <use xlink:href="#DejaVuSans-61" transform="translate(2076.5625 0)"/>
    <use xlink:href="#DejaVuSans-72" transform="translate(2137.841797 0)"/>
    <use xlink:href="#DejaVuSans-69" transform="translate(2178.955078 0)"/>
    <use xlink:href="#DejaVuSans-61" transform="translate(2206.738281 0)"/>
    <use xlink:href="#DejaVuSans-6e" transform="translate(2268.017578 0)"/>
    <use xlink:href="#DejaVuSans-74" transform="translate(2331.396484 0)"/>
   </g>
  </g>
 </g>
 <defs>
  <clipPath id="pb12a5b85cf">
   <rect x="29.682428" y="15.775408" width="194.045333" height="115.876509"/>
  </clipPath>
 </defs>
</svg>
