<?xml version="1.0" encoding="utf-8" standalone="no"?>
<!DOCTYPE svg PUBLIC "-//W3C//DTD SVG 1.1//EN"
  "http://www.w3.org/Graphics/SVG/1.1/DTD/svg11.dtd">
<svg xmlns:xlink="http://www.w3.org/1999/xlink" width="224.39952pt" height="152.39952pt" viewBox="0 0 224.39952 152.39952" xmlns="http://www.w3.org/2000/svg" version="1.1">
 <metadata>
  <rdf:RDF xmlns:dc="http://purl.org/dc/elements/1.1/" xmlns:cc="http://creativecommons.org/ns#" xmlns:rdf="http://www.w3.org/1999/02/22-rdf-syntax-ns#">
   <cc:Work>
    <dc:type rdf:resource="http://purl.org/dc/dcmitype/StillImage"/>
    <dc:date>2026-02-12T23:29:41.421980</dc:date>
    <dc:format>image/svg+xml</dc:format>
    <dc:creator>
     <cc:Agent>
      <dc:title>Matplotlib v3.10.5, https://matplotlib.org/</dc:title>
     </cc:Agent>
    </dc:creator>
   </cc:Work>
  </rdf:RDF>
 </metadata>
 <defs>
  <style type="text/css">*{stroke-linejoin: round; stroke-linecap: butt}</style>
 </defs>
 <g id="figure_1">
  <g id="patch_1">
   <path d="M 0 152.39952 
L 224.39952 152.39952 
L 224.39952 0 
L 0 0 
z
" style="fill: #ffffff"/>
  </g>
  <g id="axes_1">
   <g id="patch_2">
    <path d="M 33.882188 112.811676 
L 217.19952 112.811676 
L 217.19952 21.330105 
L 33.882188 21.330105 
z
" style="fill: #ffffff"/>
   </g>
   <g id="FillBetweenPolyCollection_1">
    <defs>
     <path id="mb0c3b1ff61" d="M 64.506642 -47.557946 
L 64.36351 -47.557946 
L 64.226245 -48.36098 
L 63.924522 -49.164014 
L 63.373782 -49.967047 
L 62.524186 -50.770081 
L 61.38858 -51.573115 
L 60.029967 -52.376148 
L 58.519443 -53.179182 
L 56.898659 -53.982216 
L 55.16643 -54.785249 
L 53.29636 -55.588283 
L 51.295266 -56.391317 
L 49.281509 -57.19435 
L 47.497133 -57.997384 
L 46.182196 -58.800418 
L 45.390792 -59.603451 
L 44.940025 -60.406485 
L 44.561564 -61.209519 
L 44.10086 -62.012552 
L 43.579887 -62.815586 
L 43.120461 -63.61862 
L 42.847532 -64.421653 
L 42.831051 -65.224687 
L 43.052605 -66.027721 
L 43.41705 -66.830754 
L 43.833389 -67.633788 
L 44.293978 -68.436822 
L 44.86181 -69.239855 
L 45.594323 -70.042889 
L 46.496905 -70.845923 
L 47.526084 -71.648956 
L 48.604595 -72.45199 
L 49.645133 -73.255024 
L 50.595375 -74.058057 
L 51.468527 -74.861091 
L 52.316038 -75.664125 
L 53.168114 -76.467158 
L 54.009781 -77.270192 
L 54.809505 -78.073226 
L 55.550222 -78.876259 
L 56.228258 -79.679293 
L 56.846359 -80.482327 
L 57.425333 -81.28536 
L 58.007918 -82.088394 
L 58.627788 -82.891428 
L 59.270299 -83.694461 
L 59.873765 -84.497495 
L 60.376019 -85.300529 
L 60.760186 -86.103562 
L 61.059333 -86.906596 
L 61.326181 -87.70963 
L 61.600904 -88.512663 
L 61.896651 -89.315697 
L 62.199893 -90.118731 
L 62.480851 -90.921764 
L 62.71545 -91.724798 
L 62.907218 -92.527832 
L 63.084514 -93.330865 
L 63.272782 -94.133899 
L 63.474094 -94.936933 
L 63.673201 -95.739966 
L 63.853466 -96.543 
L 64.003783 -97.346034 
L 64.118889 -98.149067 
L 64.199982 -98.952101 
L 64.25387 -99.755135 
L 64.288963 -100.558168 
L 64.311625 -101.361202 
L 64.32577 -102.164236 
L 64.334635 -102.967269 
L 64.342018 -103.770303 
L 64.35143 -104.573337 
L 64.363996 -105.37637 
L 64.377478 -106.179404 
L 64.387933 -106.982438 
L 64.392947 -107.785471 
L 64.393556 -108.588505 
L 64.393213 -109.391539 
L 64.395267 -110.194572 
L 64.401182 -110.997606 
L 64.410087 -111.80064 
L 64.419506 -112.603673 
L 64.426955 -113.406707 
L 64.431249 -114.209741 
L 64.432388 -115.012774 
L 64.43059 -115.815808 
L 64.425971 -116.618842 
L 64.419407 -117.421875 
L 64.413323 -118.224909 
L 64.410627 -119.027943 
L 64.412139 -119.830976 
L 64.415372 -120.63401 
L 64.416625 -121.437044 
L 64.414529 -122.240077 
L 64.411388 -123.043111 
L 64.410927 -123.846145 
L 64.414785 -124.649178 
L 64.421334 -125.452212 
L 64.427622 -126.255246 
L 64.431843 -127.058279 
L 64.43831 -127.058279 
L 64.43831 -127.058279 
L 64.442531 -126.255246 
L 64.448818 -125.452212 
L 64.455367 -124.649178 
L 64.459225 -123.846145 
L 64.458764 -123.043111 
L 64.455623 -122.240077 
L 64.453527 -121.437044 
L 64.454781 -120.63401 
L 64.458013 -119.830976 
L 64.459525 -119.027943 
L 64.456829 -118.224909 
L 64.450745 -117.421875 
L 64.444182 -116.618842 
L 64.439563 -115.815808 
L 64.437765 -115.012774 
L 64.438904 -114.209741 
L 64.443197 -113.406707 
L 64.450647 -112.603673 
L 64.460066 -111.80064 
L 64.468971 -110.997606 
L 64.474885 -110.194572 
L 64.47694 -109.391539 
L 64.476597 -108.588505 
L 64.477206 -107.785471 
L 64.48222 -106.982438 
L 64.492674 -106.179404 
L 64.506156 -105.37637 
L 64.518723 -104.573337 
L 64.528135 -103.770303 
L 64.535518 -102.967269 
L 64.544382 -102.164236 
L 64.558527 -101.361202 
L 64.581189 -100.558168 
L 64.616283 -99.755135 
L 64.670171 -98.952101 
L 64.751264 -98.149067 
L 64.86637 -97.346034 
L 65.016687 -96.543 
L 65.196952 -95.739966 
L 65.396059 -94.936933 
L 65.59737 -94.133899 
L 65.785638 -93.330865 
L 65.962935 -92.527832 
L 66.154702 -91.724798 
L 66.389301 -90.921764 
L 66.670259 -90.118731 
L 66.973501 -89.315697 
L 67.269248 -88.512663 
L 67.543972 -87.70963 
L 67.81082 -86.906596 
L 68.109967 -86.103562 
L 68.494134 -85.300529 
L 68.996388 -84.497495 
L 69.599854 -83.694461 
L 70.242365 -82.891428 
L 70.862234 -82.088394 
L 71.444819 -81.28536 
L 72.023793 -80.482327 
L 72.641895 -79.679293 
L 73.31993 -78.876259 
L 74.060648 -78.073226 
L 74.860372 -77.270192 
L 75.702038 -76.467158 
L 76.554115 -75.664125 
L 77.401625 -74.861091 
L 78.274777 -74.058057 
L 79.225019 -73.255024 
L 80.265558 -72.45199 
L 81.344068 -71.648956 
L 82.373248 -70.845923 
L 83.275829 -70.042889 
L 84.008342 -69.239855 
L 84.576174 -68.436822 
L 85.036763 -67.633788 
L 85.453103 -66.830754 
L 85.817548 -66.027721 
L 86.039101 -65.224687 
L 86.022621 -64.421653 
L 85.749691 -63.61862 
L 85.290266 -62.815586 
L 84.769292 -62.012552 
L 84.308589 -61.209519 
L 83.930128 -60.406485 
L 83.47936 -59.603451 
L 82.687956 -58.800418 
L 81.373019 -57.997384 
L 79.588643 -57.19435 
L 77.574886 -56.391317 
L 75.573793 -55.588283 
L 73.703722 -54.785249 
L 71.971494 -53.982216 
L 70.35071 -53.179182 
L 68.840185 -52.376148 
L 67.481572 -51.573115 
L 66.345966 -50.770081 
L 65.49637 -49.967047 
L 64.945631 -49.164014 
L 64.643908 -48.36098 
L 64.506642 -47.557946 
z
" style="stroke: #000000; stroke-width: 1.25"/>
    </defs>
    <g clip-path="url(#pc79e2b348f)">
     <use xlink:href="#mb0c3b1ff61" x="0" y="152.39952" style="fill: #dee2e6; stroke: #000000; stroke-width: 1.25"/>
    </g>
   </g>
   <g id="FillBetweenPolyCollection_2">
    <defs>
     <path id="ma5cc3216b9" d="M 125.643543 -47.782228 
L 125.438165 -47.782228 
L 125.23674 -48.566698 
L 124.806168 -49.351167 
L 124.063835 -50.135637 
L 122.998267 -50.920107 
L 121.650948 -51.704577 
L 120.033126 -52.489046 
L 118.088658 -53.273516 
L 115.772082 -54.057986 
L 113.159943 -54.842456 
L 110.467576 -55.626925 
L 107.953991 -56.411395 
L 105.810645 -57.195865 
L 104.122593 -57.980335 
L 102.897475 -58.764804 
L 102.098067 -59.549274 
L 101.642503 -60.333744 
L 101.402878 -61.118214 
L 101.252112 -61.902683 
L 101.138154 -62.687153 
L 101.098543 -63.471623 
L 101.198762 -64.256093 
L 101.478156 -65.040562 
L 101.939673 -65.825032 
L 102.554813 -66.609502 
L 103.302076 -67.393972 
L 104.238011 -68.178441 
L 105.490917 -68.962911 
L 107.115947 -69.747381 
L 108.954721 -70.531851 
L 110.694529 -71.31632 
L 112.093969 -72.10079 
L 113.132886 -72.88526 
L 113.953641 -73.669729 
L 114.704768 -74.454199 
L 115.450649 -75.238669 
L 116.194149 -76.023139 
L 116.948174 -76.807608 
L 117.755391 -77.592078 
L 118.624462 -78.376548 
L 119.477413 -79.161018 
L 120.207323 -79.945487 
L 120.788757 -80.729957 
L 121.297055 -81.514427 
L 121.814001 -82.298897 
L 122.339916 -83.083366 
L 122.808509 -83.867836 
L 123.173807 -84.652306 
L 123.463262 -85.436776 
L 123.738663 -86.221245 
L 124.020619 -87.005715 
L 124.272555 -87.790185 
L 124.45534 -88.574655 
L 124.575817 -89.359124 
L 124.673272 -90.143594 
L 124.772778 -90.928064 
L 124.869628 -91.712534 
L 124.955552 -92.497003 
L 125.037276 -93.281473 
L 125.121212 -94.065943 
L 125.197868 -94.850413 
L 125.254412 -95.634882 
L 125.292661 -96.419352 
L 125.323969 -97.203822 
L 125.353626 -97.988292 
L 125.379252 -98.772761 
L 125.398466 -99.557231 
L 125.410697 -100.341701 
L 125.41638 -101.126171 
L 125.419503 -101.91064 
L 125.426978 -102.69511 
L 125.442078 -103.47958 
L 125.46075 -104.26405 
L 125.475963 -105.048519 
L 125.484284 -105.832989 
L 125.487498 -106.617459 
L 125.489462 -107.401929 
L 125.492934 -108.186398 
L 125.498177 -108.970868 
L 125.502937 -109.755338 
L 125.504962 -110.539808 
L 125.505495 -111.324277 
L 125.508552 -112.108747 
L 125.516069 -112.893217 
L 125.525644 -113.677686 
L 125.533531 -114.462156 
L 125.538106 -115.246626 
L 125.540044 -116.031096 
L 125.540613 -116.815565 
L 125.540513 -117.600035 
L 125.539598 -118.384505 
L 125.536918 -119.168975 
L 125.531247 -119.953444 
L 125.522645 -120.737914 
L 125.514061 -121.522384 
L 125.51025 -122.306854 
L 125.513715 -123.091323 
L 125.522172 -123.875793 
L 125.53087 -124.660263 
L 125.536712 -125.444733 
L 125.544996 -125.444733 
L 125.544996 -125.444733 
L 125.550838 -124.660263 
L 125.559536 -123.875793 
L 125.567992 -123.091323 
L 125.571458 -122.306854 
L 125.567646 -121.522384 
L 125.559062 -120.737914 
L 125.550461 -119.953444 
L 125.544789 -119.168975 
L 125.542109 -118.384505 
L 125.541194 -117.600035 
L 125.541094 -116.815565 
L 125.541664 -116.031096 
L 125.543602 -115.246626 
L 125.548177 -114.462156 
L 125.556063 -113.677686 
L 125.565639 -112.893217 
L 125.573155 -112.108747 
L 125.576212 -111.324277 
L 125.576745 -110.539808 
L 125.57877 -109.755338 
L 125.583531 -108.970868 
L 125.588773 -108.186398 
L 125.592246 -107.401929 
L 125.594209 -106.617459 
L 125.597424 -105.832989 
L 125.605745 -105.048519 
L 125.620957 -104.26405 
L 125.63963 -103.47958 
L 125.65473 -102.69511 
L 125.662205 -101.91064 
L 125.665328 -101.126171 
L 125.67101 -100.341701 
L 125.683241 -99.557231 
L 125.702455 -98.772761 
L 125.728082 -97.988292 
L 125.757738 -97.203822 
L 125.789046 -96.419352 
L 125.827295 -95.634882 
L 125.88384 -94.850413 
L 125.960495 -94.065943 
L 126.044432 -93.281473 
L 126.126156 -92.497003 
L 126.21208 -91.712534 
L 126.308929 -90.928064 
L 126.408436 -90.143594 
L 126.505891 -89.359124 
L 126.626367 -88.574655 
L 126.809153 -87.790185 
L 127.061088 -87.005715 
L 127.343044 -86.221245 
L 127.618446 -85.436776 
L 127.907901 -84.652306 
L 128.273198 -83.867836 
L 128.741792 -83.083366 
L 129.267707 -82.298897 
L 129.784652 -81.514427 
L 130.29295 -80.729957 
L 130.874384 -79.945487 
L 131.604294 -79.161018 
L 132.457245 -78.376548 
L 133.326317 -77.592078 
L 134.133533 -76.807608 
L 134.887558 -76.023139 
L 135.631058 -75.238669 
L 136.37694 -74.454199 
L 137.128067 -73.669729 
L 137.948821 -72.88526 
L 138.987738 -72.10079 
L 140.387178 -71.31632 
L 142.126987 -70.531851 
L 143.96576 -69.747381 
L 145.590791 -68.962911 
L 146.843697 -68.178441 
L 147.779631 -67.393972 
L 148.526895 -66.609502 
L 149.142034 -65.825032 
L 149.603552 -65.040562 
L 149.882946 -64.256093 
L 149.983165 -63.471623 
L 149.943554 -62.687153 
L 149.829596 -61.902683 
L 149.678829 -61.118214 
L 149.439205 -60.333744 
L 148.983641 -59.549274 
L 148.184233 -58.764804 
L 146.959114 -57.980335 
L 145.271063 -57.195865 
L 143.127717 -56.411395 
L 140.614132 -55.626925 
L 137.921764 -54.842456 
L 135.309625 -54.057986 
L 132.99305 -53.273516 
L 131.048581 -52.489046 
L 129.430759 -51.704577 
L 128.083441 -50.920107 
L 127.017873 -50.135637 
L 126.275539 -49.351167 
L 125.844968 -48.566698 
L 125.643543 -47.782228 
z
" style="stroke: #000000; stroke-width: 1.25"/>
    </defs>
    <g clip-path="url(#pc79e2b348f)">
     <use xlink:href="#ma5cc3216b9" x="0" y="152.39952" style="fill: #dee2e6; stroke: #000000; stroke-width: 1.25"/>
    </g>
   </g>
   <g id="FillBetweenPolyCollection_3">
    <defs>
     <path id="maa5d5041f3" d="M 186.703308 -46.835566 
L 186.589954 -46.835566 
L 186.518117 -47.550652 
L 186.38125 -48.265739 
L 186.143902 -48.980825 
L 185.764936 -49.695911 
L 185.199649 -50.410998 
L 184.399619 -51.126084 
L 183.312496 -51.84117 
L 181.888929 -52.556257 
L 180.10296 -53.271343 
L 177.981714 -53.98643 
L 175.626263 -54.701516 
L 173.202447 -55.416602 
L 170.896448 -56.131689 
L 168.855647 -56.846775 
L 167.148816 -57.561861 
L 165.767201 -58.276948 
L 164.659826 -58.992034 
L 163.776471 -59.707121 
L 163.094047 -60.422207 
L 162.618576 -61.137293 
L 162.369563 -61.85238 
L 162.358993 -62.567466 
L 162.575896 -63.282552 
L 162.982526 -63.997639 
L 163.521087 -64.712725 
L 164.124612 -65.427812 
L 164.726968 -66.142898 
L 165.273737 -66.857984 
L 165.738967 -67.573071 
L 166.145904 -68.288157 
L 166.5773 -69.003243 
L 167.157352 -69.71833 
L 168.002396 -70.433416 
L 169.162879 -71.148502 
L 170.592172 -71.863589 
L 172.163305 -72.578675 
L 173.722776 -73.293762 
L 175.147794 -74.008848 
L 176.376566 -74.723934 
L 177.403894 -75.439021 
L 178.256588 -76.154107 
L 178.970029 -76.869193 
L 179.578019 -77.58428 
L 180.113332 -78.299366 
L 180.608398 -79.014453 
L 181.08907 -79.729539 
L 181.564226 -80.444625 
L 182.020379 -81.159712 
L 182.428129 -81.874798 
L 182.758728 -82.589884 
L 183.001395 -83.304971 
L 183.171357 -84.020057 
L 183.304686 -84.735144 
L 183.444075 -85.45023 
L 183.623939 -86.165316 
L 183.86145 -86.880403 
L 184.154951 -87.595489 
L 184.48724 -88.310575 
L 184.831064 -89.025662 
L 185.156086 -89.740748 
L 185.436917 -90.455834 
L 185.66011 -91.170921 
L 185.826701 -91.886007 
L 185.94853 -92.601094 
L 186.040287 -93.31618 
L 186.112019 -94.031266 
L 186.16648 -94.746353 
L 186.202174 -95.461439 
L 186.21901 -96.176525 
L 186.222209 -96.891612 
L 186.222139 -97.606698 
L 186.230834 -98.321785 
L 186.257506 -99.036871 
L 186.305081 -99.751957 
L 186.369114 -100.467044 
L 186.439582 -101.18213 
L 186.504822 -101.897216 
L 186.555635 -102.612303 
L 186.587579 -103.327389 
L 186.600871 -104.042476 
L 186.598858 -104.757562 
L 186.5863 -105.472648 
L 186.568011 -106.187735 
L 186.547834 -106.902821 
L 186.52808 -107.617907 
L 186.509799 -108.332994 
L 186.493781 -109.04808 
L 186.481474 -109.763166 
L 186.47493 -110.478253 
L 186.475838 -111.193339 
L 186.484642 -111.908426 
L 186.500452 -112.623512 
L 186.521557 -113.338598 
L 186.54584 -114.053685 
L 186.570881 -114.768771 
L 186.594127 -115.483857 
L 186.613423 -116.198944 
L 186.627633 -116.91403 
L 186.636865 -117.629117 
L 186.656398 -117.629117 
L 186.656398 -117.629117 
L 186.66563 -116.91403 
L 186.679839 -116.198944 
L 186.699135 -115.483857 
L 186.722382 -114.768771 
L 186.747423 -114.053685 
L 186.771706 -113.338598 
L 186.79281 -112.623512 
L 186.80862 -111.908426 
L 186.817424 -111.193339 
L 186.818333 -110.478253 
L 186.811788 -109.763166 
L 186.799482 -109.04808 
L 186.783463 -108.332994 
L 186.765182 -107.617907 
L 186.745429 -106.902821 
L 186.725251 -106.187735 
L 186.706963 -105.472648 
L 186.694405 -104.757562 
L 186.692391 -104.042476 
L 186.705683 -103.327389 
L 186.737627 -102.612303 
L 186.788441 -101.897216 
L 186.85368 -101.18213 
L 186.924149 -100.467044 
L 186.988182 -99.751957 
L 187.035757 -99.036871 
L 187.062428 -98.321785 
L 187.071124 -97.606698 
L 187.071053 -96.891612 
L 187.074252 -96.176525 
L 187.091088 -95.461439 
L 187.126782 -94.746353 
L 187.181244 -94.031266 
L 187.252976 -93.31618 
L 187.344732 -92.601094 
L 187.466561 -91.886007 
L 187.633152 -91.170921 
L 187.856346 -90.455834 
L 188.137177 -89.740748 
L 188.462198 -89.025662 
L 188.806023 -88.310575 
L 189.138311 -87.595489 
L 189.431813 -86.880403 
L 189.669323 -86.165316 
L 189.849187 -85.45023 
L 189.988577 -84.735144 
L 190.121905 -84.020057 
L 190.291868 -83.304971 
L 190.534535 -82.589884 
L 190.865133 -81.874798 
L 191.272884 -81.159712 
L 191.729036 -80.444625 
L 192.204193 -79.729539 
L 192.684864 -79.014453 
L 193.17993 -78.299366 
L 193.715244 -77.58428 
L 194.323234 -76.869193 
L 195.036675 -76.154107 
L 195.889368 -75.439021 
L 196.916696 -74.723934 
L 198.145469 -74.008848 
L 199.570487 -73.293762 
L 201.129957 -72.578675 
L 202.701091 -71.863589 
L 204.130384 -71.148502 
L 205.290866 -70.433416 
L 206.135911 -69.71833 
L 206.715963 -69.003243 
L 207.147358 -68.288157 
L 207.554295 -67.573071 
L 208.019526 -66.857984 
L 208.566294 -66.142898 
L 209.168651 -65.427812 
L 209.772175 -64.712725 
L 210.310737 -63.997639 
L 210.717366 -63.282552 
L 210.934269 -62.567466 
L 210.9237 -61.85238 
L 210.674687 -61.137293 
L 210.199215 -60.422207 
L 209.516791 -59.707121 
L 208.633436 -58.992034 
L 207.526061 -58.276948 
L 206.144447 -57.561861 
L 204.437616 -56.846775 
L 202.396815 -56.131689 
L 200.090815 -55.416602 
L 197.667 -54.701516 
L 195.311548 -53.98643 
L 193.190303 -53.271343 
L 191.404334 -52.556257 
L 189.980766 -51.84117 
L 188.893644 -51.126084 
L 188.093614 -50.410998 
L 187.528326 -49.695911 
L 187.14936 -48.980825 
L 186.912012 -48.265739 
L 186.775145 -47.550652 
L 186.703308 -46.835566 
z
" style="stroke: #000000; stroke-width: 1.25"/>
    </defs>
    <g clip-path="url(#pc79e2b348f)">
     <use xlink:href="#maa5d5041f3" x="0" y="152.39952" style="fill: #dee2e6; stroke: #000000; stroke-width: 1.25"/>
    </g>
   </g>
   <g id="matplotlib.axis_1">
    <g id="xtick_1">
     <g id="line2d_1">
      <defs>
       <path id="mae44e1e6b2" d="M 0 0 
L 0 3.5 
" style="stroke: #000000; stroke-width: 0.8"/>
      </defs>
      <g>
       <use xlink:href="#mae44e1e6b2" x="64.435076" y="112.811676" style="stroke: #000000; stroke-width: 0.8"/>
      </g>
     </g>
     <g id="text_1">
      <!-- Dependent -->
      <g transform="translate(45.027029 125.130582) scale(0.07 -0.07)">
       <defs>
        <path id="DejaVuSans-44" d="M 1259 4147 
L 1259 519 
L 2022 519 
Q 2988 519 3436 956 
Q 3884 1394 3884 2338 
Q 3884 3275 3436 3711 
Q 2988 4147 2022 4147 
L 1259 4147 
z
M 628 4666 
L 1925 4666 
Q 3281 4666 3915 4102 
Q 4550 3538 4550 2338 
Q 4550 1131 3912 565 
Q 3275 0 1925 0 
L 628 0 
L 628 4666 
z
" transform="scale(0.015625)"/>
        <path id="DejaVuSans-65" d="M 3597 1894 
L 3597 1613 
L 953 1613 
Q 991 1019 1311 708 
Q 1631 397 2203 397 
Q 2534 397 2845 478 
Q 3156 559 3463 722 
L 3463 178 
Q 3153 47 2828 -22 
Q 2503 -91 2169 -91 
Q 1331 -91 842 396 
Q 353 884 353 1716 
Q 353 2575 817 3079 
Q 1281 3584 2069 3584 
Q 2775 3584 3186 3129 
Q 3597 2675 3597 1894 
z
M 3022 2063 
Q 3016 2534 2758 2815 
Q 2500 3097 2075 3097 
Q 1594 3097 1305 2825 
Q 1016 2553 972 2059 
L 3022 2063 
z
" transform="scale(0.015625)"/>
        <path id="DejaVuSans-70" d="M 1159 525 
L 1159 -1331 
L 581 -1331 
L 581 3500 
L 1159 3500 
L 1159 2969 
Q 1341 3281 1617 3432 
Q 1894 3584 2278 3584 
Q 2916 3584 3314 3078 
Q 3713 2572 3713 1747 
Q 3713 922 3314 415 
Q 2916 -91 2278 -91 
Q 1894 -91 1617 61 
Q 1341 213 1159 525 
z
M 3116 1747 
Q 3116 2381 2855 2742 
Q 2594 3103 2138 3103 
Q 1681 3103 1420 2742 
Q 1159 2381 1159 1747 
Q 1159 1113 1420 752 
Q 1681 391 2138 391 
Q 2594 391 2855 752 
Q 3116 1113 3116 1747 
z
" transform="scale(0.015625)"/>
        <path id="DejaVuSans-6e" d="M 3513 2113 
L 3513 0 
L 2938 0 
L 2938 2094 
Q 2938 2591 2744 2837 
Q 2550 3084 2163 3084 
Q 1697 3084 1428 2787 
Q 1159 2491 1159 1978 
L 1159 0 
L 581 0 
L 581 3500 
L 1159 3500 
L 1159 2956 
Q 1366 3272 1645 3428 
Q 1925 3584 2291 3584 
Q 2894 3584 3203 3211 
Q 3513 2838 3513 2113 
z
" transform="scale(0.015625)"/>
        <path id="DejaVuSans-64" d="M 2906 2969 
L 2906 4863 
L 3481 4863 
L 3481 0 
L 2906 0 
L 2906 525 
Q 2725 213 2448 61 
Q 2172 -91 1784 -91 
Q 1150 -91 751 415 
Q 353 922 353 1747 
Q 353 2572 751 3078 
Q 1150 3584 1784 3584 
Q 2172 3584 2448 3432 
Q 2725 3281 2906 2969 
z
M 947 1747 
Q 947 1113 1208 752 
Q 1469 391 1925 391 
Q 2381 391 2643 752 
Q 2906 1113 2906 1747 
Q 2906 2381 2643 2742 
Q 2381 3103 1925 3103 
Q 1469 3103 1208 2742 
Q 947 2381 947 1747 
z
" transform="scale(0.015625)"/>
        <path id="DejaVuSans-74" d="M 1172 4494 
L 1172 3500 
L 2356 3500 
L 2356 3053 
L 1172 3053 
L 1172 1153 
Q 1172 725 1289 603 
Q 1406 481 1766 481 
L 2356 481 
L 2356 0 
L 1766 0 
Q 1100 0 847 248 
Q 594 497 594 1153 
L 594 3053 
L 172 3053 
L 172 3500 
L 594 3500 
L 594 4494 
L 1172 4494 
z
" transform="scale(0.015625)"/>
       </defs>
       <use xlink:href="#DejaVuSans-44"/>
       <use xlink:href="#DejaVuSans-65" transform="translate(77.001953 0)"/>
       <use xlink:href="#DejaVuSans-70" transform="translate(138.525391 0)"/>
       <use xlink:href="#DejaVuSans-65" transform="translate(202.001953 0)"/>
       <use xlink:href="#DejaVuSans-6e" transform="translate(263.525391 0)"/>
       <use xlink:href="#DejaVuSans-64" transform="translate(326.904297 0)"/>
       <use xlink:href="#DejaVuSans-65" transform="translate(390.380859 0)"/>
       <use xlink:href="#DejaVuSans-6e" transform="translate(451.904297 0)"/>
       <use xlink:href="#DejaVuSans-74" transform="translate(515.283203 0)"/>
      </g>
      <!-- (Peak +/+) -->
      <g transform="translate(45.238123 132.969051) scale(0.07 -0.07)">
       <defs>
        <path id="DejaVuSans-28" d="M 1984 4856 
Q 1566 4138 1362 3434 
Q 1159 2731 1159 2009 
Q 1159 1288 1364 580 
Q 1569 -128 1984 -844 
L 1484 -844 
Q 1016 -109 783 600 
Q 550 1309 550 2009 
Q 550 2706 781 3412 
Q 1013 4119 1484 4856 
L 1984 4856 
z
" transform="scale(0.015625)"/>
        <path id="DejaVuSans-50" d="M 1259 4147 
L 1259 2394 
L 2053 2394 
Q 2494 2394 2734 2622 
Q 2975 2850 2975 3272 
Q 2975 3691 2734 3919 
Q 2494 4147 2053 4147 
L 1259 4147 
z
M 628 4666 
L 2053 4666 
Q 2838 4666 3239 4311 
Q 3641 3956 3641 3272 
Q 3641 2581 3239 2228 
Q 2838 1875 2053 1875 
L 1259 1875 
L 1259 0 
L 628 0 
L 628 4666 
z
" transform="scale(0.015625)"/>
        <path id="DejaVuSans-61" d="M 2194 1759 
Q 1497 1759 1228 1600 
Q 959 1441 959 1056 
Q 959 750 1161 570 
Q 1363 391 1709 391 
Q 2188 391 2477 730 
Q 2766 1069 2766 1631 
L 2766 1759 
L 2194 1759 
z
M 3341 1997 
L 3341 0 
L 2766 0 
L 2766 531 
Q 2569 213 2275 61 
Q 1981 -91 1556 -91 
Q 1019 -91 701 211 
Q 384 513 384 1019 
Q 384 1609 779 1909 
Q 1175 2209 1959 2209 
L 2766 2209 
L 2766 2266 
Q 2766 2663 2505 2880 
Q 2244 3097 1772 3097 
Q 1472 3097 1187 3025 
Q 903 2953 641 2809 
L 641 3341 
Q 956 3463 1253 3523 
Q 1550 3584 1831 3584 
Q 2591 3584 2966 3190 
Q 3341 2797 3341 1997 
z
" transform="scale(0.015625)"/>
        <path id="DejaVuSans-6b" d="M 581 4863 
L 1159 4863 
L 1159 1991 
L 2875 3500 
L 3609 3500 
L 1753 1863 
L 3688 0 
L 2938 0 
L 1159 1709 
L 1159 0 
L 581 0 
L 581 4863 
z
" transform="scale(0.015625)"/>
        <path id="DejaVuSans-20" transform="scale(0.015625)"/>
        <path id="DejaVuSans-2b" d="M 2944 4013 
L 2944 2272 
L 4684 2272 
L 4684 1741 
L 2944 1741 
L 2944 0 
L 2419 0 
L 2419 1741 
L 678 1741 
L 678 2272 
L 2419 2272 
L 2419 4013 
L 2944 4013 
z
" transform="scale(0.015625)"/>
        <path id="DejaVuSans-2f" d="M 1625 4666 
L 2156 4666 
L 531 -594 
L 0 -594 
L 1625 4666 
z
" transform="scale(0.015625)"/>
        <path id="DejaVuSans-29" d="M 513 4856 
L 1013 4856 
Q 1481 4119 1714 3412 
Q 1947 2706 1947 2009 
Q 1947 1309 1714 600 
Q 1481 -109 1013 -844 
L 513 -844 
Q 928 -128 1133 580 
Q 1338 1288 1338 2009 
Q 1338 2731 1133 3434 
Q 928 4138 513 4856 
z
" transform="scale(0.015625)"/>
       </defs>
       <use xlink:href="#DejaVuSans-28"/>
       <use xlink:href="#DejaVuSans-50" transform="translate(39.013672 0)"/>
       <use xlink:href="#DejaVuSans-65" transform="translate(95.691406 0)"/>
       <use xlink:href="#DejaVuSans-61" transform="translate(157.214844 0)"/>
       <use xlink:href="#DejaVuSans-6b" transform="translate(218.494141 0)"/>
       <use xlink:href="#DejaVuSans-20" transform="translate(276.404297 0)"/>
       <use xlink:href="#DejaVuSans-2b" transform="translate(308.191406 0)"/>
       <use xlink:href="#DejaVuSans-2f" transform="translate(391.980469 0)"/>
       <use xlink:href="#DejaVuSans-2b" transform="translate(425.671875 0)"/>
       <use xlink:href="#DejaVuSans-29" transform="translate(509.460938 0)"/>
      </g>
     </g>
    </g>
    <g id="xtick_2">
     <g id="line2d_2">
      <g>
       <use xlink:href="#mae44e1e6b2" x="125.540854" y="112.811676" style="stroke: #000000; stroke-width: 0.8"/>
      </g>
     </g>
     <g id="text_2">
      <!-- Hemi-Independent -->
      <g transform="translate(92.925229 125.130582) scale(0.07 -0.07)">
       <defs>
        <path id="DejaVuSans-48" d="M 628 4666 
L 1259 4666 
L 1259 2753 
L 3553 2753 
L 3553 4666 
L 4184 4666 
L 4184 0 
L 3553 0 
L 3553 2222 
L 1259 2222 
L 1259 0 
L 628 0 
L 628 4666 
z
" transform="scale(0.015625)"/>
        <path id="DejaVuSans-6d" d="M 3328 2828 
Q 3544 3216 3844 3400 
Q 4144 3584 4550 3584 
Q 5097 3584 5394 3201 
Q 5691 2819 5691 2113 
L 5691 0 
L 5113 0 
L 5113 2094 
Q 5113 2597 4934 2840 
Q 4756 3084 4391 3084 
Q 3944 3084 3684 2787 
Q 3425 2491 3425 1978 
L 3425 0 
L 2847 0 
L 2847 2094 
Q 2847 2600 2669 2842 
Q 2491 3084 2119 3084 
Q 1678 3084 1418 2786 
Q 1159 2488 1159 1978 
L 1159 0 
L 581 0 
L 581 3500 
L 1159 3500 
L 1159 2956 
Q 1356 3278 1631 3431 
Q 1906 3584 2284 3584 
Q 2666 3584 2933 3390 
Q 3200 3197 3328 2828 
z
" transform="scale(0.015625)"/>
        <path id="DejaVuSans-69" d="M 603 3500 
L 1178 3500 
L 1178 0 
L 603 0 
L 603 3500 
z
M 603 4863 
L 1178 4863 
L 1178 4134 
L 603 4134 
L 603 4863 
z
" transform="scale(0.015625)"/>
        <path id="DejaVuSans-2d" d="M 313 2009 
L 1997 2009 
L 1997 1497 
L 313 1497 
L 313 2009 
z
" transform="scale(0.015625)"/>
        <path id="DejaVuSans-49" d="M 628 4666 
L 1259 4666 
L 1259 0 
L 628 0 
L 628 4666 
z
" transform="scale(0.015625)"/>
       </defs>
       <use xlink:href="#DejaVuSans-48"/>
       <use xlink:href="#DejaVuSans-65" transform="translate(75.195312 0)"/>
       <use xlink:href="#DejaVuSans-6d" transform="translate(136.71875 0)"/>
       <use xlink:href="#DejaVuSans-69" transform="translate(234.130859 0)"/>
       <use xlink:href="#DejaVuSans-2d" transform="translate(261.914062 0)"/>
       <use xlink:href="#DejaVuSans-49" transform="translate(297.998047 0)"/>
       <use xlink:href="#DejaVuSans-6e" transform="translate(327.490234 0)"/>
       <use xlink:href="#DejaVuSans-64" transform="translate(390.869141 0)"/>
       <use xlink:href="#DejaVuSans-65" transform="translate(454.345703 0)"/>
       <use xlink:href="#DejaVuSans-70" transform="translate(515.869141 0)"/>
       <use xlink:href="#DejaVuSans-65" transform="translate(579.345703 0)"/>
       <use xlink:href="#DejaVuSans-6e" transform="translate(640.869141 0)"/>
       <use xlink:href="#DejaVuSans-64" transform="translate(704.248047 0)"/>
       <use xlink:href="#DejaVuSans-65" transform="translate(767.724609 0)"/>
       <use xlink:href="#DejaVuSans-6e" transform="translate(829.248047 0)"/>
       <use xlink:href="#DejaVuSans-74" transform="translate(892.626953 0)"/>
      </g>
      <!-- (Peak +/-) -->
      <g transform="translate(108.014057 132.969051) scale(0.07 -0.07)">
       <use xlink:href="#DejaVuSans-28"/>
       <use xlink:href="#DejaVuSans-50" transform="translate(39.013672 0)"/>
       <use xlink:href="#DejaVuSans-65" transform="translate(95.691406 0)"/>
       <use xlink:href="#DejaVuSans-61" transform="translate(157.214844 0)"/>
       <use xlink:href="#DejaVuSans-6b" transform="translate(218.494141 0)"/>
       <use xlink:href="#DejaVuSans-20" transform="translate(276.404297 0)"/>
       <use xlink:href="#DejaVuSans-2b" transform="translate(308.191406 0)"/>
       <use xlink:href="#DejaVuSans-2f" transform="translate(391.980469 0)"/>
       <use xlink:href="#DejaVuSans-2d" transform="translate(425.671875 0)"/>
       <use xlink:href="#DejaVuSans-29" transform="translate(461.755859 0)"/>
      </g>
     </g>
    </g>
    <g id="xtick_3">
     <g id="line2d_3">
      <g>
       <use xlink:href="#mae44e1e6b2" x="186.646631" y="112.811676" style="stroke: #000000; stroke-width: 0.8"/>
      </g>
     </g>
     <g id="text_3">
      <!-- Independent -->
      <g transform="translate(164.461006 125.130582) scale(0.07 -0.07)">
       <use xlink:href="#DejaVuSans-49"/>
       <use xlink:href="#DejaVuSans-6e" transform="translate(29.492188 0)"/>
       <use xlink:href="#DejaVuSans-64" transform="translate(92.871094 0)"/>
       <use xlink:href="#DejaVuSans-65" transform="translate(156.347656 0)"/>
       <use xlink:href="#DejaVuSans-70" transform="translate(217.871094 0)"/>
       <use xlink:href="#DejaVuSans-65" transform="translate(281.347656 0)"/>
       <use xlink:href="#DejaVuSans-6e" transform="translate(342.871094 0)"/>
       <use xlink:href="#DejaVuSans-64" transform="translate(406.25 0)"/>
       <use xlink:href="#DejaVuSans-65" transform="translate(469.726562 0)"/>
       <use xlink:href="#DejaVuSans-6e" transform="translate(531.25 0)"/>
       <use xlink:href="#DejaVuSans-74" transform="translate(594.628906 0)"/>
      </g>
      <!-- (Peak -/-) -->
      <g transform="translate(170.789991 132.969051) scale(0.07 -0.07)">
       <use xlink:href="#DejaVuSans-28"/>
       <use xlink:href="#DejaVuSans-50" transform="translate(39.013672 0)"/>
       <use xlink:href="#DejaVuSans-65" transform="translate(95.691406 0)"/>
       <use xlink:href="#DejaVuSans-61" transform="translate(157.214844 0)"/>
       <use xlink:href="#DejaVuSans-6b" transform="translate(218.494141 0)"/>
       <use xlink:href="#DejaVuSans-20" transform="translate(276.404297 0)"/>
       <use xlink:href="#DejaVuSans-2d" transform="translate(308.191406 0)"/>
       <use xlink:href="#DejaVuSans-2f" transform="translate(344.275391 0)"/>
       <use xlink:href="#DejaVuSans-2d" transform="translate(377.966797 0)"/>
       <use xlink:href="#DejaVuSans-29" transform="translate(414.050781 0)"/>
      </g>
     </g>
    </g>
    <g id="text_4">
     <!-- Cohesin Dependence of Loops -->
     <g transform="translate(72.527885 143.743739) scale(0.07 -0.07)">
      <defs>
       <path id="DejaVuSans-43" d="M 4122 4306 
L 4122 3641 
Q 3803 3938 3442 4084 
Q 3081 4231 2675 4231 
Q 1875 4231 1450 3742 
Q 1025 3253 1025 2328 
Q 1025 1406 1450 917 
Q 1875 428 2675 428 
Q 3081 428 3442 575 
Q 3803 722 4122 1019 
L 4122 359 
Q 3791 134 3420 21 
Q 3050 -91 2638 -91 
Q 1578 -91 968 557 
Q 359 1206 359 2328 
Q 359 3453 968 4101 
Q 1578 4750 2638 4750 
Q 3056 4750 3426 4639 
Q 3797 4528 4122 4306 
z
" transform="scale(0.015625)"/>
       <path id="DejaVuSans-6f" d="M 1959 3097 
Q 1497 3097 1228 2736 
Q 959 2375 959 1747 
Q 959 1119 1226 758 
Q 1494 397 1959 397 
Q 2419 397 2687 759 
Q 2956 1122 2956 1747 
Q 2956 2369 2687 2733 
Q 2419 3097 1959 3097 
z
M 1959 3584 
Q 2709 3584 3137 3096 
Q 3566 2609 3566 1747 
Q 3566 888 3137 398 
Q 2709 -91 1959 -91 
Q 1206 -91 779 398 
Q 353 888 353 1747 
Q 353 2609 779 3096 
Q 1206 3584 1959 3584 
z
" transform="scale(0.015625)"/>
       <path id="DejaVuSans-68" d="M 3513 2113 
L 3513 0 
L 2938 0 
L 2938 2094 
Q 2938 2591 2744 2837 
Q 2550 3084 2163 3084 
Q 1697 3084 1428 2787 
Q 1159 2491 1159 1978 
L 1159 0 
L 581 0 
L 581 4863 
L 1159 4863 
L 1159 2956 
Q 1366 3272 1645 3428 
Q 1925 3584 2291 3584 
Q 2894 3584 3203 3211 
Q 3513 2838 3513 2113 
z
" transform="scale(0.015625)"/>
       <path id="DejaVuSans-73" d="M 2834 3397 
L 2834 2853 
Q 2591 2978 2328 3040 
Q 2066 3103 1784 3103 
Q 1356 3103 1142 2972 
Q 928 2841 928 2578 
Q 928 2378 1081 2264 
Q 1234 2150 1697 2047 
L 1894 2003 
Q 2506 1872 2764 1633 
Q 3022 1394 3022 966 
Q 3022 478 2636 193 
Q 2250 -91 1575 -91 
Q 1294 -91 989 -36 
Q 684 19 347 128 
L 347 722 
Q 666 556 975 473 
Q 1284 391 1588 391 
Q 1994 391 2212 530 
Q 2431 669 2431 922 
Q 2431 1156 2273 1281 
Q 2116 1406 1581 1522 
L 1381 1569 
Q 847 1681 609 1914 
Q 372 2147 372 2553 
Q 372 3047 722 3315 
Q 1072 3584 1716 3584 
Q 2034 3584 2315 3537 
Q 2597 3491 2834 3397 
z
" transform="scale(0.015625)"/>
       <path id="DejaVuSans-63" d="M 3122 3366 
L 3122 2828 
Q 2878 2963 2633 3030 
Q 2388 3097 2138 3097 
Q 1578 3097 1268 2742 
Q 959 2388 959 1747 
Q 959 1106 1268 751 
Q 1578 397 2138 397 
Q 2388 397 2633 464 
Q 2878 531 3122 666 
L 3122 134 
Q 2881 22 2623 -34 
Q 2366 -91 2075 -91 
Q 1284 -91 818 406 
Q 353 903 353 1747 
Q 353 2603 823 3093 
Q 1294 3584 2113 3584 
Q 2378 3584 2631 3529 
Q 2884 3475 3122 3366 
z
" transform="scale(0.015625)"/>
       <path id="DejaVuSans-66" d="M 2375 4863 
L 2375 4384 
L 1825 4384 
Q 1516 4384 1395 4259 
Q 1275 4134 1275 3809 
L 1275 3500 
L 2222 3500 
L 2222 3053 
L 1275 3053 
L 1275 0 
L 697 0 
L 697 3053 
L 147 3053 
L 147 3500 
L 697 3500 
L 697 3744 
Q 697 4328 969 4595 
Q 1241 4863 1831 4863 
L 2375 4863 
z
" transform="scale(0.015625)"/>
       <path id="DejaVuSans-4c" d="M 628 4666 
L 1259 4666 
L 1259 531 
L 3531 531 
L 3531 0 
L 628 0 
L 628 4666 
z
" transform="scale(0.015625)"/>
      </defs>
      <use xlink:href="#DejaVuSans-43"/>
      <use xlink:href="#DejaVuSans-6f" transform="translate(69.824219 0)"/>
      <use xlink:href="#DejaVuSans-68" transform="translate(131.005859 0)"/>
      <use xlink:href="#DejaVuSans-65" transform="translate(194.384766 0)"/>
      <use xlink:href="#DejaVuSans-73" transform="translate(255.908203 0)"/>
      <use xlink:href="#DejaVuSans-69" transform="translate(308.007812 0)"/>
      <use xlink:href="#DejaVuSans-6e" transform="translate(335.791016 0)"/>
      <use xlink:href="#DejaVuSans-20" transform="translate(399.169922 0)"/>
      <use xlink:href="#DejaVuSans-44" transform="translate(430.957031 0)"/>
      <use xlink:href="#DejaVuSans-65" transform="translate(507.958984 0)"/>
      <use xlink:href="#DejaVuSans-70" transform="translate(569.482422 0)"/>
      <use xlink:href="#DejaVuSans-65" transform="translate(632.958984 0)"/>
      <use xlink:href="#DejaVuSans-6e" transform="translate(694.482422 0)"/>
      <use xlink:href="#DejaVuSans-64" transform="translate(757.861328 0)"/>
      <use xlink:href="#DejaVuSans-65" transform="translate(821.337891 0)"/>
      <use xlink:href="#DejaVuSans-6e" transform="translate(882.861328 0)"/>
      <use xlink:href="#DejaVuSans-63" transform="translate(946.240234 0)"/>
      <use xlink:href="#DejaVuSans-65" transform="translate(1001.220703 0)"/>
      <use xlink:href="#DejaVuSans-20" transform="translate(1062.744141 0)"/>
      <use xlink:href="#DejaVuSans-6f" transform="translate(1094.53125 0)"/>
      <use xlink:href="#DejaVuSans-66" transform="translate(1155.712891 0)"/>
      <use xlink:href="#DejaVuSans-20" transform="translate(1190.917969 0)"/>
      <use xlink:href="#DejaVuSans-4c" transform="translate(1222.705078 0)"/>
      <use xlink:href="#DejaVuSans-6f" transform="translate(1276.667969 0)"/>
      <use xlink:href="#DejaVuSans-6f" transform="translate(1337.849609 0)"/>
      <use xlink:href="#DejaVuSans-70" transform="translate(1399.03125 0)"/>
      <use xlink:href="#DejaVuSans-73" transform="translate(1462.507812 0)"/>
     </g>
    </g>
   </g>
   <g id="matplotlib.axis_2">
    <g id="ytick_1">
     <g id="line2d_4">
      <defs>
       <path id="m8685af8f0c" d="M 0 0 
L -3.5 0 
" style="stroke: #000000; stroke-width: 0.8"/>
      </defs>
      <g>
       <use xlink:href="#m8685af8f0c" x="33.882188" y="112.811676" style="stroke: #000000; stroke-width: 0.8"/>
      </g>
     </g>
     <g id="text_5">
      <!-- 1 -->
      <g transform="translate(22.428438 115.471129) scale(0.07 -0.07)">
       <defs>
        <path id="DejaVuSans-31" d="M 794 531 
L 1825 531 
L 1825 4091 
L 703 3866 
L 703 4441 
L 1819 4666 
L 2450 4666 
L 2450 531 
L 3481 531 
L 3481 0 
L 794 0 
L 794 531 
z
" transform="scale(0.015625)"/>
       </defs>
       <use xlink:href="#DejaVuSans-31"/>
      </g>
     </g>
    </g>
    <g id="ytick_2">
     <g id="line2d_5">
      <g>
       <use xlink:href="#m8685af8f0c" x="33.882188" y="93.619825" style="stroke: #000000; stroke-width: 0.8"/>
      </g>
     </g>
     <g id="text_6">
      <!-- 2 -->
      <g transform="translate(22.428438 96.279278) scale(0.07 -0.07)">
       <defs>
        <path id="DejaVuSans-32" d="M 1228 531 
L 3431 531 
L 3431 0 
L 469 0 
L 469 531 
Q 828 903 1448 1529 
Q 2069 2156 2228 2338 
Q 2531 2678 2651 2914 
Q 2772 3150 2772 3378 
Q 2772 3750 2511 3984 
Q 2250 4219 1831 4219 
Q 1534 4219 1204 4116 
Q 875 4013 500 3803 
L 500 4441 
Q 881 4594 1212 4672 
Q 1544 4750 1819 4750 
Q 2544 4750 2975 4387 
Q 3406 4025 3406 3419 
Q 3406 3131 3298 2873 
Q 3191 2616 2906 2266 
Q 2828 2175 2409 1742 
Q 1991 1309 1228 531 
z
" transform="scale(0.015625)"/>
       </defs>
       <use xlink:href="#DejaVuSans-32"/>
      </g>
     </g>
    </g>
    <g id="ytick_3">
     <g id="line2d_6">
      <g>
       <use xlink:href="#m8685af8f0c" x="33.882188" y="68.249577" style="stroke: #000000; stroke-width: 0.8"/>
      </g>
     </g>
     <g id="text_7">
      <!-- 5 -->
      <g transform="translate(22.428438 70.909031) scale(0.07 -0.07)">
       <defs>
        <path id="DejaVuSans-35" d="M 691 4666 
L 3169 4666 
L 3169 4134 
L 1269 4134 
L 1269 2991 
Q 1406 3038 1543 3061 
Q 1681 3084 1819 3084 
Q 2600 3084 3056 2656 
Q 3513 2228 3513 1497 
Q 3513 744 3044 326 
Q 2575 -91 1722 -91 
Q 1428 -91 1123 -41 
Q 819 9 494 109 
L 494 744 
Q 775 591 1075 516 
Q 1375 441 1709 441 
Q 2250 441 2565 725 
Q 2881 1009 2881 1497 
Q 2881 1984 2565 2268 
Q 2250 2553 1709 2553 
Q 1456 2553 1204 2497 
Q 953 2441 691 2322 
L 691 4666 
z
" transform="scale(0.015625)"/>
       </defs>
       <use xlink:href="#DejaVuSans-35"/>
      </g>
     </g>
    </g>
    <g id="ytick_4">
     <g id="line2d_7">
      <g>
       <use xlink:href="#m8685af8f0c" x="33.882188" y="49.057726" style="stroke: #000000; stroke-width: 0.8"/>
      </g>
     </g>
     <g id="text_8">
      <!-- 10 -->
      <g transform="translate(17.974688 51.717179) scale(0.07 -0.07)">
       <defs>
        <path id="DejaVuSans-30" d="M 2034 4250 
Q 1547 4250 1301 3770 
Q 1056 3291 1056 2328 
Q 1056 1369 1301 889 
Q 1547 409 2034 409 
Q 2525 409 2770 889 
Q 3016 1369 3016 2328 
Q 3016 3291 2770 3770 
Q 2525 4250 2034 4250 
z
M 2034 4750 
Q 2819 4750 3233 4129 
Q 3647 3509 3647 2328 
Q 3647 1150 3233 529 
Q 2819 -91 2034 -91 
Q 1250 -91 836 529 
Q 422 1150 422 2328 
Q 422 3509 836 4129 
Q 1250 4750 2034 4750 
z
" transform="scale(0.015625)"/>
       </defs>
       <use xlink:href="#DejaVuSans-31"/>
       <use xlink:href="#DejaVuSans-30" transform="translate(63.623047 0)"/>
      </g>
     </g>
    </g>
    <g id="ytick_5">
     <g id="line2d_8">
      <g>
       <use xlink:href="#m8685af8f0c" x="33.882188" y="29.865875" style="stroke: #000000; stroke-width: 0.8"/>
      </g>
     </g>
     <g id="text_9">
      <!-- 20 -->
      <g transform="translate(17.974688 32.525328) scale(0.07 -0.07)">
       <use xlink:href="#DejaVuSans-32"/>
       <use xlink:href="#DejaVuSans-30" transform="translate(63.623047 0)"/>
      </g>
     </g>
    </g>
    <g id="ytick_6">
     <g id="line2d_9"/>
    </g>
    <g id="ytick_7">
     <g id="line2d_10"/>
    </g>
    <g id="ytick_8">
     <g id="line2d_11"/>
    </g>
    <g id="ytick_9">
     <g id="line2d_12"/>
    </g>
    <g id="ytick_10">
     <g id="line2d_13"/>
    </g>
    <g id="ytick_11">
     <g id="line2d_14"/>
    </g>
    <g id="text_10">
     <!-- Loop Strength (O/E) -->
     <g transform="translate(12.518906 101.704484) rotate(-90) scale(0.07 -0.07)">
      <defs>
       <path id="DejaVuSans-53" d="M 3425 4513 
L 3425 3897 
Q 3066 4069 2747 4153 
Q 2428 4238 2131 4238 
Q 1616 4238 1336 4038 
Q 1056 3838 1056 3469 
Q 1056 3159 1242 3001 
Q 1428 2844 1947 2747 
L 2328 2669 
Q 3034 2534 3370 2195 
Q 3706 1856 3706 1288 
Q 3706 609 3251 259 
Q 2797 -91 1919 -91 
Q 1588 -91 1214 -16 
Q 841 59 441 206 
L 441 856 
Q 825 641 1194 531 
Q 1563 422 1919 422 
Q 2459 422 2753 634 
Q 3047 847 3047 1241 
Q 3047 1584 2836 1778 
Q 2625 1972 2144 2069 
L 1759 2144 
Q 1053 2284 737 2584 
Q 422 2884 422 3419 
Q 422 4038 858 4394 
Q 1294 4750 2059 4750 
Q 2388 4750 2728 4690 
Q 3069 4631 3425 4513 
z
" transform="scale(0.015625)"/>
       <path id="DejaVuSans-72" d="M 2631 2963 
Q 2534 3019 2420 3045 
Q 2306 3072 2169 3072 
Q 1681 3072 1420 2755 
Q 1159 2438 1159 1844 
L 1159 0 
L 581 0 
L 581 3500 
L 1159 3500 
L 1159 2956 
Q 1341 3275 1631 3429 
Q 1922 3584 2338 3584 
Q 2397 3584 2469 3576 
Q 2541 3569 2628 3553 
L 2631 2963 
z
" transform="scale(0.015625)"/>
       <path id="DejaVuSans-67" d="M 2906 1791 
Q 2906 2416 2648 2759 
Q 2391 3103 1925 3103 
Q 1463 3103 1205 2759 
Q 947 2416 947 1791 
Q 947 1169 1205 825 
Q 1463 481 1925 481 
Q 2391 481 2648 825 
Q 2906 1169 2906 1791 
z
M 3481 434 
Q 3481 -459 3084 -895 
Q 2688 -1331 1869 -1331 
Q 1566 -1331 1297 -1286 
Q 1028 -1241 775 -1147 
L 775 -588 
Q 1028 -725 1275 -790 
Q 1522 -856 1778 -856 
Q 2344 -856 2625 -561 
Q 2906 -266 2906 331 
L 2906 616 
Q 2728 306 2450 153 
Q 2172 0 1784 0 
Q 1141 0 747 490 
Q 353 981 353 1791 
Q 353 2603 747 3093 
Q 1141 3584 1784 3584 
Q 2172 3584 2450 3431 
Q 2728 3278 2906 2969 
L 2906 3500 
L 3481 3500 
L 3481 434 
z
" transform="scale(0.015625)"/>
       <path id="DejaVuSans-4f" d="M 2522 4238 
Q 1834 4238 1429 3725 
Q 1025 3213 1025 2328 
Q 1025 1447 1429 934 
Q 1834 422 2522 422 
Q 3209 422 3611 934 
Q 4013 1447 4013 2328 
Q 4013 3213 3611 3725 
Q 3209 4238 2522 4238 
z
M 2522 4750 
Q 3503 4750 4090 4092 
Q 4678 3434 4678 2328 
Q 4678 1225 4090 567 
Q 3503 -91 2522 -91 
Q 1538 -91 948 565 
Q 359 1222 359 2328 
Q 359 3434 948 4092 
Q 1538 4750 2522 4750 
z
" transform="scale(0.015625)"/>
       <path id="DejaVuSans-45" d="M 628 4666 
L 3578 4666 
L 3578 4134 
L 1259 4134 
L 1259 2753 
L 3481 2753 
L 3481 2222 
L 1259 2222 
L 1259 531 
L 3634 531 
L 3634 0 
L 628 0 
L 628 4666 
z
" transform="scale(0.015625)"/>
      </defs>
      <use xlink:href="#DejaVuSans-4c"/>
      <use xlink:href="#DejaVuSans-6f" transform="translate(53.962891 0)"/>
      <use xlink:href="#DejaVuSans-6f" transform="translate(115.144531 0)"/>
      <use xlink:href="#DejaVuSans-70" transform="translate(176.326172 0)"/>
      <use xlink:href="#DejaVuSans-20" transform="translate(239.802734 0)"/>
      <use xlink:href="#DejaVuSans-53" transform="translate(271.589844 0)"/>
      <use xlink:href="#DejaVuSans-74" transform="translate(335.066406 0)"/>
      <use xlink:href="#DejaVuSans-72" transform="translate(374.275391 0)"/>
      <use xlink:href="#DejaVuSans-65" transform="translate(413.138672 0)"/>
      <use xlink:href="#DejaVuSans-6e" transform="translate(474.662109 0)"/>
      <use xlink:href="#DejaVuSans-67" transform="translate(538.041016 0)"/>
      <use xlink:href="#DejaVuSans-74" transform="translate(601.517578 0)"/>
      <use xlink:href="#DejaVuSans-68" transform="translate(640.726562 0)"/>
      <use xlink:href="#DejaVuSans-20" transform="translate(704.105469 0)"/>
      <use xlink:href="#DejaVuSans-28" transform="translate(735.892578 0)"/>
      <use xlink:href="#DejaVuSans-4f" transform="translate(774.90625 0)"/>
      <use xlink:href="#DejaVuSans-2f" transform="translate(853.617188 0)"/>
      <use xlink:href="#DejaVuSans-45" transform="translate(887.308594 0)"/>
      <use xlink:href="#DejaVuSans-29" transform="translate(950.492188 0)"/>
     </g>
    </g>
   </g>
   <g id="line2d_15">
    <path d="M 64.435076 101.450294 
L 64.435076 59.728237 
" clip-path="url(#pc79e2b348f)" style="fill: none; stroke: #000000; stroke-width: 1.875; stroke-linecap: square"/>
   </g>
   <g id="line2d_16">
    <path d="M 64.435076 91.279404 
L 64.435076 78.646714 
" clip-path="url(#pc79e2b348f)" style="fill: none; stroke: #000000; stroke-width: 5.625; stroke-linecap: square"/>
   </g>
   <g id="line2d_17">
    <path d="M 64.435076 85.397147 
" clip-path="url(#pc79e2b348f)" style="fill: none; stroke: #000000; stroke-width: 1.5; stroke-linecap: square"/>
    <defs>
     <path id="m31b860e0aa" d="M 2.34375 0 
L -2.34375 -0 
" style="stroke: #ffffff; stroke-width: 1.125"/>
    </defs>
    <g clip-path="url(#pc79e2b348f)">
     <use xlink:href="#m31b860e0aa" x="64.435076" y="85.397147" style="fill: #ffffff; stroke: #ffffff; stroke-width: 1.125"/>
    </g>
   </g>
   <g id="line2d_18">
    <path d="M 125.540854 101.499293 
L 125.540854 66.150876 
" clip-path="url(#pc79e2b348f)" style="fill: none; stroke: #000000; stroke-width: 1.875; stroke-linecap: square"/>
   </g>
   <g id="line2d_19">
    <path d="M 125.540854 92.640728 
L 125.540854 81.978935 
" clip-path="url(#pc79e2b348f)" style="fill: none; stroke: #000000; stroke-width: 5.625; stroke-linecap: square"/>
   </g>
   <g id="line2d_20">
    <path d="M 125.540854 87.527077 
" clip-path="url(#pc79e2b348f)" style="fill: none; stroke: #000000; stroke-width: 1.5; stroke-linecap: square"/>
    <g clip-path="url(#pc79e2b348f)">
     <use xlink:href="#m31b860e0aa" x="125.540854" y="87.527077" style="fill: #ffffff; stroke: #ffffff; stroke-width: 1.125"/>
    </g>
   </g>
   <g id="line2d_21">
    <path d="M 186.646631 101.461971 
L 186.646631 64.932141 
" clip-path="url(#pc79e2b348f)" style="fill: none; stroke: #000000; stroke-width: 1.875; stroke-linecap: square"/>
   </g>
   <g id="line2d_22">
    <path d="M 186.646631 92.204447 
L 186.646631 81.260372 
" clip-path="url(#pc79e2b348f)" style="fill: none; stroke: #000000; stroke-width: 5.625; stroke-linecap: square"/>
   </g>
   <g id="line2d_23">
    <path d="M 186.646631 87.066716 
" clip-path="url(#pc79e2b348f)" style="fill: none; stroke: #000000; stroke-width: 1.5; stroke-linecap: square"/>
    <g clip-path="url(#pc79e2b348f)">
     <use xlink:href="#m31b860e0aa" x="186.646631" y="87.066716" style="fill: #ffffff; stroke: #ffffff; stroke-width: 1.125"/>
    </g>
   </g>
   <g id="patch_3">
    <path d="M 33.882188 112.811676 
L 33.882188 21.330105 
" style="fill: none; stroke: #000000; stroke-width: 0.8; stroke-linejoin: miter; stroke-linecap: square"/>
   </g>
   <g id="patch_4">
    <path d="M 33.882188 112.811676 
L 217.19952 112.811676 
" style="fill: none; stroke: #000000; stroke-width: 0.8; stroke-linejoin: miter; stroke-linecap: square"/>
   </g>
  </g>
  <g id="text_11">
   <!-- Bridging P-E Loop Strength Is Cohesin-Invariant -->
   <g transform="translate(12.634166 13.582688) scale(0.084 -0.084)">
    <defs>
     <path id="DejaVuSans-42" d="M 1259 2228 
L 1259 519 
L 2272 519 
Q 2781 519 3026 730 
Q 3272 941 3272 1375 
Q 3272 1813 3026 2020 
Q 2781 2228 2272 2228 
L 1259 2228 
z
M 1259 4147 
L 1259 2741 
L 2194 2741 
Q 2656 2741 2882 2914 
Q 3109 3088 3109 3444 
Q 3109 3797 2882 3972 
Q 2656 4147 2194 4147 
L 1259 4147 
z
M 628 4666 
L 2241 4666 
Q 2963 4666 3353 4366 
Q 3744 4066 3744 3513 
Q 3744 3084 3544 2831 
Q 3344 2578 2956 2516 
Q 3422 2416 3680 2098 
Q 3938 1781 3938 1306 
Q 3938 681 3513 340 
Q 3088 0 2303 0 
L 628 0 
L 628 4666 
z
" transform="scale(0.015625)"/>
     <path id="DejaVuSans-76" d="M 191 3500 
L 800 3500 
L 1894 563 
L 2988 3500 
L 3597 3500 
L 2284 0 
L 1503 0 
L 191 3500 
z
" transform="scale(0.015625)"/>
    </defs>
    <use xlink:href="#DejaVuSans-42"/>
    <use xlink:href="#DejaVuSans-72" transform="translate(68.603516 0)"/>
    <use xlink:href="#DejaVuSans-69" transform="translate(109.716797 0)"/>
    <use xlink:href="#DejaVuSans-64" transform="translate(137.5 0)"/>
    <use xlink:href="#DejaVuSans-67" transform="translate(200.976562 0)"/>
    <use xlink:href="#DejaVuSans-69" transform="translate(264.453125 0)"/>
    <use xlink:href="#DejaVuSans-6e" transform="translate(292.236328 0)"/>
    <use xlink:href="#DejaVuSans-67" transform="translate(355.615234 0)"/>
    <use xlink:href="#DejaVuSans-20" transform="translate(419.091797 0)"/>
    <use xlink:href="#DejaVuSans-50" transform="translate(450.878906 0)"/>
    <use xlink:href="#DejaVuSans-2d" transform="translate(508.931641 0)"/>
    <use xlink:href="#DejaVuSans-45" transform="translate(545.015625 0)"/>
    <use xlink:href="#DejaVuSans-20" transform="translate(608.199219 0)"/>
    <use xlink:href="#DejaVuSans-4c" transform="translate(639.986328 0)"/>
    <use xlink:href="#DejaVuSans-6f" transform="translate(693.949219 0)"/>
    <use xlink:href="#DejaVuSans-6f" transform="translate(755.130859 0)"/>
    <use xlink:href="#DejaVuSans-70" transform="translate(816.3125 0)"/>
    <use xlink:href="#DejaVuSans-20" transform="translate(879.789062 0)"/>
    <use xlink:href="#DejaVuSans-53" transform="translate(911.576172 0)"/>
    <use xlink:href="#DejaVuSans-74" transform="translate(975.052734 0)"/>
    <use xlink:href="#DejaVuSans-72" transform="translate(1014.261719 0)"/>
    <use xlink:href="#DejaVuSans-65" transform="translate(1053.125 0)"/>
    <use xlink:href="#DejaVuSans-6e" transform="translate(1114.648438 0)"/>
    <use xlink:href="#DejaVuSans-67" transform="translate(1178.027344 0)"/>
    <use xlink:href="#DejaVuSans-74" transform="translate(1241.503906 0)"/>
    <use xlink:href="#DejaVuSans-68" transform="translate(1280.712891 0)"/>
    <use xlink:href="#DejaVuSans-20" transform="translate(1344.091797 0)"/>
    <use xlink:href="#DejaVuSans-49" transform="translate(1375.878906 0)"/>
    <use xlink:href="#DejaVuSans-73" transform="translate(1405.371094 0)"/>
    <use xlink:href="#DejaVuSans-20" transform="translate(1457.470703 0)"/>
    <use xlink:href="#DejaVuSans-43" transform="translate(1489.257812 0)"/>
    <use xlink:href="#DejaVuSans-6f" transform="translate(1559.082031 0)"/>
    <use xlink:href="#DejaVuSans-68" transform="translate(1620.263672 0)"/>
    <use xlink:href="#DejaVuSans-65" transform="translate(1683.642578 0)"/>
    <use xlink:href="#DejaVuSans-73" transform="translate(1745.166016 0)"/>
    <use xlink:href="#DejaVuSans-69" transform="translate(1797.265625 0)"/>
    <use xlink:href="#DejaVuSans-6e" transform="translate(1825.048828 0)"/>
    <use xlink:href="#DejaVuSans-2d" transform="translate(1888.427734 0)"/>
    <use xlink:href="#DejaVuSans-49" transform="translate(1924.511719 0)"/>
    <use xlink:href="#DejaVuSans-6e" transform="translate(1954.003906 0)"/>
    <use xlink:href="#DejaVuSans-76" transform="translate(2017.382812 0)"/>
    <use xlink:href="#DejaVuSans-61" transform="translate(2076.5625 0)"/>
    <use xlink:href="#DejaVuSans-72" transform="translate(2137.841797 0)"/>
    <use xlink:href="#DejaVuSans-69" transform="translate(2178.955078 0)"/>
    <use xlink:href="#DejaVuSans-61" transform="translate(2206.738281 0)"/>
    <use xlink:href="#DejaVuSans-6e" transform="translate(2268.017578 0)"/>
    <use xlink:href="#DejaVuSans-74" transform="translate(2331.396484 0)"/>
   </g>
  </g>
 </g>
 <defs>
  <clipPath id="pc79e2b348f">
   <rect x="33.882188" y="21.330105" width="183.317332" height="91.481571"/>
  </clipPath>
 </defs>
</svg>
