<?xml version="1.0" encoding="utf-8" standalone="no"?>
<!DOCTYPE svg PUBLIC "-//W3C//DTD SVG 1.1//EN"
  "http://www.w3.org/Graphics/SVG/1.1/DTD/svg11.dtd">
<svg xmlns:xlink="http://www.w3.org/1999/xlink" width="440.39952pt" height="152.39952pt" viewBox="0 0 440.39952 152.39952" xmlns="http://www.w3.org/2000/svg" version="1.1">
 <metadata>
  <rdf:RDF xmlns:dc="http://purl.org/dc/elements/1.1/" xmlns:cc="http://creativecommons.org/ns#" xmlns:rdf="http://www.w3.org/1999/02/22-rdf-syntax-ns#">
   <cc:Work>
    <dc:type rdf:resource="http://purl.org/dc/dcmitype/StillImage"/>
    <dc:date>2026-02-12T23:29:35.043041</dc:date>
    <dc:format>image/svg+xml</dc:format>
    <dc:creator>
     <cc:Agent>
      <dc:title>Matplotlib v3.10.5, https://matplotlib.org/</dc:title>
     </cc:Agent>
    </dc:creator>
   </cc:Work>
  </rdf:RDF>
 </metadata>
 <defs>
  <style type="text/css">*{stroke-linejoin: round; stroke-linecap: butt}</style>
 </defs>
 <g id="figure_1">
  <g id="patch_1">
   <path d="M 0 152.39952 
L 440.39952 152.39952 
L 440.39952 0 
L 0 0 
L 0 152.39952 
z
" style="fill: none"/>
  </g>
  <g id="axes_1">
   <g id="patch_2">
    <path d="M 34.240625 97.22904 
L 160.89327 97.22904 
L 160.89327 24.81423 
L 34.240625 24.81423 
L 34.240625 97.22904 
z
" style="fill: none"/>
   </g>
   <g id="patch_3">
    <path d="M -20278.238202 97.22904 
L 79.988305 97.22904 
L 79.988305 24.81423 
L -20278.238202 24.81423 
z
" clip-path="url(#pf9295ce8f4)" style="fill: #dee2e6; stroke: #dee2e6; stroke-linejoin: miter"/>
   </g>
   <g id="patch_4">
    <path d="M 79.988305 97.22904 
L 155.136332 97.22904 
L 155.136332 24.81423 
L 79.988305 24.81423 
z
" clip-path="url(#pf9295ce8f4)" style="fill: #ffffff; stroke: #ffffff; stroke-linejoin: miter"/>
   </g>
   <g id="matplotlib.axis_1">
    <g id="xtick_1">
     <g id="line2d_1">
      <defs>
       <path id="m3f194662cc" d="M 0 0 
L 0 3.5 
" style="stroke: #000000; stroke-width: 0.8"/>
      </defs>
      <g>
       <use xlink:href="#m3f194662cc" x="39.393636" y="97.22904" style="stroke: #000000; stroke-width: 0.8"/>
      </g>
     </g>
     <g id="text_1">
      <!-- .01 -->
      <g transform="translate(31.442074 111.827478) scale(0.1 -0.1)">
       <defs>
        <path id="DejaVuSans-2e" d="M 684 794 
L 1344 794 
L 1344 0 
L 684 0 
L 684 794 
z
" transform="scale(0.015625)"/>
        <path id="DejaVuSans-30" d="M 2034 4250 
Q 1547 4250 1301 3770 
Q 1056 3291 1056 2328 
Q 1056 1369 1301 889 
Q 1547 409 2034 409 
Q 2525 409 2770 889 
Q 3016 1369 3016 2328 
Q 3016 3291 2770 3770 
Q 2525 4250 2034 4250 
z
M 2034 4750 
Q 2819 4750 3233 4129 
Q 3647 3509 3647 2328 
Q 3647 1150 3233 529 
Q 2819 -91 2034 -91 
Q 1250 -91 836 529 
Q 422 1150 422 2328 
Q 422 3509 836 4129 
Q 1250 4750 2034 4750 
z
" transform="scale(0.015625)"/>
        <path id="DejaVuSans-31" d="M 794 531 
L 1825 531 
L 1825 4091 
L 703 3866 
L 703 4441 
L 1819 4666 
L 2450 4666 
L 2450 531 
L 3481 531 
L 3481 0 
L 794 0 
L 794 531 
z
" transform="scale(0.015625)"/>
       </defs>
       <use xlink:href="#DejaVuSans-2e"/>
       <use xlink:href="#DejaVuSans-30" transform="translate(31.787109 0)"/>
       <use xlink:href="#DejaVuSans-31" transform="translate(95.410156 0)"/>
      </g>
     </g>
    </g>
    <g id="xtick_2">
     <g id="line2d_2">
      <g>
       <use xlink:href="#m3f194662cc" x="59.690971" y="97.22904" style="stroke: #000000; stroke-width: 0.8"/>
      </g>
     </g>
     <g id="text_2">
      <!-- .1 -->
      <g transform="translate(54.920658 111.827478) scale(0.1 -0.1)">
       <use xlink:href="#DejaVuSans-2e"/>
       <use xlink:href="#DejaVuSans-31" transform="translate(31.787109 0)"/>
      </g>
     </g>
    </g>
    <g id="xtick_3">
     <g id="line2d_3">
      <g>
       <use xlink:href="#m3f194662cc" x="79.988305" y="97.22904" style="stroke: #000000; stroke-width: 0.8"/>
      </g>
     </g>
     <g id="text_3">
      <!-- 1 -->
      <g transform="translate(76.807055 111.827478) scale(0.1 -0.1)">
       <use xlink:href="#DejaVuSans-31"/>
      </g>
     </g>
    </g>
    <g id="xtick_4">
     <g id="line2d_4">
      <g>
       <use xlink:href="#m3f194662cc" x="100.28564" y="97.22904" style="stroke: #000000; stroke-width: 0.8"/>
      </g>
     </g>
     <g id="text_4">
      <!-- 10 -->
      <g transform="translate(93.92314 111.827478) scale(0.1 -0.1)">
       <use xlink:href="#DejaVuSans-31"/>
       <use xlink:href="#DejaVuSans-30" transform="translate(63.623047 0)"/>
      </g>
     </g>
    </g>
    <g id="xtick_5">
     <g id="line2d_5">
      <g>
       <use xlink:href="#m3f194662cc" x="120.582974" y="97.22904" style="stroke: #000000; stroke-width: 0.8"/>
      </g>
     </g>
     <g id="text_5">
      <!-- 100 -->
      <g transform="translate(111.039224 111.827478) scale(0.1 -0.1)">
       <use xlink:href="#DejaVuSans-31"/>
       <use xlink:href="#DejaVuSans-30" transform="translate(63.623047 0)"/>
       <use xlink:href="#DejaVuSans-30" transform="translate(127.246094 0)"/>
      </g>
     </g>
    </g>
    <g id="xtick_6">
     <g id="line2d_6">
      <g>
       <use xlink:href="#m3f194662cc" x="140.880309" y="97.22904" style="stroke: #000000; stroke-width: 0.8"/>
      </g>
     </g>
     <g id="text_6">
      <!-- 1000 -->
      <g transform="translate(128.155309 111.827478) scale(0.1 -0.1)">
       <use xlink:href="#DejaVuSans-31"/>
       <use xlink:href="#DejaVuSans-30" transform="translate(63.623047 0)"/>
       <use xlink:href="#DejaVuSans-30" transform="translate(127.246094 0)"/>
       <use xlink:href="#DejaVuSans-30" transform="translate(190.869141 0)"/>
      </g>
     </g>
    </g>
    <g id="xtick_7"/>
    <g id="xtick_8"/>
    <g id="xtick_9"/>
    <g id="xtick_10"/>
    <g id="xtick_11"/>
    <g id="xtick_12"/>
    <g id="xtick_13"/>
    <g id="xtick_14"/>
    <g id="xtick_15"/>
    <g id="xtick_16"/>
    <g id="xtick_17"/>
    <g id="xtick_18"/>
    <g id="xtick_19"/>
    <g id="xtick_20"/>
    <g id="xtick_21"/>
    <g id="xtick_22"/>
    <g id="xtick_23"/>
    <g id="xtick_24"/>
    <g id="xtick_25"/>
    <g id="xtick_26"/>
    <g id="xtick_27"/>
    <g id="xtick_28"/>
    <g id="xtick_29"/>
    <g id="xtick_30"/>
    <g id="xtick_31"/>
    <g id="xtick_32"/>
    <g id="xtick_33"/>
    <g id="xtick_34"/>
    <g id="xtick_35"/>
    <g id="xtick_36"/>
    <g id="xtick_37"/>
    <g id="xtick_38"/>
    <g id="xtick_39"/>
    <g id="xtick_40"/>
    <g id="xtick_41"/>
    <g id="xtick_42"/>
    <g id="xtick_43"/>
    <g id="xtick_44"/>
    <g id="xtick_45"/>
    <g id="xtick_46"/>
    <g id="xtick_47"/>
    <g id="xtick_48"/>
    <g id="xtick_49"/>
    <g id="xtick_50"/>
    <g id="xtick_51"/>
    <g id="xtick_52"/>
    <g id="xtick_53"/>
    <g id="xtick_54"/>
    <g id="xtick_55"/>
    <g id="xtick_56"/>
    <g id="xtick_57"/>
    <g id="xtick_58"/>
    <g id="text_7">
     <!-- TSS -->
     <g transform="translate(88.164604 125.505603) scale(0.1 -0.1)">
      <defs>
       <path id="DejaVuSans-54" d="M -19 4666 
L 3928 4666 
L 3928 4134 
L 2272 4134 
L 2272 0 
L 1638 0 
L 1638 4134 
L -19 4134 
L -19 4666 
z
" transform="scale(0.015625)"/>
       <path id="DejaVuSans-53" d="M 3425 4513 
L 3425 3897 
Q 3066 4069 2747 4153 
Q 2428 4238 2131 4238 
Q 1616 4238 1336 4038 
Q 1056 3838 1056 3469 
Q 1056 3159 1242 3001 
Q 1428 2844 1947 2747 
L 2328 2669 
Q 3034 2534 3370 2195 
Q 3706 1856 3706 1288 
Q 3706 609 3251 259 
Q 2797 -91 1919 -91 
Q 1588 -91 1214 -16 
Q 841 59 441 206 
L 441 856 
Q 825 641 1194 531 
Q 1563 422 1919 422 
Q 2459 422 2753 634 
Q 3047 847 3047 1241 
Q 3047 1584 2836 1778 
Q 2625 1972 2144 2069 
L 1759 2144 
Q 1053 2284 737 2584 
Q 422 2884 422 3419 
Q 422 4038 858 4394 
Q 1294 4750 2059 4750 
Q 2388 4750 2728 4690 
Q 3069 4631 3425 4513 
z
" transform="scale(0.015625)"/>
      </defs>
      <use xlink:href="#DejaVuSans-54"/>
      <use xlink:href="#DejaVuSans-53" transform="translate(61.083984 0)"/>
      <use xlink:href="#DejaVuSans-53" transform="translate(124.560547 0)"/>
     </g>
    </g>
   </g>
   <g id="matplotlib.axis_2">
    <g id="ytick_1">
     <g id="line2d_7">
      <defs>
       <path id="mf3bcbd4e5f" d="M 0 0 
L -3.5 0 
" style="stroke: #000000; stroke-width: 0.8"/>
      </defs>
      <g>
       <use xlink:href="#mf3bcbd4e5f" x="34.240625" y="97.22904" style="stroke: #000000; stroke-width: 0.8"/>
      </g>
     </g>
     <g id="text_8">
      <!-- 0 -->
      <g transform="translate(20.878125 101.028259) scale(0.1 -0.1)">
       <use xlink:href="#DejaVuSans-30"/>
      </g>
     </g>
    </g>
    <g id="ytick_2">
     <g id="line2d_8">
      <g>
       <use xlink:href="#mf3bcbd4e5f" x="34.240625" y="71.881166" style="stroke: #000000; stroke-width: 0.8"/>
      </g>
     </g>
     <g id="text_9">
      <!-- 2 -->
      <g transform="translate(20.878125 75.680385) scale(0.1 -0.1)">
       <defs>
        <path id="DejaVuSans-32" d="M 1228 531 
L 3431 531 
L 3431 0 
L 469 0 
L 469 531 
Q 828 903 1448 1529 
Q 2069 2156 2228 2338 
Q 2531 2678 2651 2914 
Q 2772 3150 2772 3378 
Q 2772 3750 2511 3984 
Q 2250 4219 1831 4219 
Q 1534 4219 1204 4116 
Q 875 4013 500 3803 
L 500 4441 
Q 881 4594 1212 4672 
Q 1544 4750 1819 4750 
Q 2544 4750 2975 4387 
Q 3406 4025 3406 3419 
Q 3406 3131 3298 2873 
Q 3191 2616 2906 2266 
Q 2828 2175 2409 1742 
Q 1991 1309 1228 531 
z
" transform="scale(0.015625)"/>
       </defs>
       <use xlink:href="#DejaVuSans-32"/>
      </g>
     </g>
    </g>
    <g id="ytick_3">
     <g id="line2d_9">
      <g>
       <use xlink:href="#mf3bcbd4e5f" x="34.240625" y="46.533292" style="stroke: #000000; stroke-width: 0.8"/>
      </g>
     </g>
     <g id="text_10">
      <!-- 4 -->
      <g transform="translate(20.878125 50.332511) scale(0.1 -0.1)">
       <defs>
        <path id="DejaVuSans-34" d="M 2419 4116 
L 825 1625 
L 2419 1625 
L 2419 4116 
z
M 2253 4666 
L 3047 4666 
L 3047 1625 
L 3713 1625 
L 3713 1100 
L 3047 1100 
L 3047 0 
L 2419 0 
L 2419 1100 
L 313 1100 
L 313 1709 
L 2253 4666 
z
" transform="scale(0.015625)"/>
       </defs>
       <use xlink:href="#DejaVuSans-34"/>
      </g>
     </g>
    </g>
    <g id="text_11">
     <!-- Percent -->
     <g transform="translate(14.798438 79.829448) rotate(-90) scale(0.1 -0.1)">
      <defs>
       <path id="DejaVuSans-50" d="M 1259 4147 
L 1259 2394 
L 2053 2394 
Q 2494 2394 2734 2622 
Q 2975 2850 2975 3272 
Q 2975 3691 2734 3919 
Q 2494 4147 2053 4147 
L 1259 4147 
z
M 628 4666 
L 2053 4666 
Q 2838 4666 3239 4311 
Q 3641 3956 3641 3272 
Q 3641 2581 3239 2228 
Q 2838 1875 2053 1875 
L 1259 1875 
L 1259 0 
L 628 0 
L 628 4666 
z
" transform="scale(0.015625)"/>
       <path id="DejaVuSans-65" d="M 3597 1894 
L 3597 1613 
L 953 1613 
Q 991 1019 1311 708 
Q 1631 397 2203 397 
Q 2534 397 2845 478 
Q 3156 559 3463 722 
L 3463 178 
Q 3153 47 2828 -22 
Q 2503 -91 2169 -91 
Q 1331 -91 842 396 
Q 353 884 353 1716 
Q 353 2575 817 3079 
Q 1281 3584 2069 3584 
Q 2775 3584 3186 3129 
Q 3597 2675 3597 1894 
z
M 3022 2063 
Q 3016 2534 2758 2815 
Q 2500 3097 2075 3097 
Q 1594 3097 1305 2825 
Q 1016 2553 972 2059 
L 3022 2063 
z
" transform="scale(0.015625)"/>
       <path id="DejaVuSans-72" d="M 2631 2963 
Q 2534 3019 2420 3045 
Q 2306 3072 2169 3072 
Q 1681 3072 1420 2755 
Q 1159 2438 1159 1844 
L 1159 0 
L 581 0 
L 581 3500 
L 1159 3500 
L 1159 2956 
Q 1341 3275 1631 3429 
Q 1922 3584 2338 3584 
Q 2397 3584 2469 3576 
Q 2541 3569 2628 3553 
L 2631 2963 
z
" transform="scale(0.015625)"/>
       <path id="DejaVuSans-63" d="M 3122 3366 
L 3122 2828 
Q 2878 2963 2633 3030 
Q 2388 3097 2138 3097 
Q 1578 3097 1268 2742 
Q 959 2388 959 1747 
Q 959 1106 1268 751 
Q 1578 397 2138 397 
Q 2388 397 2633 464 
Q 2878 531 3122 666 
L 3122 134 
Q 2881 22 2623 -34 
Q 2366 -91 2075 -91 
Q 1284 -91 818 406 
Q 353 903 353 1747 
Q 353 2603 823 3093 
Q 1294 3584 2113 3584 
Q 2378 3584 2631 3529 
Q 2884 3475 3122 3366 
z
" transform="scale(0.015625)"/>
       <path id="DejaVuSans-6e" d="M 3513 2113 
L 3513 0 
L 2938 0 
L 2938 2094 
Q 2938 2591 2744 2837 
Q 2550 3084 2163 3084 
Q 1697 3084 1428 2787 
Q 1159 2491 1159 1978 
L 1159 0 
L 581 0 
L 581 3500 
L 1159 3500 
L 1159 2956 
Q 1366 3272 1645 3428 
Q 1925 3584 2291 3584 
Q 2894 3584 3203 3211 
Q 3513 2838 3513 2113 
z
" transform="scale(0.015625)"/>
       <path id="DejaVuSans-74" d="M 1172 4494 
L 1172 3500 
L 2356 3500 
L 2356 3053 
L 1172 3053 
L 1172 1153 
Q 1172 725 1289 603 
Q 1406 481 1766 481 
L 2356 481 
L 2356 0 
L 1766 0 
Q 1100 0 847 248 
Q 594 497 594 1153 
L 594 3053 
L 172 3053 
L 172 3500 
L 594 3500 
L 594 4494 
L 1172 4494 
z
" transform="scale(0.015625)"/>
      </defs>
      <use xlink:href="#DejaVuSans-50"/>
      <use xlink:href="#DejaVuSans-65" transform="translate(56.677734 0)"/>
      <use xlink:href="#DejaVuSans-72" transform="translate(118.201172 0)"/>
      <use xlink:href="#DejaVuSans-63" transform="translate(157.064453 0)"/>
      <use xlink:href="#DejaVuSans-65" transform="translate(212.044922 0)"/>
      <use xlink:href="#DejaVuSans-6e" transform="translate(273.568359 0)"/>
      <use xlink:href="#DejaVuSans-74" transform="translate(336.947266 0)"/>
     </g>
    </g>
   </g>
   <g id="line2d_10">
    <path d="M 39.997563 94.468355 
L 41.166682 94.727481 
L 42.3358 96.441697 
L 43.504918 95.146068 
L 44.674036 94.41354 
L 45.843154 94.587951 
L 47.012272 94.278994 
L 48.18139 94.293943 
L 49.350508 93.451785 
L 50.519627 93.232525 
L 51.688745 92.320602 
L 52.857863 91.662821 
L 54.026981 91.47346 
L 55.196099 90.412041 
L 56.365217 90.446924 
L 57.534335 90.377159 
L 58.703454 89.44032 
L 59.872572 88.069944 
L 61.04169 86.410543 
L 62.210808 87.267651 
L 63.379926 85.538485 
L 64.549044 85.832493 
L 65.718162 84.447167 
L 66.88728 84.01363 
L 68.056399 82.249582 
L 69.225517 80.161627 
L 70.394635 79.807821 
L 71.563753 79.608493 
L 72.732871 79.753006 
L 73.901989 79.877586 
L 75.071107 79.757989 
L 76.240226 79.807821 
L 77.409344 80.211459 
L 78.578462 78.681621 
L 79.74758 79.050377 
L 80.916698 78.995562 
L 82.085816 77.450774 
L 83.254934 78.372663 
L 84.424053 75.263155 
L 85.593171 73.907728 
L 86.762289 73.215066 
L 87.931407 73.115402 
L 89.100525 72.791495 
L 90.269643 70.245087 
L 91.438761 70.035793 
L 92.607879 66.84157 
L 93.776998 66.398067 
L 94.946116 64.594153 
L 96.115234 64.434691 
L 97.284352 62.720475 
L 98.45347 61.140805 
L 99.622588 58.534599 
L 100.791706 59.680732 
L 101.960825 58.978102 
L 103.129943 60.054471 
L 104.299061 60.124235 
L 105.468179 63.751995 
L 106.637297 63.582567 
L 107.806415 67.230259 
L 108.975533 67.429586 
L 110.144651 69.901247 
L 111.31377 73.588804 
L 112.482888 75.950835 
L 113.652006 78.71152 
L 114.821124 80.336039 
L 115.990242 82.095103 
L 117.15936 84.45215 
L 118.328478 85.787644 
L 119.497597 88.443683 
L 120.666715 90.197764 
L 121.835833 91.80235 
L 123.004951 93.347138 
L 124.174069 93.745793 
L 125.343187 94.832127 
L 126.512305 95.285597 
L 127.681423 95.714151 
L 128.850542 96.277251 
L 130.01966 96.55631 
L 131.188778 96.855301 
L 132.357896 96.90015 
L 133.527014 97.049645 
L 134.696132 97.114427 
L 135.86525 97.154292 
L 137.034369 97.199141 
L 138.203487 97.199141 
L 139.372605 97.22904 
L 140.541723 97.22904 
L 141.710841 97.22904 
L 142.879959 97.209107 
L 144.049077 97.224057 
L 145.218195 97.22904 
L 146.387314 97.22904 
L 147.556432 97.219074 
L 148.72555 97.22904 
L 149.894668 97.22904 
L 151.063786 97.22904 
L 152.232904 97.22904 
L 153.402022 97.22904 
L 154.571141 97.22904 
" clip-path="url(#pf9295ce8f4)" style="fill: none; stroke: #007fff; stroke-width: 1.5; stroke-linecap: square"/>
   </g>
   <g id="patch_5">
    <path d="M 34.240625 97.22904 
L 34.240625 24.81423 
" style="fill: none; stroke: #000000; stroke-width: 0.8; stroke-linejoin: miter; stroke-linecap: square"/>
   </g>
   <g id="patch_6">
    <path d="M 34.240625 97.22904 
L 160.89327 97.22904 
" style="fill: none; stroke: #000000; stroke-width: 0.8; stroke-linejoin: miter; stroke-linecap: square"/>
   </g>
  </g>
  <g id="axes_2">
   <g id="patch_7">
    <path d="M 170.39375 97.22904 
L 297.046395 97.22904 
L 297.046395 24.81423 
L 170.39375 24.81423 
L 170.39375 97.22904 
z
" style="fill: none"/>
   </g>
   <g id="patch_8">
    <path d="M -20142.085077 97.22904 
L 216.14143 97.22904 
L 216.14143 24.81423 
L -20142.085077 24.81423 
z
" clip-path="url(#p5305ce362c)" style="fill: #dee2e6; stroke: #dee2e6; stroke-linejoin: miter"/>
   </g>
   <g id="patch_9">
    <path d="M 216.14143 97.22904 
L 291.289457 97.22904 
L 291.289457 24.81423 
L 216.14143 24.81423 
z
" clip-path="url(#p5305ce362c)" style="fill: #ffffff; stroke: #ffffff; stroke-linejoin: miter"/>
   </g>
   <g id="matplotlib.axis_3">
    <g id="xtick_59">
     <g id="line2d_11">
      <g>
       <use xlink:href="#m3f194662cc" x="175.546761" y="97.22904" style="stroke: #000000; stroke-width: 0.8"/>
      </g>
     </g>
     <g id="text_12">
      <!-- .01 -->
      <g transform="translate(167.595199 111.827478) scale(0.1 -0.1)">
       <use xlink:href="#DejaVuSans-2e"/>
       <use xlink:href="#DejaVuSans-30" transform="translate(31.787109 0)"/>
       <use xlink:href="#DejaVuSans-31" transform="translate(95.410156 0)"/>
      </g>
     </g>
    </g>
    <g id="xtick_60">
     <g id="line2d_12">
      <g>
       <use xlink:href="#m3f194662cc" x="195.844096" y="97.22904" style="stroke: #000000; stroke-width: 0.8"/>
      </g>
     </g>
     <g id="text_13">
      <!-- .1 -->
      <g transform="translate(191.073783 111.827478) scale(0.1 -0.1)">
       <use xlink:href="#DejaVuSans-2e"/>
       <use xlink:href="#DejaVuSans-31" transform="translate(31.787109 0)"/>
      </g>
     </g>
    </g>
    <g id="xtick_61">
     <g id="line2d_13">
      <g>
       <use xlink:href="#m3f194662cc" x="216.14143" y="97.22904" style="stroke: #000000; stroke-width: 0.8"/>
      </g>
     </g>
     <g id="text_14">
      <!-- 1 -->
      <g transform="translate(212.96018 111.827478) scale(0.1 -0.1)">
       <use xlink:href="#DejaVuSans-31"/>
      </g>
     </g>
    </g>
    <g id="xtick_62">
     <g id="line2d_14">
      <g>
       <use xlink:href="#m3f194662cc" x="236.438765" y="97.22904" style="stroke: #000000; stroke-width: 0.8"/>
      </g>
     </g>
     <g id="text_15">
      <!-- 10 -->
      <g transform="translate(230.076265 111.827478) scale(0.1 -0.1)">
       <use xlink:href="#DejaVuSans-31"/>
       <use xlink:href="#DejaVuSans-30" transform="translate(63.623047 0)"/>
      </g>
     </g>
    </g>
    <g id="xtick_63">
     <g id="line2d_15">
      <g>
       <use xlink:href="#m3f194662cc" x="256.736099" y="97.22904" style="stroke: #000000; stroke-width: 0.8"/>
      </g>
     </g>
     <g id="text_16">
      <!-- 100 -->
      <g transform="translate(247.192349 111.827478) scale(0.1 -0.1)">
       <use xlink:href="#DejaVuSans-31"/>
       <use xlink:href="#DejaVuSans-30" transform="translate(63.623047 0)"/>
       <use xlink:href="#DejaVuSans-30" transform="translate(127.246094 0)"/>
      </g>
     </g>
    </g>
    <g id="xtick_64">
     <g id="line2d_16">
      <g>
       <use xlink:href="#m3f194662cc" x="277.033434" y="97.22904" style="stroke: #000000; stroke-width: 0.8"/>
      </g>
     </g>
     <g id="text_17">
      <!-- 1000 -->
      <g transform="translate(264.308434 111.827478) scale(0.1 -0.1)">
       <use xlink:href="#DejaVuSans-31"/>
       <use xlink:href="#DejaVuSans-30" transform="translate(63.623047 0)"/>
       <use xlink:href="#DejaVuSans-30" transform="translate(127.246094 0)"/>
       <use xlink:href="#DejaVuSans-30" transform="translate(190.869141 0)"/>
      </g>
     </g>
    </g>
    <g id="xtick_65"/>
    <g id="xtick_66"/>
    <g id="xtick_67"/>
    <g id="xtick_68"/>
    <g id="xtick_69"/>
    <g id="xtick_70"/>
    <g id="xtick_71"/>
    <g id="xtick_72"/>
    <g id="xtick_73"/>
    <g id="xtick_74"/>
    <g id="xtick_75"/>
    <g id="xtick_76"/>
    <g id="xtick_77"/>
    <g id="xtick_78"/>
    <g id="xtick_79"/>
    <g id="xtick_80"/>
    <g id="xtick_81"/>
    <g id="xtick_82"/>
    <g id="xtick_83"/>
    <g id="xtick_84"/>
    <g id="xtick_85"/>
    <g id="xtick_86"/>
    <g id="xtick_87"/>
    <g id="xtick_88"/>
    <g id="xtick_89"/>
    <g id="xtick_90"/>
    <g id="xtick_91"/>
    <g id="xtick_92"/>
    <g id="xtick_93"/>
    <g id="xtick_94"/>
    <g id="xtick_95"/>
    <g id="xtick_96"/>
    <g id="xtick_97"/>
    <g id="xtick_98"/>
    <g id="xtick_99"/>
    <g id="xtick_100"/>
    <g id="xtick_101"/>
    <g id="xtick_102"/>
    <g id="xtick_103"/>
    <g id="xtick_104"/>
    <g id="xtick_105"/>
    <g id="xtick_106"/>
    <g id="xtick_107"/>
    <g id="xtick_108"/>
    <g id="xtick_109"/>
    <g id="xtick_110"/>
    <g id="xtick_111"/>
    <g id="xtick_112"/>
    <g id="xtick_113"/>
    <g id="xtick_114"/>
    <g id="xtick_115"/>
    <g id="xtick_116"/>
    <g id="text_18">
     <!-- Enhancer Center -->
     <g transform="translate(191.691166 125.505603) scale(0.1 -0.1)">
      <defs>
       <path id="DejaVuSans-45" d="M 628 4666 
L 3578 4666 
L 3578 4134 
L 1259 4134 
L 1259 2753 
L 3481 2753 
L 3481 2222 
L 1259 2222 
L 1259 531 
L 3634 531 
L 3634 0 
L 628 0 
L 628 4666 
z
" transform="scale(0.015625)"/>
       <path id="DejaVuSans-68" d="M 3513 2113 
L 3513 0 
L 2938 0 
L 2938 2094 
Q 2938 2591 2744 2837 
Q 2550 3084 2163 3084 
Q 1697 3084 1428 2787 
Q 1159 2491 1159 1978 
L 1159 0 
L 581 0 
L 581 4863 
L 1159 4863 
L 1159 2956 
Q 1366 3272 1645 3428 
Q 1925 3584 2291 3584 
Q 2894 3584 3203 3211 
Q 3513 2838 3513 2113 
z
" transform="scale(0.015625)"/>
       <path id="DejaVuSans-61" d="M 2194 1759 
Q 1497 1759 1228 1600 
Q 959 1441 959 1056 
Q 959 750 1161 570 
Q 1363 391 1709 391 
Q 2188 391 2477 730 
Q 2766 1069 2766 1631 
L 2766 1759 
L 2194 1759 
z
M 3341 1997 
L 3341 0 
L 2766 0 
L 2766 531 
Q 2569 213 2275 61 
Q 1981 -91 1556 -91 
Q 1019 -91 701 211 
Q 384 513 384 1019 
Q 384 1609 779 1909 
Q 1175 2209 1959 2209 
L 2766 2209 
L 2766 2266 
Q 2766 2663 2505 2880 
Q 2244 3097 1772 3097 
Q 1472 3097 1187 3025 
Q 903 2953 641 2809 
L 641 3341 
Q 956 3463 1253 3523 
Q 1550 3584 1831 3584 
Q 2591 3584 2966 3190 
Q 3341 2797 3341 1997 
z
" transform="scale(0.015625)"/>
       <path id="DejaVuSans-20" transform="scale(0.015625)"/>
       <path id="DejaVuSans-43" d="M 4122 4306 
L 4122 3641 
Q 3803 3938 3442 4084 
Q 3081 4231 2675 4231 
Q 1875 4231 1450 3742 
Q 1025 3253 1025 2328 
Q 1025 1406 1450 917 
Q 1875 428 2675 428 
Q 3081 428 3442 575 
Q 3803 722 4122 1019 
L 4122 359 
Q 3791 134 3420 21 
Q 3050 -91 2638 -91 
Q 1578 -91 968 557 
Q 359 1206 359 2328 
Q 359 3453 968 4101 
Q 1578 4750 2638 4750 
Q 3056 4750 3426 4639 
Q 3797 4528 4122 4306 
z
" transform="scale(0.015625)"/>
      </defs>
      <use xlink:href="#DejaVuSans-45"/>
      <use xlink:href="#DejaVuSans-6e" transform="translate(63.183594 0)"/>
      <use xlink:href="#DejaVuSans-68" transform="translate(126.5625 0)"/>
      <use xlink:href="#DejaVuSans-61" transform="translate(189.941406 0)"/>
      <use xlink:href="#DejaVuSans-6e" transform="translate(251.220703 0)"/>
      <use xlink:href="#DejaVuSans-63" transform="translate(314.599609 0)"/>
      <use xlink:href="#DejaVuSans-65" transform="translate(369.580078 0)"/>
      <use xlink:href="#DejaVuSans-72" transform="translate(431.103516 0)"/>
      <use xlink:href="#DejaVuSans-20" transform="translate(472.216797 0)"/>
      <use xlink:href="#DejaVuSans-43" transform="translate(504.003906 0)"/>
      <use xlink:href="#DejaVuSans-65" transform="translate(573.828125 0)"/>
      <use xlink:href="#DejaVuSans-6e" transform="translate(635.351562 0)"/>
      <use xlink:href="#DejaVuSans-74" transform="translate(698.730469 0)"/>
      <use xlink:href="#DejaVuSans-65" transform="translate(737.939453 0)"/>
      <use xlink:href="#DejaVuSans-72" transform="translate(799.462891 0)"/>
     </g>
    </g>
   </g>
   <g id="matplotlib.axis_4">
    <g id="ytick_4">
     <g id="line2d_17">
      <g>
       <use xlink:href="#mf3bcbd4e5f" x="170.39375" y="97.22904" style="stroke: #000000; stroke-width: 0.8"/>
      </g>
     </g>
    </g>
    <g id="ytick_5">
     <g id="line2d_18">
      <g>
       <use xlink:href="#mf3bcbd4e5f" x="170.39375" y="71.881166" style="stroke: #000000; stroke-width: 0.8"/>
      </g>
     </g>
    </g>
    <g id="ytick_6">
     <g id="line2d_19">
      <g>
       <use xlink:href="#mf3bcbd4e5f" x="170.39375" y="46.533292" style="stroke: #000000; stroke-width: 0.8"/>
      </g>
     </g>
    </g>
   </g>
   <g id="line2d_20">
    <path d="M 176.150688 96.56218 
L 177.319807 96.577 
L 178.488925 96.819045 
L 179.658043 96.270738 
L 180.827161 96.127487 
L 181.996279 96.092909 
L 183.165397 95.885442 
L 184.334515 96.216401 
L 185.503633 95.58906 
L 186.672752 95.045693 
L 187.84187 94.848105 
L 189.010988 95.42111 
L 190.180106 94.210883 
L 191.349224 94.09727 
L 192.518342 94.067632 
L 193.68746 92.872224 
L 194.856579 92.239943 
L 196.025697 92.269581 
L 197.194815 91.237184 
L 198.363933 91.46935 
L 199.533051 89.043957 
L 200.702169 88.900706 
L 201.871287 87.428675 
L 203.040405 86.697599 
L 204.209524 85.714599 
L 205.378642 84.316664 
L 206.54776 83.471975 
L 207.716878 82.251869 
L 208.885996 81.372602 
L 210.055114 82.553191 
L 211.224232 82.913789 
L 212.393351 84.010402 
L 213.562469 86.648202 
L 214.731587 87.068077 
L 215.900705 87.492891 
L 217.069823 88.377097 
L 218.238941 89.523108 
L 219.408059 88.416615 
L 220.577178 88.811791 
L 221.746296 87.260725 
L 222.915414 87.147112 
L 224.084532 87.394097 
L 225.25365 87.873248 
L 226.422768 87.34964 
L 227.591886 86.67784 
L 228.761004 84.603166 
L 229.930123 84.074618 
L 231.099241 82.839693 
L 232.268359 82.128377 
L 233.437477 79.59431 
L 234.606595 76.551455 
L 235.775713 73.567876 
L 236.944831 71.290674 
L 238.11395 68.983834 
L 239.283068 66.301577 
L 240.452186 64.696175 
L 241.621304 62.117651 
L 242.790422 61.302601 
L 243.95954 58.803112 
L 245.128658 57.108795 
L 246.297776 56.718559 
L 247.466895 55.434237 
L 248.636013 55.370021 
L 249.805131 57.731198 
L 250.974249 59.099494 
L 252.143367 59.361299 
L 253.312485 62.29548 
L 254.481603 63.732933 
L 255.650722 65.703874 
L 256.81984 70.026111 
L 257.988958 71.562358 
L 259.158076 75.667249 
L 260.327194 75.884596 
L 261.496312 78.823717 
L 262.66543 80.443939 
L 263.834548 83.778236 
L 265.003667 84.973644 
L 266.172785 87.616383 
L 267.341903 88.204208 
L 268.511021 89.933103 
L 269.680139 90.343098 
L 270.849257 91.46935 
L 272.018375 92.985838 
L 273.187494 92.561023 
L 274.356612 94.220763 
L 275.52573 94.5863 
L 276.694848 94.813527 
L 277.863966 94.941959 
L 279.033084 95.495205 
L 280.202202 96.231221 
L 281.37132 96.127487 
L 282.540439 96.191703 
L 283.709557 96.720251 
L 284.878675 96.962296 
L 286.047793 97.011693 
L 287.216911 97.154944 
L 288.386029 97.135186 
L 289.555147 97.199402 
L 290.724266 97.169764 
" clip-path="url(#p5305ce362c)" style="fill: none; stroke: #007fff; stroke-width: 1.5; stroke-linecap: square"/>
   </g>
   <g id="patch_10">
    <path d="M 170.39375 97.22904 
L 170.39375 24.81423 
" style="fill: none; stroke: #000000; stroke-width: 0.8; stroke-linejoin: miter; stroke-linecap: square"/>
   </g>
   <g id="patch_11">
    <path d="M 170.39375 97.22904 
L 297.046395 97.22904 
" style="fill: none; stroke: #000000; stroke-width: 0.8; stroke-linejoin: miter; stroke-linecap: square"/>
   </g>
  </g>
  <g id="axes_3">
   <g id="patch_12">
    <path d="M 306.546875 97.22904 
L 433.19952 97.22904 
L 433.19952 24.81423 
L 306.546875 24.81423 
L 306.546875 97.22904 
z
" style="fill: none"/>
   </g>
   <g id="patch_13">
    <path d="M -20005.931952 97.22904 
L 361.680002 97.22904 
L 361.680002 24.81423 
L -20005.931952 24.81423 
z
" clip-path="url(#p2d3f683fad)" style="fill: #dee2e6; stroke: #dee2e6; stroke-linejoin: miter"/>
   </g>
   <g id="patch_14">
    <path d="M 361.680002 97.22904 
L 427.442582 97.22904 
L 427.442582 24.81423 
L 361.680002 24.81423 
z
" clip-path="url(#p2d3f683fad)" style="fill: #ffffff; stroke: #ffffff; stroke-linejoin: miter"/>
   </g>
   <g id="matplotlib.axis_5">
    <g id="xtick_117">
     <g id="line2d_21">
      <g>
       <use xlink:href="#m3f194662cc" x="311.699886" y="97.22904" style="stroke: #000000; stroke-width: 0.8"/>
      </g>
     </g>
     <g id="text_19">
      <!-- .01 -->
      <g transform="translate(303.748324 111.827478) scale(0.1 -0.1)">
       <use xlink:href="#DejaVuSans-2e"/>
       <use xlink:href="#DejaVuSans-30" transform="translate(31.787109 0)"/>
       <use xlink:href="#DejaVuSans-31" transform="translate(95.410156 0)"/>
      </g>
     </g>
    </g>
    <g id="xtick_118">
     <g id="line2d_22">
      <g>
       <use xlink:href="#m3f194662cc" x="331.997221" y="97.22904" style="stroke: #000000; stroke-width: 0.8"/>
      </g>
     </g>
     <g id="text_20">
      <!-- .1 -->
      <g transform="translate(327.226908 111.827478) scale(0.1 -0.1)">
       <use xlink:href="#DejaVuSans-2e"/>
       <use xlink:href="#DejaVuSans-31" transform="translate(31.787109 0)"/>
      </g>
     </g>
    </g>
    <g id="xtick_119">
     <g id="line2d_23">
      <g>
       <use xlink:href="#m3f194662cc" x="352.294555" y="97.22904" style="stroke: #000000; stroke-width: 0.8"/>
      </g>
     </g>
     <g id="text_21">
      <!-- 1 -->
      <g transform="translate(349.113305 111.827478) scale(0.1 -0.1)">
       <use xlink:href="#DejaVuSans-31"/>
      </g>
     </g>
    </g>
    <g id="xtick_120">
     <g id="line2d_24">
      <g>
       <use xlink:href="#m3f194662cc" x="372.59189" y="97.22904" style="stroke: #000000; stroke-width: 0.8"/>
      </g>
     </g>
     <g id="text_22">
      <!-- 10 -->
      <g transform="translate(366.22939 111.827478) scale(0.1 -0.1)">
       <use xlink:href="#DejaVuSans-31"/>
       <use xlink:href="#DejaVuSans-30" transform="translate(63.623047 0)"/>
      </g>
     </g>
    </g>
    <g id="xtick_121">
     <g id="line2d_25">
      <g>
       <use xlink:href="#m3f194662cc" x="392.889224" y="97.22904" style="stroke: #000000; stroke-width: 0.8"/>
      </g>
     </g>
     <g id="text_23">
      <!-- 100 -->
      <g transform="translate(383.345474 111.827478) scale(0.1 -0.1)">
       <use xlink:href="#DejaVuSans-31"/>
       <use xlink:href="#DejaVuSans-30" transform="translate(63.623047 0)"/>
       <use xlink:href="#DejaVuSans-30" transform="translate(127.246094 0)"/>
      </g>
     </g>
    </g>
    <g id="xtick_122">
     <g id="line2d_26">
      <g>
       <use xlink:href="#m3f194662cc" x="413.186559" y="97.22904" style="stroke: #000000; stroke-width: 0.8"/>
      </g>
     </g>
     <g id="text_24">
      <!-- 1000 -->
      <g transform="translate(400.461559 111.827478) scale(0.1 -0.1)">
       <use xlink:href="#DejaVuSans-31"/>
       <use xlink:href="#DejaVuSans-30" transform="translate(63.623047 0)"/>
       <use xlink:href="#DejaVuSans-30" transform="translate(127.246094 0)"/>
       <use xlink:href="#DejaVuSans-30" transform="translate(190.869141 0)"/>
      </g>
     </g>
    </g>
    <g id="xtick_123"/>
    <g id="xtick_124"/>
    <g id="xtick_125"/>
    <g id="xtick_126"/>
    <g id="xtick_127"/>
    <g id="xtick_128"/>
    <g id="xtick_129"/>
    <g id="xtick_130"/>
    <g id="xtick_131"/>
    <g id="xtick_132"/>
    <g id="xtick_133"/>
    <g id="xtick_134"/>
    <g id="xtick_135"/>
    <g id="xtick_136"/>
    <g id="xtick_137"/>
    <g id="xtick_138"/>
    <g id="xtick_139"/>
    <g id="xtick_140"/>
    <g id="xtick_141"/>
    <g id="xtick_142"/>
    <g id="xtick_143"/>
    <g id="xtick_144"/>
    <g id="xtick_145"/>
    <g id="xtick_146"/>
    <g id="xtick_147"/>
    <g id="xtick_148"/>
    <g id="xtick_149"/>
    <g id="xtick_150"/>
    <g id="xtick_151"/>
    <g id="xtick_152"/>
    <g id="xtick_153"/>
    <g id="xtick_154"/>
    <g id="xtick_155"/>
    <g id="xtick_156"/>
    <g id="xtick_157"/>
    <g id="xtick_158"/>
    <g id="xtick_159"/>
    <g id="xtick_160"/>
    <g id="xtick_161"/>
    <g id="xtick_162"/>
    <g id="xtick_163"/>
    <g id="xtick_164"/>
    <g id="xtick_165"/>
    <g id="xtick_166"/>
    <g id="xtick_167"/>
    <g id="xtick_168"/>
    <g id="xtick_169"/>
    <g id="xtick_170"/>
    <g id="xtick_171"/>
    <g id="xtick_172"/>
    <g id="xtick_173"/>
    <g id="xtick_174"/>
    <g id="text_25">
     <!-- Cohesin Peak Center -->
     <g transform="translate(318.038041 125.505603) scale(0.1 -0.1)">
      <defs>
       <path id="DejaVuSans-6f" d="M 1959 3097 
Q 1497 3097 1228 2736 
Q 959 2375 959 1747 
Q 959 1119 1226 758 
Q 1494 397 1959 397 
Q 2419 397 2687 759 
Q 2956 1122 2956 1747 
Q 2956 2369 2687 2733 
Q 2419 3097 1959 3097 
z
M 1959 3584 
Q 2709 3584 3137 3096 
Q 3566 2609 3566 1747 
Q 3566 888 3137 398 
Q 2709 -91 1959 -91 
Q 1206 -91 779 398 
Q 353 888 353 1747 
Q 353 2609 779 3096 
Q 1206 3584 1959 3584 
z
" transform="scale(0.015625)"/>
       <path id="DejaVuSans-73" d="M 2834 3397 
L 2834 2853 
Q 2591 2978 2328 3040 
Q 2066 3103 1784 3103 
Q 1356 3103 1142 2972 
Q 928 2841 928 2578 
Q 928 2378 1081 2264 
Q 1234 2150 1697 2047 
L 1894 2003 
Q 2506 1872 2764 1633 
Q 3022 1394 3022 966 
Q 3022 478 2636 193 
Q 2250 -91 1575 -91 
Q 1294 -91 989 -36 
Q 684 19 347 128 
L 347 722 
Q 666 556 975 473 
Q 1284 391 1588 391 
Q 1994 391 2212 530 
Q 2431 669 2431 922 
Q 2431 1156 2273 1281 
Q 2116 1406 1581 1522 
L 1381 1569 
Q 847 1681 609 1914 
Q 372 2147 372 2553 
Q 372 3047 722 3315 
Q 1072 3584 1716 3584 
Q 2034 3584 2315 3537 
Q 2597 3491 2834 3397 
z
" transform="scale(0.015625)"/>
       <path id="DejaVuSans-69" d="M 603 3500 
L 1178 3500 
L 1178 0 
L 603 0 
L 603 3500 
z
M 603 4863 
L 1178 4863 
L 1178 4134 
L 603 4134 
L 603 4863 
z
" transform="scale(0.015625)"/>
       <path id="DejaVuSans-6b" d="M 581 4863 
L 1159 4863 
L 1159 1991 
L 2875 3500 
L 3609 3500 
L 1753 1863 
L 3688 0 
L 2938 0 
L 1159 1709 
L 1159 0 
L 581 0 
L 581 4863 
z
" transform="scale(0.015625)"/>
      </defs>
      <use xlink:href="#DejaVuSans-43"/>
      <use xlink:href="#DejaVuSans-6f" transform="translate(69.824219 0)"/>
      <use xlink:href="#DejaVuSans-68" transform="translate(131.005859 0)"/>
      <use xlink:href="#DejaVuSans-65" transform="translate(194.384766 0)"/>
      <use xlink:href="#DejaVuSans-73" transform="translate(255.908203 0)"/>
      <use xlink:href="#DejaVuSans-69" transform="translate(308.007812 0)"/>
      <use xlink:href="#DejaVuSans-6e" transform="translate(335.791016 0)"/>
      <use xlink:href="#DejaVuSans-20" transform="translate(399.169922 0)"/>
      <use xlink:href="#DejaVuSans-50" transform="translate(430.957031 0)"/>
      <use xlink:href="#DejaVuSans-65" transform="translate(487.634766 0)"/>
      <use xlink:href="#DejaVuSans-61" transform="translate(549.158203 0)"/>
      <use xlink:href="#DejaVuSans-6b" transform="translate(610.4375 0)"/>
      <use xlink:href="#DejaVuSans-20" transform="translate(668.347656 0)"/>
      <use xlink:href="#DejaVuSans-43" transform="translate(700.134766 0)"/>
      <use xlink:href="#DejaVuSans-65" transform="translate(769.958984 0)"/>
      <use xlink:href="#DejaVuSans-6e" transform="translate(831.482422 0)"/>
      <use xlink:href="#DejaVuSans-74" transform="translate(894.861328 0)"/>
      <use xlink:href="#DejaVuSans-65" transform="translate(934.070312 0)"/>
      <use xlink:href="#DejaVuSans-72" transform="translate(995.59375 0)"/>
     </g>
    </g>
   </g>
   <g id="matplotlib.axis_6">
    <g id="ytick_7">
     <g id="line2d_27">
      <g>
       <use xlink:href="#mf3bcbd4e5f" x="306.546875" y="97.22904" style="stroke: #000000; stroke-width: 0.8"/>
      </g>
     </g>
    </g>
    <g id="ytick_8">
     <g id="line2d_28">
      <g>
       <use xlink:href="#mf3bcbd4e5f" x="306.546875" y="71.881166" style="stroke: #000000; stroke-width: 0.8"/>
      </g>
     </g>
    </g>
    <g id="ytick_9">
     <g id="line2d_29">
      <g>
       <use xlink:href="#mf3bcbd4e5f" x="306.546875" y="46.533292" style="stroke: #000000; stroke-width: 0.8"/>
      </g>
     </g>
    </g>
   </g>
   <g id="line2d_30">
    <path d="M 312.303813 93.340009 
L 313.472932 93.335004 
L 314.64205 95.342084 
L 315.811168 93.625305 
L 316.980286 92.489127 
L 318.149404 92.544184 
L 319.318522 92.449085 
L 320.48764 92.30894 
L 321.656758 90.036585 
L 322.825877 89.060573 
L 323.994995 86.953389 
L 325.164113 87.363814 
L 326.333231 85.026392 
L 327.502349 83.334638 
L 328.671467 83.144441 
L 329.840585 80.666873 
L 331.009704 78.229346 
L 332.178822 77.358444 
L 333.34794 73.12906 
L 334.517058 71.27714 
L 335.686176 65.220863 
L 336.855294 60.791271 
L 338.024412 55.806104 
L 339.19353 52.802991 
L 340.362649 48.253275 
L 341.531767 42.146946 
L 342.700885 34.458977 
L 343.870003 28.262554 
L 345.039121 31.515926 
L 346.208239 53.743966 
L 347.377357 70.321149 
L 348.546476 73.654604 
L 349.715594 71.472342 
L 350.884712 71.852737 
L 352.05383 74.095061 
L 353.222948 80.356551 
L 354.392066 80.521722 
L 355.561184 79.350508 
L 356.730303 79.345503 
L 357.899421 78.789927 
L 359.068539 78.414538 
L 360.237657 81.192418 
L 361.406775 86.042445 
L 362.575893 86.122528 
L 363.745011 85.061428 
L 364.914129 84.595945 
L 366.083248 84.741096 
L 367.252366 86.167574 
L 368.421484 86.758187 
L 369.590602 85.737128 
L 370.75972 85.451833 
L 371.928838 84.826184 
L 373.097956 83.960287 
L 374.267075 83.649965 
L 375.436193 83.419726 
L 376.605311 83.314617 
L 377.774429 83.695012 
L 378.943547 84.640992 
L 380.112665 85.23661 
L 381.281783 85.536921 
L 382.450901 85.682071 
L 383.62002 86.898332 
L 384.789138 87.308757 
L 385.958256 88.570065 
L 387.127374 89.711248 
L 388.296492 90.837415 
L 389.46561 91.998619 
L 390.634728 92.914568 
L 391.803847 93.77546 
L 392.972965 94.311015 
L 394.142083 94.9717 
L 395.311201 95.131866 
L 396.480319 95.427172 
L 397.649437 95.862624 
L 398.818555 95.987753 
L 399.987673 96.082852 
L 401.156792 96.288065 
L 402.32591 96.368148 
L 403.495028 96.488272 
L 404.664146 96.503288 
L 405.833264 96.613402 
L 407.002382 96.888687 
L 408.1715 96.83363 
L 409.340619 96.903703 
L 410.509737 97.018822 
L 411.678855 97.033838 
L 412.847973 97.10391 
L 414.017091 97.068874 
L 415.186209 97.118926 
L 416.355327 97.21903 
L 417.524445 97.22904 
L 418.693564 97.199009 
L 419.862682 97.214024 
L 421.0318 97.22904 
L 422.200918 97.22904 
L 423.370036 97.22904 
L 424.539154 97.22904 
L 425.708272 97.22904 
L 426.877391 97.22904 
" clip-path="url(#p2d3f683fad)" style="fill: none; stroke: #007fff; stroke-width: 1.5; stroke-linecap: square"/>
   </g>
   <g id="patch_15">
    <path d="M 306.546875 97.22904 
L 306.546875 24.81423 
" style="fill: none; stroke: #000000; stroke-width: 0.8; stroke-linejoin: miter; stroke-linecap: square"/>
   </g>
   <g id="patch_16">
    <path d="M 306.546875 97.22904 
L 433.19952 97.22904 
" style="fill: none; stroke: #000000; stroke-width: 0.8; stroke-linejoin: miter; stroke-linecap: square"/>
   </g>
   <g id="legend_1">
    <g id="patch_17">
     <path d="M 377.276083 36.433136 
L 391.276083 36.433136 
L 391.276083 31.533136 
L 377.276083 31.533136 
z
" style="fill: #dee2e6; stroke: #808080; stroke-linejoin: miter"/>
    </g>
    <g id="text_26">
     <!-- Proximal -->
     <g transform="translate(396.876083 36.433136) scale(0.07 -0.07)">
      <defs>
       <path id="DejaVuSans-78" d="M 3513 3500 
L 2247 1797 
L 3578 0 
L 2900 0 
L 1881 1375 
L 863 0 
L 184 0 
L 1544 1831 
L 300 3500 
L 978 3500 
L 1906 2253 
L 2834 3500 
L 3513 3500 
z
" transform="scale(0.015625)"/>
       <path id="DejaVuSans-6d" d="M 3328 2828 
Q 3544 3216 3844 3400 
Q 4144 3584 4550 3584 
Q 5097 3584 5394 3201 
Q 5691 2819 5691 2113 
L 5691 0 
L 5113 0 
L 5113 2094 
Q 5113 2597 4934 2840 
Q 4756 3084 4391 3084 
Q 3944 3084 3684 2787 
Q 3425 2491 3425 1978 
L 3425 0 
L 2847 0 
L 2847 2094 
Q 2847 2600 2669 2842 
Q 2491 3084 2119 3084 
Q 1678 3084 1418 2786 
Q 1159 2488 1159 1978 
L 1159 0 
L 581 0 
L 581 3500 
L 1159 3500 
L 1159 2956 
Q 1356 3278 1631 3431 
Q 1906 3584 2284 3584 
Q 2666 3584 2933 3390 
Q 3200 3197 3328 2828 
z
" transform="scale(0.015625)"/>
       <path id="DejaVuSans-6c" d="M 603 4863 
L 1178 4863 
L 1178 0 
L 603 0 
L 603 4863 
z
" transform="scale(0.015625)"/>
      </defs>
      <use xlink:href="#DejaVuSans-50"/>
      <use xlink:href="#DejaVuSans-72" transform="translate(58.552734 0)"/>
      <use xlink:href="#DejaVuSans-6f" transform="translate(97.416016 0)"/>
      <use xlink:href="#DejaVuSans-78" transform="translate(155.472656 0)"/>
      <use xlink:href="#DejaVuSans-69" transform="translate(214.652344 0)"/>
      <use xlink:href="#DejaVuSans-6d" transform="translate(242.435547 0)"/>
      <use xlink:href="#DejaVuSans-61" transform="translate(339.847656 0)"/>
      <use xlink:href="#DejaVuSans-6c" transform="translate(401.126953 0)"/>
     </g>
    </g>
    <g id="patch_18">
     <path d="M 377.276083 46.707824 
L 391.276083 46.707824 
L 391.276083 41.807824 
L 377.276083 41.807824 
z
" style="fill: #ffffff; stroke: #808080; stroke-linejoin: miter"/>
    </g>
    <g id="text_27">
     <!-- Distal -->
     <g transform="translate(396.876083 46.707824) scale(0.07 -0.07)">
      <defs>
       <path id="DejaVuSans-44" d="M 1259 4147 
L 1259 519 
L 2022 519 
Q 2988 519 3436 956 
Q 3884 1394 3884 2338 
Q 3884 3275 3436 3711 
Q 2988 4147 2022 4147 
L 1259 4147 
z
M 628 4666 
L 1925 4666 
Q 3281 4666 3915 4102 
Q 4550 3538 4550 2338 
Q 4550 1131 3912 565 
Q 3275 0 1925 0 
L 628 0 
L 628 4666 
z
" transform="scale(0.015625)"/>
      </defs>
      <use xlink:href="#DejaVuSans-44"/>
      <use xlink:href="#DejaVuSans-69" transform="translate(77.001953 0)"/>
      <use xlink:href="#DejaVuSans-73" transform="translate(104.785156 0)"/>
      <use xlink:href="#DejaVuSans-74" transform="translate(156.884766 0)"/>
      <use xlink:href="#DejaVuSans-61" transform="translate(196.09375 0)"/>
      <use xlink:href="#DejaVuSans-6c" transform="translate(257.373047 0)"/>
     </g>
    </g>
   </g>
  </g>
  <g id="text_28">
   <!-- Anchors Are Bimodally Positioned With Respect to CREs and Cohesin -->
   <g transform="translate(14.08476 16.318125) scale(0.12 -0.12)">
    <defs>
     <path id="DejaVuSans-41" d="M 2188 4044 
L 1331 1722 
L 3047 1722 
L 2188 4044 
z
M 1831 4666 
L 2547 4666 
L 4325 0 
L 3669 0 
L 3244 1197 
L 1141 1197 
L 716 0 
L 50 0 
L 1831 4666 
z
" transform="scale(0.015625)"/>
     <path id="DejaVuSans-42" d="M 1259 2228 
L 1259 519 
L 2272 519 
Q 2781 519 3026 730 
Q 3272 941 3272 1375 
Q 3272 1813 3026 2020 
Q 2781 2228 2272 2228 
L 1259 2228 
z
M 1259 4147 
L 1259 2741 
L 2194 2741 
Q 2656 2741 2882 2914 
Q 3109 3088 3109 3444 
Q 3109 3797 2882 3972 
Q 2656 4147 2194 4147 
L 1259 4147 
z
M 628 4666 
L 2241 4666 
Q 2963 4666 3353 4366 
Q 3744 4066 3744 3513 
Q 3744 3084 3544 2831 
Q 3344 2578 2956 2516 
Q 3422 2416 3680 2098 
Q 3938 1781 3938 1306 
Q 3938 681 3513 340 
Q 3088 0 2303 0 
L 628 0 
L 628 4666 
z
" transform="scale(0.015625)"/>
     <path id="DejaVuSans-64" d="M 2906 2969 
L 2906 4863 
L 3481 4863 
L 3481 0 
L 2906 0 
L 2906 525 
Q 2725 213 2448 61 
Q 2172 -91 1784 -91 
Q 1150 -91 751 415 
Q 353 922 353 1747 
Q 353 2572 751 3078 
Q 1150 3584 1784 3584 
Q 2172 3584 2448 3432 
Q 2725 3281 2906 2969 
z
M 947 1747 
Q 947 1113 1208 752 
Q 1469 391 1925 391 
Q 2381 391 2643 752 
Q 2906 1113 2906 1747 
Q 2906 2381 2643 2742 
Q 2381 3103 1925 3103 
Q 1469 3103 1208 2742 
Q 947 2381 947 1747 
z
" transform="scale(0.015625)"/>
     <path id="DejaVuSans-79" d="M 2059 -325 
Q 1816 -950 1584 -1140 
Q 1353 -1331 966 -1331 
L 506 -1331 
L 506 -850 
L 844 -850 
Q 1081 -850 1212 -737 
Q 1344 -625 1503 -206 
L 1606 56 
L 191 3500 
L 800 3500 
L 1894 763 
L 2988 3500 
L 3597 3500 
L 2059 -325 
z
" transform="scale(0.015625)"/>
     <path id="DejaVuSans-57" d="M 213 4666 
L 850 4666 
L 1831 722 
L 2809 4666 
L 3519 4666 
L 4500 722 
L 5478 4666 
L 6119 4666 
L 4947 0 
L 4153 0 
L 3169 4050 
L 2175 0 
L 1381 0 
L 213 4666 
z
" transform="scale(0.015625)"/>
     <path id="DejaVuSans-52" d="M 2841 2188 
Q 3044 2119 3236 1894 
Q 3428 1669 3622 1275 
L 4263 0 
L 3584 0 
L 2988 1197 
Q 2756 1666 2539 1819 
Q 2322 1972 1947 1972 
L 1259 1972 
L 1259 0 
L 628 0 
L 628 4666 
L 2053 4666 
Q 2853 4666 3247 4331 
Q 3641 3997 3641 3322 
Q 3641 2881 3436 2590 
Q 3231 2300 2841 2188 
z
M 1259 4147 
L 1259 2491 
L 2053 2491 
Q 2509 2491 2742 2702 
Q 2975 2913 2975 3322 
Q 2975 3731 2742 3939 
Q 2509 4147 2053 4147 
L 1259 4147 
z
" transform="scale(0.015625)"/>
     <path id="DejaVuSans-70" d="M 1159 525 
L 1159 -1331 
L 581 -1331 
L 581 3500 
L 1159 3500 
L 1159 2969 
Q 1341 3281 1617 3432 
Q 1894 3584 2278 3584 
Q 2916 3584 3314 3078 
Q 3713 2572 3713 1747 
Q 3713 922 3314 415 
Q 2916 -91 2278 -91 
Q 1894 -91 1617 61 
Q 1341 213 1159 525 
z
M 3116 1747 
Q 3116 2381 2855 2742 
Q 2594 3103 2138 3103 
Q 1681 3103 1420 2742 
Q 1159 2381 1159 1747 
Q 1159 1113 1420 752 
Q 1681 391 2138 391 
Q 2594 391 2855 752 
Q 3116 1113 3116 1747 
z
" transform="scale(0.015625)"/>
    </defs>
    <use xlink:href="#DejaVuSans-41"/>
    <use xlink:href="#DejaVuSans-6e" transform="translate(68.408203 0)"/>
    <use xlink:href="#DejaVuSans-63" transform="translate(131.787109 0)"/>
    <use xlink:href="#DejaVuSans-68" transform="translate(186.767578 0)"/>
    <use xlink:href="#DejaVuSans-6f" transform="translate(250.146484 0)"/>
    <use xlink:href="#DejaVuSans-72" transform="translate(311.328125 0)"/>
    <use xlink:href="#DejaVuSans-73" transform="translate(352.441406 0)"/>
    <use xlink:href="#DejaVuSans-20" transform="translate(404.541016 0)"/>
    <use xlink:href="#DejaVuSans-41" transform="translate(436.328125 0)"/>
    <use xlink:href="#DejaVuSans-72" transform="translate(504.736328 0)"/>
    <use xlink:href="#DejaVuSans-65" transform="translate(543.599609 0)"/>
    <use xlink:href="#DejaVuSans-20" transform="translate(605.123047 0)"/>
    <use xlink:href="#DejaVuSans-42" transform="translate(636.910156 0)"/>
    <use xlink:href="#DejaVuSans-69" transform="translate(705.513672 0)"/>
    <use xlink:href="#DejaVuSans-6d" transform="translate(733.296875 0)"/>
    <use xlink:href="#DejaVuSans-6f" transform="translate(830.708984 0)"/>
    <use xlink:href="#DejaVuSans-64" transform="translate(891.890625 0)"/>
    <use xlink:href="#DejaVuSans-61" transform="translate(955.367188 0)"/>
    <use xlink:href="#DejaVuSans-6c" transform="translate(1016.646484 0)"/>
    <use xlink:href="#DejaVuSans-6c" transform="translate(1044.429688 0)"/>
    <use xlink:href="#DejaVuSans-79" transform="translate(1072.212891 0)"/>
    <use xlink:href="#DejaVuSans-20" transform="translate(1131.392578 0)"/>
    <use xlink:href="#DejaVuSans-50" transform="translate(1163.179688 0)"/>
    <use xlink:href="#DejaVuSans-6f" transform="translate(1219.857422 0)"/>
    <use xlink:href="#DejaVuSans-73" transform="translate(1281.039062 0)"/>
    <use xlink:href="#DejaVuSans-69" transform="translate(1333.138672 0)"/>
    <use xlink:href="#DejaVuSans-74" transform="translate(1360.921875 0)"/>
    <use xlink:href="#DejaVuSans-69" transform="translate(1400.130859 0)"/>
    <use xlink:href="#DejaVuSans-6f" transform="translate(1427.914062 0)"/>
    <use xlink:href="#DejaVuSans-6e" transform="translate(1489.095703 0)"/>
    <use xlink:href="#DejaVuSans-65" transform="translate(1552.474609 0)"/>
    <use xlink:href="#DejaVuSans-64" transform="translate(1613.998047 0)"/>
    <use xlink:href="#DejaVuSans-20" transform="translate(1677.474609 0)"/>
    <use xlink:href="#DejaVuSans-57" transform="translate(1709.261719 0)"/>
    <use xlink:href="#DejaVuSans-69" transform="translate(1805.888672 0)"/>
    <use xlink:href="#DejaVuSans-74" transform="translate(1833.671875 0)"/>
    <use xlink:href="#DejaVuSans-68" transform="translate(1872.880859 0)"/>
    <use xlink:href="#DejaVuSans-20" transform="translate(1936.259766 0)"/>
    <use xlink:href="#DejaVuSans-52" transform="translate(1968.046875 0)"/>
    <use xlink:href="#DejaVuSans-65" transform="translate(2033.029297 0)"/>
    <use xlink:href="#DejaVuSans-73" transform="translate(2094.552734 0)"/>
    <use xlink:href="#DejaVuSans-70" transform="translate(2146.652344 0)"/>
    <use xlink:href="#DejaVuSans-65" transform="translate(2210.128906 0)"/>
    <use xlink:href="#DejaVuSans-63" transform="translate(2271.652344 0)"/>
    <use xlink:href="#DejaVuSans-74" transform="translate(2326.632812 0)"/>
    <use xlink:href="#DejaVuSans-20" transform="translate(2365.841797 0)"/>
    <use xlink:href="#DejaVuSans-74" transform="translate(2397.628906 0)"/>
    <use xlink:href="#DejaVuSans-6f" transform="translate(2436.837891 0)"/>
    <use xlink:href="#DejaVuSans-20" transform="translate(2498.019531 0)"/>
    <use xlink:href="#DejaVuSans-43" transform="translate(2529.806641 0)"/>
    <use xlink:href="#DejaVuSans-52" transform="translate(2599.630859 0)"/>
    <use xlink:href="#DejaVuSans-45" transform="translate(2669.113281 0)"/>
    <use xlink:href="#DejaVuSans-73" transform="translate(2732.296875 0)"/>
    <use xlink:href="#DejaVuSans-20" transform="translate(2784.396484 0)"/>
    <use xlink:href="#DejaVuSans-61" transform="translate(2816.183594 0)"/>
    <use xlink:href="#DejaVuSans-6e" transform="translate(2877.462891 0)"/>
    <use xlink:href="#DejaVuSans-64" transform="translate(2940.841797 0)"/>
    <use xlink:href="#DejaVuSans-20" transform="translate(3004.318359 0)"/>
    <use xlink:href="#DejaVuSans-43" transform="translate(3036.105469 0)"/>
    <use xlink:href="#DejaVuSans-6f" transform="translate(3105.929688 0)"/>
    <use xlink:href="#DejaVuSans-68" transform="translate(3167.111328 0)"/>
    <use xlink:href="#DejaVuSans-65" transform="translate(3230.490234 0)"/>
    <use xlink:href="#DejaVuSans-73" transform="translate(3292.013672 0)"/>
    <use xlink:href="#DejaVuSans-69" transform="translate(3344.113281 0)"/>
    <use xlink:href="#DejaVuSans-6e" transform="translate(3371.896484 0)"/>
   </g>
  </g>
  <g id="text_29">
   <!-- Distance (kb) From Loop Anchor Center To Nearest Element -->
   <g transform="translate(41.635073 142.703895) scale(0.12 -0.12)">
    <defs>
     <path id="DejaVuSans-28" d="M 1984 4856 
Q 1566 4138 1362 3434 
Q 1159 2731 1159 2009 
Q 1159 1288 1364 580 
Q 1569 -128 1984 -844 
L 1484 -844 
Q 1016 -109 783 600 
Q 550 1309 550 2009 
Q 550 2706 781 3412 
Q 1013 4119 1484 4856 
L 1984 4856 
z
" transform="scale(0.015625)"/>
     <path id="DejaVuSans-62" d="M 3116 1747 
Q 3116 2381 2855 2742 
Q 2594 3103 2138 3103 
Q 1681 3103 1420 2742 
Q 1159 2381 1159 1747 
Q 1159 1113 1420 752 
Q 1681 391 2138 391 
Q 2594 391 2855 752 
Q 3116 1113 3116 1747 
z
M 1159 2969 
Q 1341 3281 1617 3432 
Q 1894 3584 2278 3584 
Q 2916 3584 3314 3078 
Q 3713 2572 3713 1747 
Q 3713 922 3314 415 
Q 2916 -91 2278 -91 
Q 1894 -91 1617 61 
Q 1341 213 1159 525 
L 1159 0 
L 581 0 
L 581 4863 
L 1159 4863 
L 1159 2969 
z
" transform="scale(0.015625)"/>
     <path id="DejaVuSans-29" d="M 513 4856 
L 1013 4856 
Q 1481 4119 1714 3412 
Q 1947 2706 1947 2009 
Q 1947 1309 1714 600 
Q 1481 -109 1013 -844 
L 513 -844 
Q 928 -128 1133 580 
Q 1338 1288 1338 2009 
Q 1338 2731 1133 3434 
Q 928 4138 513 4856 
z
" transform="scale(0.015625)"/>
     <path id="DejaVuSans-46" d="M 628 4666 
L 3309 4666 
L 3309 4134 
L 1259 4134 
L 1259 2759 
L 3109 2759 
L 3109 2228 
L 1259 2228 
L 1259 0 
L 628 0 
L 628 4666 
z
" transform="scale(0.015625)"/>
     <path id="DejaVuSans-4c" d="M 628 4666 
L 1259 4666 
L 1259 531 
L 3531 531 
L 3531 0 
L 628 0 
L 628 4666 
z
" transform="scale(0.015625)"/>
     <path id="DejaVuSans-4e" d="M 628 4666 
L 1478 4666 
L 3547 763 
L 3547 4666 
L 4159 4666 
L 4159 0 
L 3309 0 
L 1241 3903 
L 1241 0 
L 628 0 
L 628 4666 
z
" transform="scale(0.015625)"/>
    </defs>
    <use xlink:href="#DejaVuSans-44"/>
    <use xlink:href="#DejaVuSans-69" transform="translate(77.001953 0)"/>
    <use xlink:href="#DejaVuSans-73" transform="translate(104.785156 0)"/>
    <use xlink:href="#DejaVuSans-74" transform="translate(156.884766 0)"/>
    <use xlink:href="#DejaVuSans-61" transform="translate(196.09375 0)"/>
    <use xlink:href="#DejaVuSans-6e" transform="translate(257.373047 0)"/>
    <use xlink:href="#DejaVuSans-63" transform="translate(320.751953 0)"/>
    <use xlink:href="#DejaVuSans-65" transform="translate(375.732422 0)"/>
    <use xlink:href="#DejaVuSans-20" transform="translate(437.255859 0)"/>
    <use xlink:href="#DejaVuSans-28" transform="translate(469.042969 0)"/>
    <use xlink:href="#DejaVuSans-6b" transform="translate(508.056641 0)"/>
    <use xlink:href="#DejaVuSans-62" transform="translate(565.966797 0)"/>
    <use xlink:href="#DejaVuSans-29" transform="translate(629.443359 0)"/>
    <use xlink:href="#DejaVuSans-20" transform="translate(668.457031 0)"/>
    <use xlink:href="#DejaVuSans-46" transform="translate(700.244141 0)"/>
    <use xlink:href="#DejaVuSans-72" transform="translate(750.513672 0)"/>
    <use xlink:href="#DejaVuSans-6f" transform="translate(789.376953 0)"/>
    <use xlink:href="#DejaVuSans-6d" transform="translate(850.558594 0)"/>
    <use xlink:href="#DejaVuSans-20" transform="translate(947.970703 0)"/>
    <use xlink:href="#DejaVuSans-4c" transform="translate(979.757812 0)"/>
    <use xlink:href="#DejaVuSans-6f" transform="translate(1033.720703 0)"/>
    <use xlink:href="#DejaVuSans-6f" transform="translate(1094.902344 0)"/>
    <use xlink:href="#DejaVuSans-70" transform="translate(1156.083984 0)"/>
    <use xlink:href="#DejaVuSans-20" transform="translate(1219.560547 0)"/>
    <use xlink:href="#DejaVuSans-41" transform="translate(1251.347656 0)"/>
    <use xlink:href="#DejaVuSans-6e" transform="translate(1319.755859 0)"/>
    <use xlink:href="#DejaVuSans-63" transform="translate(1383.134766 0)"/>
    <use xlink:href="#DejaVuSans-68" transform="translate(1438.115234 0)"/>
    <use xlink:href="#DejaVuSans-6f" transform="translate(1501.494141 0)"/>
    <use xlink:href="#DejaVuSans-72" transform="translate(1562.675781 0)"/>
    <use xlink:href="#DejaVuSans-20" transform="translate(1603.789062 0)"/>
    <use xlink:href="#DejaVuSans-43" transform="translate(1635.576172 0)"/>
    <use xlink:href="#DejaVuSans-65" transform="translate(1705.400391 0)"/>
    <use xlink:href="#DejaVuSans-6e" transform="translate(1766.923828 0)"/>
    <use xlink:href="#DejaVuSans-74" transform="translate(1830.302734 0)"/>
    <use xlink:href="#DejaVuSans-65" transform="translate(1869.511719 0)"/>
    <use xlink:href="#DejaVuSans-72" transform="translate(1931.035156 0)"/>
    <use xlink:href="#DejaVuSans-20" transform="translate(1972.148438 0)"/>
    <use xlink:href="#DejaVuSans-54" transform="translate(2003.935547 0)"/>
    <use xlink:href="#DejaVuSans-6f" transform="translate(2048.019531 0)"/>
    <use xlink:href="#DejaVuSans-20" transform="translate(2109.201172 0)"/>
    <use xlink:href="#DejaVuSans-4e" transform="translate(2140.988281 0)"/>
    <use xlink:href="#DejaVuSans-65" transform="translate(2215.792969 0)"/>
    <use xlink:href="#DejaVuSans-61" transform="translate(2277.316406 0)"/>
    <use xlink:href="#DejaVuSans-72" transform="translate(2338.595703 0)"/>
    <use xlink:href="#DejaVuSans-65" transform="translate(2377.458984 0)"/>
    <use xlink:href="#DejaVuSans-73" transform="translate(2438.982422 0)"/>
    <use xlink:href="#DejaVuSans-74" transform="translate(2491.082031 0)"/>
    <use xlink:href="#DejaVuSans-20" transform="translate(2530.291016 0)"/>
    <use xlink:href="#DejaVuSans-45" transform="translate(2562.078125 0)"/>
    <use xlink:href="#DejaVuSans-6c" transform="translate(2625.261719 0)"/>
    <use xlink:href="#DejaVuSans-65" transform="translate(2653.044922 0)"/>
    <use xlink:href="#DejaVuSans-6d" transform="translate(2714.568359 0)"/>
    <use xlink:href="#DejaVuSans-65" transform="translate(2811.980469 0)"/>
    <use xlink:href="#DejaVuSans-6e" transform="translate(2873.503906 0)"/>
    <use xlink:href="#DejaVuSans-74" transform="translate(2936.882812 0)"/>
   </g>
  </g>
 </g>
 <defs>
  <clipPath id="pf9295ce8f4">
   <rect x="34.240625" y="24.81423" width="126.652645" height="72.41481"/>
  </clipPath>
  <clipPath id="p5305ce362c">
   <rect x="170.39375" y="24.81423" width="126.652645" height="72.41481"/>
  </clipPath>
  <clipPath id="p2d3f683fad">
   <rect x="306.546875" y="24.81423" width="126.652645" height="72.41481"/>
  </clipPath>
 </defs>
</svg>
